<svg viewBox="0 0 24 24" fill="currentColor">
    <path d="M22.34 6.53 16.47.66A2.25 2.25 0 0 0 14.88 0H4.22A2.25 2.25 0 0 0 2 2.25v19.5A2.25 2.25 0 0 0 4.22 24h16.5a2.25 2.25 0 0 0 2.25-2.25V8.12a2.25 2.25 0 0 0-.63-1.59Zm-15.69-.4a3 3 0 0 1 1.16-.52v-.36a.75.75 0 0 1 1.5 0v.35a3 3 0 0 1 1.7 1.1.75.75 0 1 1-1.19.91A1.47 1.47 0 0 0 8.6 7a1.7 1.7 0 0 0-1 .3.64.64 0 0 0-.3.49.64.64 0 0 0 .3.49 1.7 1.7 0 0 0 1 .3 3.18 3.18 0 0 1 1.91.6 2 2 0 0 1 0 3.39 3 3 0 0 1-1.15.52v.36a.75.75 0 1 1-1.5 0v-.35A3 3 0 0 1 6.1 12a.75.75 0 0 1 1.19-.91 1.47 1.47 0 0 0 1.23.58 1.7 1.7 0 0 0 1-.3.55.55 0 0 0 0-1 1.69 1.69 0 0 0-1-.3 3.19 3.19 0 0 1-1.91-.6 2.13 2.13 0 0 1-.9-1.69 2.13 2.13 0 0 1 .94-1.65ZM18.5 18.75a.75.75 0 1 1 0 1.5H7.22a.75.75 0 1 1 0-1.5H18.5Zm0-3h-6a.75.75 0 1 1 0-1.5h6a.75.75 0 1 1 0 1.5Z"/>
</svg>
