<svg viewBox="0 0 24 24" fill="currentColor">
    <path d="M6.41 3.86H20a1 1 0 1 0 0-2H6.41a1 1 0 0 0 0 2ZM6.41 9.48H20a1 1 0 1 0 0-2H6.41a1 1 0 0 0 0 2ZM9.16 13H6.41a1 1 0 0 0 0 2h2.75a1 1 0 0 0 0-2ZM3.02 4.22a1.36 1.36 0 1 0 0-2.72 1.36 1.36 0 0 0 0 2.72ZM17.2 10.79a6 6 0 1 0 0 12 6 6 0 0 0 0-12Zm2 6.76H18v1.36a.75.75 0 1 1-1.5 0v-1.37h-1.31a.75.75 0 1 1 0-1.5h1.29v-1.33a.75.75 0 1 1 1.5 0V16h1.23a.75.75 0 1 1 0 1.5l-.01.05ZM3.02 9.84a1.36 1.36 0 1 0 0-2.72 1.36 1.36 0 0 0 0 2.72ZM3.02 15.4a1.36 1.36 0 1 0 0-2.72 1.36 1.36 0 0 0 0 2.72Z"/>
</svg>
