<svg viewBox="0 0 24 24" fill="currentColor">
    <path d="M6.06 3.63h13.63a.75.75 0 1 0 0-1.5H6.06a.75.75 0 0 0 0 1.5ZM6.06 9.25h13.63a.75.75 0 1 0 0-1.5H6.06a.75.75 0 0 0 0 1.5ZM8.81 13.31H6.06a.75.75 0 1 0 0 1.5h2.75a.75.75 0 1 0 0-1.5ZM2.69 3.82a.94.94 0 1 0 0-1.88.94.94 0 0 0 0 1.88ZM2.69 9.44a.94.94 0 1 0 0-1.88.94.94 0 0 0 0 1.88ZM2.69 15a.94.94 0 1 0 0-1.88.94.94 0 0 0 0 1.88ZM16.88 10.77a6 6 0 1 0 0 12 6 6 0 0 0 0-12Zm0 10.57a4.54 4.54 0 1 1 4.54-4.54 4.54 4.54 0 0 1-4.54 4.55v-.01Z"/>
    <path d="M18.86 16.06h-1.23v-1.33a.75.75 0 1 0-1.5 0v1.33h-1.29a.75.75 0 1 0 0 1.5h1.29v1.36a.75.75 0 1 0 1.5 0v-1.36h1.23a.75.75 0 1 0 0-1.5Z"/>
</svg>
