<svg viewBox="0 0 24 24" fill="currentColor">
    <path d="M1 16.25h1.667a1.861 1.861 0 0 0 1.784-1.5c.033-.146.05-.295.049-.444V14a.25.25 0 0 1 .25-.25H6a.5.5 0 0 1 .373.167l3.59 4.023a.87.87 0 0 0 1.537-.561v-.318a.249.249 0 0 0-.073-.177l-.781-.78a.5.5 0 0 1 .708-.708l.927.928.083.033a1.192 1.192 0 0 0 1.585-.764.249.249 0 0 0-.062-.249L12.646 14.1a.5.5 0 0 1 .708-.708l1.28 1.281c.047.047.11.073.177.073H15a1 1 0 0 0 .8-1.6l-2.874-3.678a.251.251 0 0 0-.276-.083l-1.56.515a1.686 1.686 0 0 1-1.8-2.712.251.251 0 0 0-.154-.413 1.668 1.668 0 0 0-.838.1L4.843 8.252A.25.25 0 0 1 4.5 8.02v-.326c0-.124-.011-.247-.034-.369a1.867 1.867 0 0 0-1.8-1.575H1a1 1 0 0 0-1 1v8.5a1 1 0 0 0 1 1Z"/>
    <path d="m14.656 8.726-.49.161a.25.25 0 0 0-.166.164.248.248 0 0 0 .043.226l2.557 3.266a2.027 2.027 0 0 1 .374 1.526.25.25 0 0 0 .294.286l1.935-.368a.255.255 0 0 1 .206.053.249.249 0 0 1 .091.193v.073c0 .212.035.423.1.625.23.77.931 1.303 1.735 1.319H23a1 1 0 0 0 1-1v-8.5a1 1 0 0 0-1-1h-1.667a1.794 1.794 0 0 0-1.442.747 1.969 1.969 0 0 0-.319.659.252.252 0 0 1-.327.17l-4.015-1.46a1.95 1.95 0 0 0-1.518.087l-3.455 1.728a.686.686 0 0 0 .52 1.265l3.567-1.171a.5.5 0 0 1 .312.951Z"/>
</svg>
