<svg viewBox="0 0 24 24" fill="currentColor">
    <path d="M18.876 6.451A2.978 2.978 0 0 1 18.5 5a.153.153 0 0 0-.06-.121.157.157 0 0 0-.133-.025l-5 1.4a.253.253 0 0 0-.154.357c.227.428.346.905.347 1.389a.208.208 0 0 0 .263.2l4.961-1.386a.25.25 0 0 0 .152-.363ZM18.818 15.946a.248.248 0 0 0-.17-.136l-4.842-1.127a.248.248 0 0 0-.307.249V15c0 .445-.098.884-.29 1.285a.251.251 0 0 0 .17.352l4.813 1.121a.255.255 0 0 0 .213-.049.25.25 0 0 0 .094-.2V17.5c0-.463.108-.92.315-1.335a.255.255 0 0 0 .004-.219Z"/>
    <path d="M1 0a1 1 0 0 0-1 1v21.522c.004.819.67 1.48 1.489 1.478H23a1 1 0 1 0 0-2H2.25a.249.249 0 0 1-.25-.25v-.05c0-.087.045-.168.119-.213l6.314-3.881a.25.25 0 0 0 .039-.4 3 3 0 0 1-.778-1.147.25.25 0 0 0-.365-.124l-4.948 3.043A.251.251 0 0 1 2 18.765v-2.649c0-.079.037-.153.1-.2l6.636-5.1a.25.25 0 0 0 0-.4 3.022 3.022 0 0 1-.9-1.056.25.25 0 0 0-.375-.084L2.4 13.162a.25.25 0 0 1-.4-.2V1a1 1 0 0 0-1-1Z"/>
    <path d="M12.5 8a2 2 0 1 1-4 0 2 2 0 0 1 4 0ZM23.5 5a2 2 0 1 1-4 0 2 2 0 0 1 4 0ZM23.5 17.5a2 2 0 1 1-4 0 2 2 0 0 1 4 0ZM12.5 15a2 2 0 1 1-4 0 2 2 0 0 1 4 0Z"/>
</svg>
