<svg viewBox="0 0 24 24" fill="currentColor">
    <path fill-rule="evenodd" d="M21 3.75a.75.75 0 0 0-1.166-.624l-1.134.756A21.55 21.55 0 0 1 6.751 7.5H4.5a4.5 4.5 0 0 0 0 9h1.535a7.988 7.988 0 0 0 2.448 5.043.75.75 0 1 0 1.034-1.086 6.49 6.49 0 0 1-1.972-3.942A21.55 21.55 0 0 1 18.7 20.118l1.134.756A.75.75 0 0 0 21 20.25V3.75ZM7.5 15.012a23.05 23.05 0 0 1 12 3.837V5.15a23.05 23.05 0 0 1-12 3.837v6.024ZM6 9H4.5a3 3 0 1 0 0 6H6V9Z" clip-rule="evenodd"/>
    <path d="M23.25 9.75a.75.75 0 0 1 .75.75v3a.75.75 0 0 1-1.5 0v-3a.75.75 0 0 1 .75-.75Z"/>
</svg>
