<svg viewBox="0 0 24 24" fill="currentColor">
    <path d="M20.712 3.09a.754.754 0 0 1 .398.664V20.34a.754.754 0 0 1-1.172.628l-1.14-.76a21.663 21.663 0 0 0-11.214-3.622 6.523 6.523 0 0 0 1.983 3.962.754.754 0 1 1-1.04 1.093 8.03 8.03 0 0 1-2.46-5.07V7.524h.72c4.275-.001 8.454-1.267 12.011-3.637l1.14-.76a.754.754 0 0 1 .774-.038ZM1.325 8.848a4.524 4.524 0 0 1 3.199-1.324v9.047a4.524 4.524 0 0 1-3.2-7.723ZM22.87 9.408a1.13 1.13 0 0 0-1.132 1.131v3.016a1.13 1.13 0 0 0 2.262 0v-3.016a1.13 1.13 0 0 0-1.13-1.13Z"/>
</svg>
