<svg viewBox="0 0 24 24" fill="currentColor">
    <path d="M14.102 7.48a1.24 1.24 0 1 0 0-2.48 1.24 1.24 0 0 0 0 2.48ZM9.342 7.49a1.24 1.24 0 1 0 0-2.48 1.24 1.24 0 0 0 0 2.48Z"/>
    <path d="M20.002 23c-1-2.52-3.27-3.92-6.58-3.84-.77 0-1-.3-1.1-.4a2.6 2.6 0 0 1-.32-1.76c4.29-.07 7.76-3.84 7.76-8.46 0-4.62-3.54-8.54-7.89-8.54s-7.87 3.84-7.87 8.51a8.33 8.33 0 0 0 6.53 8.33 3.91 3.91 0 0 0 .62 2.81 2.83 2.83 0 0 0 2.3 1c1.83 0 4.23.44 5.15 2.86a.76.76 0 0 0 .7.49.86.86 0 0 0 .27-.05.75.75 0 0 0 .43-.95ZM5.482 8.51a6.7 6.7 0 0 1 6.39-7 6.7 6.7 0 0 1 6.39 7 6.7 6.7 0 0 1-6.39 7 6.701 6.701 0 0 1-6.39-7Z"/>
    <path d="M11.832 12.75a5 5 0 0 1-3.41-1.67.754.754 0 1 1 1.13-1 3.58 3.58 0 0 0 2.28 1.15 2.8 2.8 0 0 0 2-1.15.74.74 0 0 1 1-.08.76.76 0 0 1 .17 1.08 4.2 4.2 0 0 1-3.18 1.67h.01Z"/>
</svg>
