<svg viewBox="0 0 24 24" fill="currentColor">
    <path d="M20.599 22.66c-.993-2.6-3.355-3.97-6.74-3.97-.615 0-.833-.219-.893-.298a1.768 1.768 0 0 1-.268-1.062 8.417 8.417 0 0 0 7.355-8.625C20.053 3.97 16.46 0 12.023 0c-4.437 0-8.02 3.97-8.02 8.715a8.496 8.496 0 0 0 6.71 8.546 3.772 3.772 0 0 0 .695 2.372 3.107 3.107 0 0 0 2.481 1.052c2.531-.05 4.169.863 4.864 2.68a.993.993 0 0 0 .923.635c.121 0 .242-.02.357-.06a.992.992 0 0 0 .566-1.28ZM14.445 4.963a1.29 1.29 0 1 1 .02 2.58 1.29 1.29 0 0 1-.02-2.58Zm-4.963 0a1.29 1.29 0 1 1-1.29 1.28 1.28 1.28 0 0 1 1.32-1.28h-.03Zm-.903 6.332a.784.784 0 0 1 .08-1.101.794.794 0 0 1 1.101.069 3.702 3.702 0 0 0 2.372 1.201 2.878 2.878 0 0 0 2.125-1.191.784.784 0 0 1 1.101-.09.776.776 0 0 1 .169 1.102 4.367 4.367 0 0 1-3.305 1.747 5.271 5.271 0 0 1-3.643-1.737Z"/>
</svg>
