<svg viewBox="0 0 24 24" fill="currentColor">
    <path fill-rule="evenodd" d="M18.737 8.21a2.172 2.172 0 0 0 .063-3.157L14.265.57a1.688 1.688 0 0 0-1.858-.462 1.68 1.68 0 0 0-.975 1.64v6.768a.25.25 0 0 1-.42.184L6.69 4.733a1.256 1.256 0 0 0-1.772.072c-.47.508-.437 1.3.072 1.768l5.712 5.233a.249.249 0 0 1 0 .369l-5.735 5.244a1.249 1.249 0 0 0 .465 2.126c.431.133.901.025 1.23-.283l4.353-3.984a.251.251 0 0 1 .42.184v6.782c-.047.697.341 1.35.976 1.642.181.076.375.114.572.114.488-.016.95-.224 1.283-.58l4.534-4.48a2.175 2.175 0 0 0-.06-3.156l-3.933-3.607a.25.25 0 0 1 0-.37l3.93-3.597Zm-2.133 9.011a.253.253 0 0 1 .006.362L14.37 19.8a.251.251 0 0 1-.427-.178v-4.27a.25.25 0 0 1 .42-.184l2.241 2.054Zm-2.511-8.36c.09.04.196.024.27-.043l2.24-2.048a.25.25 0 0 0 .006-.362l-2.24-2.214a.251.251 0 0 0-.426.177v4.263c0 .1.06.188.15.228Z" clip-rule="evenodd"/>
</svg>
