<svg viewBox="0 0 24 24" fill="currentColor">
    <path fill-rule="evenodd" d="M11.293.076a.755.755 0 0 1 .793.082l6.774 5.25a.75.75 0 0 1 .053 1.138l-6.002 5.63 5.984 5.262a.749.749 0 0 1-.035 1.154l-6.774 5.25a.755.755 0 0 1-1.215-.592v-9.161L6.12 18.546a.755.755 0 0 1-1.064-.032.748.748 0 0 1 .032-1.06l5.59-5.243-5.572-4.899a.748.748 0 0 1-.067-1.058.754.754 0 0 1 1.063-.066l4.77 4.194V.75a.75.75 0 0 1 .422-.674Zm1.083 13.63 4.842 4.258-4.842 3.753v-8.01Zm0-3.089V2.283l4.865 3.771-4.865 4.563Z" clip-rule="evenodd"/>
</svg>
