<svg viewBox="0 0 24 24" fill="currentColor">
    <path d="M14.262 11.668a.758.758 0 0 0 .678.428.727.727 0 0 0 .33-.08c1.7-.733 3.53-1.116 5.381-1.126a.758.758 0 0 0 0-1.505 15.15 15.15 0 0 0-6.04 1.276.758.758 0 0 0-.349 1.007ZM20.651 13.621c-2.08 0-4.137.435-6.04 1.276a.758.758 0 0 0-.349.996.746.746 0 0 0 .678.419.717.717 0 0 0 .33-.07 13.953 13.953 0 0 1 5.381-1.126.758.758 0 0 0 0-1.505v.01ZM3.18 10.521c1.848.011 3.675.394 5.372 1.127a.758.758 0 0 0 .658-1.365 15.129 15.129 0 0 0-6.03-1.277.757.757 0 0 0 0 1.515ZM9.21 14.518a15.129 15.129 0 0 0-6.03-1.276.758.758 0 0 0 0 1.515c1.847.01 3.673.39 5.372 1.117.102.05.214.076.328.08a.757.757 0 0 0 .33-1.436Z"/>
    <path d="M23.113 1.581c-1.186-.14-6.957-.397-11.153 2.085C7.774 1.184 1.993 1.442.827 1.58A.997.997 0 0 0 0 2.578v16.306a.997.997 0 0 0 .997.996c3.475.07 6.894.885 10.026 2.392.31.152.652.23.997.23.315-.004.625-.079.907-.22a24.199 24.199 0 0 1 10.076-2.422.997.997 0 0 0 .997-.997V2.548a.997.997 0 0 0-.887-.967ZM1.505 18.385V3.006c1.694-.209 6.359-.028 9.718 1.985v15.706a25.585 25.585 0 0 0-9.718-2.312Zm20.93 0c-3.35.13-6.64.915-9.687 2.312V4.932c3.358-1.994 7.973-2.165 9.687-1.965v15.418Z"/>
</svg>
