<svg viewBox="0 0 24 24" fill="currentColor">
    <path d="M21.345 24H2.718A2.729 2.729 0 0 1 0 21.282V2.718A2.729 2.729 0 0 1 2.718 0h18.564A2.729 2.729 0 0 1 24 2.718v18.627A2.655 2.655 0 0 1 21.345 24ZM2.718 1.58A1.148 1.148 0 0 0 1.58 2.718v18.564a1.149 1.149 0 0 0 1.138 1.138h18.627a1.053 1.053 0 0 0 1.054-1.054V2.718A1.149 1.149 0 0 0 21.26 1.58H2.718Z"/>
    <path d="M6.943 10.483a3.382 3.382 0 1 1 0-6.765 3.382 3.382 0 0 1 0 6.765Zm0-5.184a1.802 1.802 0 1 0 1.802 1.802 1.812 1.812 0 0 0-1.802-1.802ZM16.878 10.483a3.382 3.382 0 1 1 0-6.764 3.382 3.382 0 0 1 0 6.764Zm0-5.184a1.801 1.801 0 1 0 1.802 1.802 1.812 1.812 0 0 0-1.802-1.802ZM7.122 20.28a3.382 3.382 0 1 1 0-6.763 3.382 3.382 0 0 1 0 6.764Zm0-5.183a1.801 1.801 0 1 0 0 3.603 1.801 1.801 0 0 0 0-3.602ZM17.057 20.281a3.382 3.382 0 1 1-.02-6.765 3.382 3.382 0 0 1 .02 6.765Zm0-5.183a1.802 1.802 0 1 0 1.791 1.801 1.812 1.812 0 0 0-1.79-1.802Z"/>
</svg>
