<svg viewBox="0 0 24 24" fill="currentColor">
    <path d="M23.29 6.277h-2.23V4.021a1.037 1.037 0 0 0-.143-.611A1.006 1.006 0 0 0 20.45 3H14.8a1.005 1.005 0 0 0-.473.408 1.038 1.038 0 0 0-.147.613v2.256H9.82V4.021a1.038 1.038 0 0 0-.143-.611A1.006 1.006 0 0 0 9.21 3H3.56a1.006 1.006 0 0 0-.473.408 1.038 1.038 0 0 0-.147.613v2.256H.71a.697.697 0 0 0-.502.213.726.726 0 0 0-.208.512v13.273c0 .192.075.377.208.513A.703.703 0 0 0 .71 21h22.58a.703.703 0 0 0 .502-.212.733.733 0 0 0 .208-.513V7.002a.74.74 0 0 0-.208-.512.71.71 0 0 0-.502-.213Z"/>
</svg>
