<svg viewBox="0 0 24 24" fill="currentColor">
    <path d="M13.66 7.55H10.4a.752.752 0 0 0 .1 1.5H12v.85a.75.75 0 0 0 1.49-.1v-.75h.32a2.09 2.09 0 0 0 .61-3.999l-2.71-.84h-.07a.6.6 0 0 1-.24-.61.59.59 0 0 1 .6-.55h2.73a.75.75 0 0 0-.1-1.49H13.5v-.86a.751.751 0 1 0-1.5.1v.75h-.17a2.09 2.09 0 0 0-.61 4l2.71.84H14a.6.6 0 0 1 .24.61.59.59 0 0 1-.58.55ZM6.33 20.589a3.37 3.37 0 1 0-3.409 0 5.209 5.209 0 0 0-2.82 2.34.75.75 0 0 0 1.3.74 3.71 3.71 0 0 1 6.45 0 .75.75 0 0 0 1.3-.74 5.209 5.209 0 0 0-2.82-2.34Zm-1.709-1a1.88 1.88 0 1 1 1.88-1.92 1.88 1.88 0 0 1-1.87 1.88l-.01.04ZM23.898 22.928a5.21 5.21 0 0 0-2.82-2.34 3.38 3.38 0 1 0-3.409 0 5.21 5.21 0 0 0-2.82 2.34.75.75 0 0 0 1.3.74 3.71 3.71 0 0 1 6.45 0 .75.75 0 0 0 1.3-.74ZM19.37 19.55a1.88 1.88 0 1 1 0-3.76 1.88 1.88 0 0 1 0 3.76Z"/>
    <path d="M20.399 12.8a2.25 2.25 0 0 0 2.1-2.24V2.151a2.25 2.25 0 0 0-2.25-2.1h-2.35a.752.752 0 0 0 .1 1.5h2.35a.75.75 0 0 1 .65.74v8.36a.75.75 0 0 1-.74.65h-4.63a.75.75 0 0 0-.41.21L12 14.74v-2.79a.75.75 0 0 0-.74-.65H5.151a.75.75 0 0 1-.65-.74V2.201a.75.75 0 0 1 .74-.65h3.1a.751.751 0 1 0-.09-1.5H5.1a2.25 2.25 0 0 0-2.1 2.25v8.4a2.25 2.25 0 0 0 2.24 2.099h5.26v3.85a.75.75 0 0 0 1.27.43l4.279-4.28h4.349Z"/>
</svg>
