<svg viewBox="0 0 24 24" fill="currentColor">
    <path d="M21.7 16.497a.744.744 0 0 0-.573-.27h-2.224V14.07a.734.734 0 0 0-.745-.733h-5.917v-.733a.732.732 0 0 0-.745-.733H6.324a.736.736 0 0 0-.745.733v9.111c.002.44.163.866.454 1.197a1.867 1.867 0 0 0 1.49.636h11.38c.43.002.85-.142 1.188-.41.338-.272.571-.653.658-1.078l1.08-4.97a.732.732 0 0 0-.13-.593Zm-14.037 5.53a.378.378 0 0 1-.162.055h-.118a.377.377 0 0 1-.227-.119.366.366 0 0 1-.087-.237v-8.432h3.704v.733a.732.732 0 0 0 .745.734h5.917v1.466h-7.418a.735.735 0 0 0-.713.528l-1.511 5.068a.367.367 0 0 1-.162.205h.032Zm11.672-.258a.4.4 0 0 1-.4.313H9.25l1.318-4.4h9.63l-.863 4.087Z"/>
    <path d="M3.884 16.108a.82.82 0 0 1-.27 0A5.192 5.192 0 0 1 .02 10.717c.27-2.156 1.911-3.601 4.405-3.86.443-1.8 1.609-5.995 6.824-6.372a7.145 7.145 0 0 1 7.147 4.032 6.623 6.623 0 0 1 5.496 4.83 5.266 5.266 0 0 1-2.829 5.79.839.839 0 0 1-1.022-1.284.839.839 0 0 1 .256-.203c.097 0 2.57-1.37 1.965-3.914a4.927 4.927 0 0 0-4.006-3.548 1.383 1.383 0 0 1-1.263-.808 5.394 5.394 0 0 0-5.582-3.235c-4.157.302-5.032 3.547-5.377 5.11A1.563 1.563 0 0 1 4.65 8.443c-1.242.108-2.753.625-2.98 2.405-.324 2.609 2.364 3.59 2.483 3.633a.841.841 0 0 1-.27 1.628Z"/>
</svg>
