<svg viewBox="0 0 24 24" fill="currentColor">
    <path d="M22.904 24a.796.796 0 0 1-.573-.244L.524 1.216A.798.798 0 0 1 1.67.153L23.478 22.65a.797.797 0 0 1-.574 1.35ZM5.715 19.45a6.364 6.364 0 0 1-4.034-1.35 4.04 4.04 0 0 1-1.36-2.978 4.375 4.375 0 0 1 1.19-3.455 5.167 5.167 0 0 1 3.185-1.318v-.383a.766.766 0 0 1 .934-.744.796.796 0 0 1 .765.83L6.33 11.22a1.064 1.064 0 0 1-.881.744 4.062 4.062 0 0 0-2.729.882 2.85 2.85 0 0 0-.753 2.276 2.48 2.48 0 0 0 .785 1.828 4.996 4.996 0 0 0 3.185.936h8.144a.796.796 0 0 1 .563 1.361.796.796 0 0 1-.563.233H5.715v-.031ZM21.556 17.78a.785.785 0 0 1-.435-.127.797.797 0 0 1-.234-1.063s1.476-2.286.977-4.04a4.051 4.051 0 0 0-3.833-2.935h-.276a.902.902 0 0 1-.658-.531A5.454 5.454 0 0 0 11.98 5.45a5.44 5.44 0 0 0-2.167.443.797.797 0 0 1-1.039-1.047.798.798 0 0 1 .433-.43 6.936 6.936 0 0 1 9.163 3.582 5.474 5.474 0 0 1 5 4.062c.712 2.466-1.061 5.241-1.178 5.315a.797.797 0 0 1-.637.404Z"/>
</svg>
