<svg viewBox="0 0 24 24" fill="currentColor">
    <path d="M8.85 13.199v8.982a.779.779 0 0 0 1.094.804.78.78 0 0 0 .455-.804V13.2l1.78 1.779a.78.78 0 1 0 1.1-1.098l-3.1-3.097a.77.77 0 0 0-.55-.285.77.77 0 0 0-.538.22l-3.11 3.162a.78.78 0 0 0 1.098 1.098l1.77-1.78ZM15.895 10.992a.78.78 0 0 1 .78.78v8.982l1.781-1.78a.779.779 0 0 1 1.151-.051.78.78 0 0 1-.052 1.15l-3.132 3.096a.77.77 0 0 1-.506.231.77.77 0 0 1-.539-.23l-3.1-3.097a.78.78 0 0 1 1.1-1.098l1.78 1.779V11.77a.78.78 0 0 1 .737-.78Z"/>
    <path d="M3.958 16.438h-.22c-1.528-.45-4.265-2.075-3.65-5.303a4.764 4.764 0 0 1 4.386-3.932 8.486 8.486 0 0 1 2.704-4.886 7.523 7.523 0 0 1 8.794-.56 7.866 7.866 0 0 1 2.858 2.954 5.916 5.916 0 0 1 5.144 5.216 6.43 6.43 0 0 1-3.045 6.061.826.826 0 0 1-.846-1.416 4.789 4.789 0 0 0 2.198-4.459 4.39 4.39 0 0 0-4.023-3.821 1.034 1.034 0 0 1-.835-.604 6.03 6.03 0 0 0-2.352-2.536 5.951 5.951 0 0 0-6.837.395 6.97 6.97 0 0 0-2.199 4.392.966.966 0 0 1-.945.857 3.3 3.3 0 0 0-3.375 2.624c-.472 2.482 2.199 3.294 2.474 3.371a.824.824 0 0 1-.22 1.614l-.011.033Z"/>
</svg>
