<svg viewBox="0 0 24 24" fill="currentColor">
    <path d="M12.185 23.5a.813.813 0 0 0 .812-.81v-7.765l2.674 2.668a.813.813 0 0 0 1.366-.578.81.81 0 0 0-.218-.567l-4.06-4.028a.813.813 0 0 0-.564-.238.813.813 0 0 0-.53.238l-4.114 4.028a.824.824 0 0 0 .61 1.397.828.828 0 0 0 .58-.252l2.675-2.668v7.754a.808.808 0 0 0 .769.821Z"/>
    <path d="M19.222 16.578a.813.813 0 0 1-.814-.69.808.808 0 0 1 .576-.898c.14 0 3.4-1.08 3.4-4.32a4.313 4.313 0 0 0-1.02-2.953 4.334 4.334 0 0 0-2.748-1.496 1.085 1.085 0 0 1-.953-.702 5.642 5.642 0 0 0-2.393-2.708 5.664 5.664 0 0 0-3.55-.704c-4.397.248-5.414 4.32-5.718 5.68a1.144 1.144 0 0 1-1.082.929 3.028 3.028 0 0 0-2.983 1.768c-.169.375-.26.78-.265 1.19a2.736 2.736 0 0 0 .628 2.16 4.141 4.141 0 0 0 2.62 1.08.814.814 0 0 1 .79.832.863.863 0 0 1-.823.789 5.757 5.757 0 0 1-3.778-1.588 4.317 4.317 0 0 1-1.083-3.358 4.54 4.54 0 0 1 1.349-3.102 4.564 4.564 0 0 1 3.123-1.315C5.894 1.945 9.13.692 11.622.54a7.368 7.368 0 0 1 4.37.895 7.34 7.34 0 0 1 3.046 3.252 5.937 5.937 0 0 1 3.615 2.083 5.909 5.909 0 0 1 1.344 3.943 6.318 6.318 0 0 1-1.34 3.642 6.345 6.345 0 0 1-3.218 2.179.79.79 0 0 1-.217.043Z"/>
</svg>
