<svg viewBox="0 0 24 24" fill="currentColor">
    <path d="M24 10.35a6.172 6.172 0 0 0-1.772-4.335 5.616 5.616 0 0 0-3.446-1.649.248.248 0 0 1-.191-.125C16.974 1.43 13.87-.072 10.763.454 7.654.98 5.17 3.427 4.493 6.628a.255.255 0 0 1-.227.208c-2.4.178-4.26 2.254-4.262 4.757a4.6 4.6 0 0 0 1.236 3.34 5.398 5.398 0 0 0 3.604 1.436.995.995 0 0 0 .858-.534 1.077 1.077 0 0 0-.015-1.04.992.992 0 0 0-.873-.507 3.213 3.213 0 0 1-2.172-.832 2.53 2.53 0 0 1-.639-1.863c-.002-.81.349-1.579.954-2.09a2.525 2.525 0 0 1 2.167-.548.97.97 0 0 0 .81-.193c.23-.183.372-.461.39-.762.153-2.7 2.046-4.947 4.598-5.46 2.552-.512 5.113.842 6.22 3.288.163.383.539.62.94.593a3.62 3.62 0 0 1 2.758 1.093A3.98 3.98 0 0 1 22 10.349c-.014 2.033-1.494 3.73-3.437 3.94-.525.069-.907.551-.872 1.1.035.549.475.975 1.004.971a.927.927 0 0 0 .13-.009C21.77 16.016 24 13.43 24 10.35Z"/>
    <path d="M12.709 8.868a.973.973 0 0 0-1.414 0l-3.5 3.64a1.07 1.07 0 0 0-.22 1.138 1 1 0 0 0 .927.642h1.75c.066 0 .13.027.177.076a.264.264 0 0 1 .073.184v7.542c0 .861.672 1.56 1.5 1.56s1.5-.699 1.5-1.56v-7.541c0-.07.026-.136.072-.185a.244.244 0 0 1 .178-.076h1.75a1 1 0 0 0 .923-.642c.155-.388.07-.836-.217-1.133l-3.5-3.645Z"/>
</svg>
