<svg viewBox="0 0 24 24" fill="currentColor">
    <path fill-rule="evenodd" d="M22.224 9.735A5.825 5.825 0 0 1 24 13.908a5.819 5.819 0 0 1-5.185 5.783.938.938 0 0 1-.132.009H4.81a5.38 5.38 0 0 1-3.567-1.38 4.34 4.34 0 0 1-1.24-3.219 4.601 4.601 0 0 1 4.259-4.582.255.255 0 0 0 .23-.204A7.69 7.69 0 0 1 18.59 8.026c.042.07.114.115.194.123a5.72 5.72 0 0 1 3.44 1.586ZM4.827 17.658h13.78a3.784 3.784 0 0 0 3.347-3.75 3.741 3.741 0 0 0-3.886-3.743.98.98 0 0 1-.96-.582 5.65 5.65 0 0 0-10.75 2.076 1.02 1.02 0 0 1-1.226.94 2.56 2.56 0 0 0-3.086 2.503c-.044.65.185 1.288.631 1.763a3.37 3.37 0 0 0 2.15.793Z" clip-rule="evenodd"/>
</svg>
