<svg viewBox="0 0 24 24" fill="currentColor">
    <path d="M21.508 22.74H2.492A2.491 2.491 0 0 1 0 20.257V3.774A2.495 2.495 0 0 1 2.492 1.25h19.016A2.491 2.491 0 0 1 24 3.774v16.483a2.494 2.494 0 0 1-2.492 2.493v-.01ZM2.492 2.752a.96.96 0 0 0-.96 1.022v16.483a.96.96 0 0 0 .96.96h19.016a.96.96 0 0 0 .96-.96V3.774a.96.96 0 0 0-.96-1.022H2.492Z"/>
    <path d="M23.234 5.981H.766v1.533h22.468V5.981ZM10.662 17.886a.766.766 0 0 1-.684-1.104l2.778-5.63a.768.768 0 1 1 1.378.674l-2.777 5.63a.766.766 0 0 1-.695.43ZM7.435 17.6a.766.766 0 0 1-.51-.194l-2.309-2.044a1.778 1.778 0 0 1 0-2.493l2.043-2.044a.794.794 0 1 1 1.123 1.124L5.74 13.993a.225.225 0 0 0 0 .316l2.246 1.973a.767.767 0 0 1-.51 1.338l-.041-.02ZM16.708 17.794a.766.766 0 0 1-.51-1.339l2.307-2.043a.297.297 0 0 0-.081-.256l-2.043-2.044a.766.766 0 0 1 1.072-1.093l2.043 2.044a1.769 1.769 0 0 1 .082 2.422l-2.38 2.105a.766.766 0 0 1-.49.204Z"/>
</svg>
