<svg viewBox="0 0 24 24" fill="currentColor">
    <path d="M23.19 2.039a2.692 2.692 0 0 0-1.9-.789H2.66a2.693 2.693 0 0 0-2.472 1.7c-.13.33-.194.682-.188 1.036v16.078a2.684 2.684 0 0 0 2.68 2.686h18.61a2.692 2.692 0 0 0 2.503-1.654c.137-.327.207-.678.207-1.032V3.986a2.683 2.683 0 0 0-.81-1.947Zm-21 1.418a.68.68 0 0 1 .5-.21h18.62a.691.691 0 0 1 .69.74v2.885H2V3.876a.689.689 0 0 1 .18-.42h.01Zm5.98 12.512a1 1 0 1 1-1.3 1.478L4.52 15.4a1.995 1.995 0 0 1 .09-2.716l2-1.997a1.001 1.001 0 0 1 1.613.742.998.998 0 0 1-.223.676l-2 1.997 2.17 1.867Zm1.62.6 2.72-5.503a1.003 1.003 0 0 1 1.79.909l-2.72 5.502a1 1 0 0 1-1.79-.878v-.03Zm6.3-4.344a.998.998 0 0 1 .701-1.708 1.001 1.001 0 0 1 .709.29l2 1.997a1.997 1.997 0 0 1 .12 2.756l-.09.09-2.26 1.997a1.003 1.003 0 0 1-1.665-.809 1 1 0 0 1 .335-.689l2.17-1.917-2.02-2.007Z"/>
</svg>
