<svg viewBox="0 0 24 24" fill="currentColor">
    <path fill-rule="evenodd" d="M11 12a2 2 0 0 1-2 2H2a2 2 0 0 1-2-2V2a2 2 0 0 1 2-2h7a2 2 0 0 1 2 2v10Zm-2 .5H2a.5.5 0 0 1-.5-.5V2a.5.5 0 0 1 .5-.5h7a.5.5 0 0 1 .5.5v10a.5.5 0 0 1-.5.5ZM13 12a2 2 0 0 1 2-2h7a2 2 0 0 1 2 2v10a2 2 0 0 1-2 2h-7a2 2 0 0 1-2-2V12Zm2-.5h7a.5.5 0 0 1 .5.5v10a.5.5 0 0 1-.5.5h-7a.5.5 0 0 1-.5-.5V12a.5.5 0 0 1 .5-.5ZM15 0a2 2 0 0 0-2 2v4a2 2 0 0 0 2 2h7a2 2 0 0 0 2-2V2a2 2 0 0 0-2-2h-7Zm7 1.5h-7a.5.5 0 0 0-.5.5v4a.5.5 0 0 0 .5.5h7a.5.5 0 0 0 .5-.5V2a.5.5 0 0 0-.5-.5ZM11 22a2 2 0 0 1-2 2H2a2 2 0 0 1-2-2v-4a2 2 0 0 1 2-2h7a2 2 0 0 1 2 2v4Zm-2 .5H2a.5.5 0 0 1-.5-.5v-4a.5.5 0 0 1 .5-.5h7a.5.5 0 0 1 .5.5v4a.5.5 0 0 1-.5.5Z" clip-rule="evenodd"/>
</svg>
