<svg viewBox="0 0 24 24" fill="currentColor">
    <path d="M6.271 12.566a1.436 1.436 0 1 0 0 2.871 1.436 1.436 0 0 0 0-2.871ZM12.25 12.566a1.436 1.436 0 1 0 0 2.871 1.436 1.436 0 0 0 0-2.871ZM18.304 12.582h-.128c-.75.043-1.367.646-1.367 1.42 0 .782.63 1.435 1.436 1.435.801 0 1.435-.634 1.435-1.435v-.011a1.456 1.456 0 0 0-1.365-1.408h-.011ZM6.33 17.5h-.128c-.74.044-1.35.67-1.35 1.42 0 .781.63 1.435 1.436 1.435.801 0 1.435-.634 1.435-1.436v-.01A1.459 1.459 0 0 0 6.341 17.5h-.01ZM12.309 17.5H12.164c-.74.044-1.35.67-1.35 1.42a1.435 1.435 0 1 0 2.872 0c0-.774-.618-1.377-1.366-1.42h-.011ZM18.212 17.5c-.793 0-1.42.657-1.42 1.436 0 .782.631 1.435 1.437 1.435.801 0 1.435-.634 1.435-1.435 0-.786-.65-1.436-1.435-1.436h-.017Z"/>
    <path fill-rule="evenodd" d="M7.332.625c-.593 0-1.082.49-1.082 1.082v1.73H3.073A2.453 2.453 0 0 0 .625 5.886v15.557c0 1.348 1.1 2.448 2.448 2.448h18.354c1.348 0 2.448-1.1 2.448-2.448V5.886c0-1.348-1.1-2.449-2.448-2.449H18.25v-1.73c0-.593-.49-1.082-1.082-1.082-.593 0-1.082.49-1.082 1.082v1.73H8.414v-1.73c0-.593-.489-1.082-1.082-1.082ZM2.79 21.427V11.21h18.938v10.206a.3.3 0 0 1-.3.294H3.073a.287.287 0 0 1-.284-.284Z" clip-rule="evenodd"/>
</svg>
