<svg viewBox="0 0 24 24" fill="currentColor">
    <path d="M9.827 10.077a.75.75 0 0 1 .75.75v6.461a.75.75 0 0 1-1.5 0v-6.461a.75.75 0 0 1 .75-.75ZM15.423 10.827a.75.75 0 0 0-1.5 0v6.461a.75.75 0 0 0 1.5 0v-6.461Z"/>
    <path fill-rule="evenodd" d="M9.827 2A2.365 2.365 0 0 0 7.46 4.365v.866H1.75a.75.75 0 0 0 0 1.5h2.481v13.788a2.365 2.365 0 0 0 2.365 2.366h11.308a2.365 2.365 0 0 0 2.365-2.366V6.731h2.481a.75.75 0 0 0 0-1.5h-5.712v-.866A2.365 2.365 0 0 0 14.673 2H9.827ZM8.198 6.73h8.09a.74.74 0 0 0 .014 0h2.467v13.79a.866.866 0 0 1-.865.864H6.596a.865.865 0 0 1-.865-.865V6.731h2.467Zm7.34-1.5v-.865a.865.865 0 0 0-.865-.865H9.827a.865.865 0 0 0-.866.865v.866h6.577Z" clip-rule="evenodd"/>
</svg>
