<svg viewBox="0 0 24 24" fill="currentColor">
    <path d="M18.373 4.488h-.994l-.428-2.62A2.26 2.26 0 0 0 14.724 0H9.773a2.23 2.23 0 0 0-2.21 1.867l-.428 2.621H6.14C4.96 4.488 4 5.448 4 6.612V17.37c0 1.165.96 2.125 2.124 2.125h.994l.428 2.62A2.242 2.242 0 0 0 9.756 24h4.95a2.229 2.229 0 0 0 2.21-1.884l.429-2.621h.993c1.165 0 2.124-.96 2.124-2.125V6.612a2.095 2.095 0 0 0-2.09-2.124ZM9.019 2.124a.752.752 0 0 1 .737-.617h4.95c.36 0 .686.257.737.617l.394 2.381H8.625l.394-2.38ZM15.46 21.86c-.068.36-.377.633-.736.633H9.773a.738.738 0 0 1-.737-.633l-.41-2.364h7.228l-.394 2.364Zm3.53-4.489a.614.614 0 0 1-.617.617H6.124a.614.614 0 0 1-.617-.617V6.612c0-.342.275-.616.617-.616h12.249c.342 0 .616.274.616.616V17.37Z"/>
    <path d="M12.24 13.122a1.508 1.508 0 1 0 0-3.015 1.508 1.508 0 0 0 0 3.015ZM10.373 10.124a1.13 1.13 0 0 0 1.13-1.13c0-.634-.497-1.131-1.13-1.131-.634 0-1.131.497-1.131 1.13 0 .634.514 1.131 1.13 1.131ZM9.996 11.991a1.13 1.13 0 0 0-1.13-1.13c-.635 0-1.132.497-1.132 1.13a1.13 1.13 0 1 0 2.262 0ZM15.615 10.86a1.13 1.13 0 1 0 0 2.262c.633 0 1.13-.497 1.13-1.13a1.14 1.14 0 0 0-1.13-1.131ZM14.124 10.124a1.13 1.13 0 0 0 1.13-1.13c0-.634-.496-1.131-1.13-1.131-.634 0-1.13.497-1.13 1.13 0 .634.496 1.131 1.13 1.131ZM10.373 13.859a1.13 1.13 0 0 0-1.131 1.13c0 .634.497 1.13 1.13 1.13.634 0 1.131-.496 1.131-1.13a1.13 1.13 0 0 0-1.13-1.13ZM14.124 13.859a1.13 1.13 0 0 0-1.13 1.13c0 .634.496 1.13 1.13 1.13.634 0 1.13-.496 1.13-1.13a1.13 1.13 0 0 0-1.13-1.13Z"/>
</svg>
