<svg viewBox="0 0 24 24" fill="currentColor">
    <path d="M5.15 19.6c-1.33 0-1.7-.37-1.83-.5a1.13 1.13 0 0 1-.32-.8v-1.46a1.13 1.13 0 0 1 1.1-1.12H22V6.48a.25.25 0 0 0-.25-.25h-10.4a1 1 0 1 1 0-2h10.42A2.25 2.25 0 0 1 24 6.48v10.87a2.249 2.249 0 0 1-2.25 2.25H5.15Z"/>
    <path d="M13.5 24a1 1 0 0 1-1-1v-4.4a1 1 0 0 1 2 0V23a1 1 0 0 1-1 1Z"/>
    <path d="M18.86 24H8.08a1 1 0 0 1 0-2h10.78a1 1 0 0 1 0 2ZM7 12.63H2.07a1.5 1.5 0 1 1 0-3H7a1.5 1.5 0 0 1 0 3Z"/>
    <path d="M7.8 13.64H1.44A1.45 1.45 0 0 1 0 12.19V1.45A1.45 1.45 0 0 1 1.44 0H7.8a1.45 1.45 0 0 1 1.45 1.45v10.74a1.46 1.46 0 0 1-.45 1.05 1.44 1.44 0 0 1-1 .4Zm-5.8-2h5.25V2H2v9.64Z"/>
</svg>
