<svg viewBox="0 0 24 24" fill="currentColor">
    <path d="M16.43 2.75a.248.248 0 0 0 .2-.1.25.25 0 0 0 .035-.225l-.69-2.083A.5.5 0 0 0 15.5 0h-7a.5.5 0 0 0-.475.342l-.693 2.079a.251.251 0 0 0 .035.225c.047.063.121.1.2.1l8.863.004ZM7.57 21.25a.251.251 0 0 0-.238.329l.693 2.079A.5.5 0 0 0 8.5 24h7a.5.5 0 0 0 .475-.342l.693-2.079a.25.25 0 0 0-.238-.329H7.57Z"/>
    <path fill-rule="evenodd" d="M6.5 4h11A2.5 2.5 0 0 1 20 6.5v11a2.5 2.5 0 0 1-2.5 2.5h-11A2.508 2.508 0 0 1 4 17.5v-11A2.5 2.5 0 0 1 6.5 4Zm4.25 4a1 1 0 1 0-2 0 1 1 0 0 0 2 0Zm-3.5 5a1 1 0 1 1 0-2 1 1 0 0 1 0 2Zm1.5 3a1 1 0 1 0 2 0 1 1 0 0 0-2 0ZM10 12.25a2 2 0 1 1 4 0 2 2 0 0 1-4 0ZM13.25 16a1 1 0 1 0 2 0 1 1 0 0 0-2 0Zm1-7a1 1 0 1 1 0-2 1 1 0 0 1 0 2Zm1.5 3a1 1 0 1 0 2 0 1 1 0 0 0-2 0Z" clip-rule="evenodd"/>
</svg>
