<svg viewBox="0 0 24 24" fill="currentColor">
    <g clip-path="url(#a)">
        <path d="M16.465 23.598a6.222 6.222 0 0 1-3.33-.863 47.837 47.837 0 0 1-11.68-10.95 7.262 7.262 0 0 1 0-8.722l1.203-1.646A2.247 2.247 0 0 1 4.202.413a1.743 1.743 0 0 1 1.334.392l3.78 3.01a1.877 1.877 0 0 1 .521 2.27l-.852 2.087a.884.884 0 0 0 .15 1.003l6.016 5.65c.19.192.682 0 1.003-.21l1.323-.763a1.913 1.913 0 0 1 2.407.412l3.61 3.533a1.907 1.907 0 0 1-.191 2.77l-1.424 1.244a9.018 9.018 0 0 1-5.414 1.787ZM4.423 1.939c-.223.07-.414.215-.542.412L2.618 3.946a5.815 5.815 0 0 0 0 6.956 46.47 46.47 0 0 0 11.32 10.588c1.875 1.205 5.364.532 7.018-.823l1.474-1.214a.42.42 0 0 0 .15-.301.392.392 0 0 0-.1-.312l-3.61-3.532a.461.461 0 0 0-.59-.14l-1.324.762c-1.554.893-2.436.381-2.827 0l-6.016-5.65a2.35 2.35 0 0 1-.482-2.69l.823-2.008a.432.432 0 0 0-.09-.522L4.613 1.94a.3.3 0 0 0-.191 0Z"/>
    </g>
    <defs>
        <clipPath id="a">
            <path d="M0 0h24v24H0z"/>
        </clipPath>
    </defs>
</svg>
