<svg viewBox="0 0 24 24" fill="currentColor">
    <path fill-rule="evenodd" d="M7.238 2.464a.75.75 0 0 1 .671-.414h8.182a.75.75 0 0 1 .67.414L18.6 6.14h2.604A2.796 2.796 0 0 1 24 8.933v10.223a2.794 2.794 0 0 1-2.796 2.794H2.796A2.796 2.796 0 0 1 0 19.156V8.933A2.794 2.794 0 0 1 2.795 6.14H5.4l1.838-3.675ZM8.373 3.55 6.534 7.224a.75.75 0 0 1-.67.415H2.795A1.296 1.296 0 0 0 1.5 8.933v10.223a1.294 1.294 0 0 0 1.295 1.294h18.41a1.296 1.296 0 0 0 1.295-1.294V8.933a1.294 1.294 0 0 0-1.296-1.294h-3.068a.75.75 0 0 1-.67-.415L15.627 3.55H8.373Zm.204 6.05a4.842 4.842 0 0 1 8.264 3.422 4.838 4.838 0 0 1-4.84 4.84 4.842 4.842 0 0 1-4.842-4.84c0-1.283.51-2.514 1.418-3.422ZM12 9.683a3.342 3.342 0 0 0-3.34 3.34A3.338 3.338 0 0 0 12 16.36a3.342 3.342 0 0 0 3.341-3.339 3.338 3.338 0 0 0-3.34-3.339Z" clip-rule="evenodd"/>
</svg>
