<svg viewBox="0 0 24 24" fill="currentColor">
    <path d="M21 5.576h-2.786L16.03 2.664A1.286 1.286 0 0 0 15 2.15H9a1.286 1.286 0 0 0-1.029.514L5.786 5.576H3a3.005 3.005 0 0 0-3 2.998v10.278a3 3 0 0 0 3 2.998h18a3.004 3.004 0 0 0 3-2.998V8.574a3 3 0 0 0-3-2.998Zm-9 13.276a5.575 5.575 0 0 1-5.147-3.437 5.564 5.564 0 0 1 4.06-7.59 5.575 5.575 0 0 1 5.72 2.367c.612.915.938 1.992.938 3.093A5.572 5.572 0 0 1 12 18.852Z"/>
    <path d="M9 13.285a2.997 2.997 0 0 0 3 2.998 3.001 3.001 0 0 0 3-2.998 2.997 2.997 0 0 0-3-2.998 3.001 3.001 0 0 0-3 2.998Z"/>
</svg>
