<svg viewBox="0 0 24 24" fill="currentColor">
    <path d="M23.28 4.183 20.81 1.714a.752.752 0 0 0-.531-.223h-8.246V.754A.761.761 0 0 0 11.28 0a.761.761 0 0 0-.754.754v.755H3.788a.761.761 0 0 0-.754.754v6c0 .411.343.754.754.754h6.755v1.509H3.788a.752.752 0 0 0-.53.223l-2.47 2.434a1.493 1.493 0 0 0 0 2.126l2.47 2.468a.752.752 0 0 0 .53.223h6.755v5.246c0 .411.343.754.754.754a.761.761 0 0 0 .754-.754V18h8.246a.761.761 0 0 0 .754-.754v-6a.761.761 0 0 0-.754-.755h-8.263V8.983h8.246a.752.752 0 0 0 .531-.223l2.469-2.469c.583-.565.583-1.525 0-2.108ZM19.526 16.49H4.097l-2.246-2.245L4.097 12h15.446v4.491h-.017Zm2.691-11.245L19.971 7.49H4.526V3H19.97l2.246 2.246Z"/>
</svg>
