<svg viewBox="0 0 24 24" fill="currentColor">
    <path d="M3.817.44A.75.75 0 0 1 4.81.067l14.42 6.549-.558-1.486a.75.75 0 0 1 1.404-.527l1.194 3.18.011.033a.747.747 0 0 1-.45.933l-3.18 1.194a.75.75 0 0 1-.528-1.404l1.486-.558L4.19 1.433A.75.75 0 0 1 3.818.44Z"/>
    <path fill-rule="evenodd" d="M3 9a1.5 1.5 0 0 0-1.5 1.5v12H.75a.75.75 0 0 0 0 1.5h22.5a.75.75 0 0 0 0-1.5h-.75V18a1.5 1.5 0 0 0-1.5-1.5h-3a1.5 1.5 0 0 0-1.5 1.5v4.5H15v-9a1.5 1.5 0 0 0-1.5-1.5h-3A1.5 1.5 0 0 0 9 13.5v9H7.5v-12A1.5 1.5 0 0 0 6 9H3Zm3 13.5v-12H3v12h3Zm7.5-9v9h-3v-9h3Zm7.5 9V18h-3v4.5h3Z" clip-rule="evenodd"/>
</svg>
