<svg viewBox="0 0 24 24" fill="currentColor">
    <path d="M20 18a1 1 0 0 0-1 1v1.5a.249.249 0 0 0 .25.25h3.5a.25.25 0 0 0 .25-.25V19a1 1 0 0 0-1-1h-2ZM16 15h-2a1 1 0 0 0-1 1v4.5a.249.249 0 0 0 .25.25h3.5a.25.25 0 0 0 .25-.25V16a1 1 0 0 0-1-1ZM8 11.5a1 1 0 0 0-1 1v8a.249.249 0 0 0 .25.25h3.5a.25.25 0 0 0 .25-.25v-8a1 1 0 0 0-1-1H8ZM1.25 20.75h3.5A.25.25 0 0 0 5 20.5v-12a1 1 0 0 0-1-1H2a1 1 0 0 0-1 1v12a.249.249 0 0 0 .25.25ZM21 13.751a.75.75 0 0 0 .651-1.122l-2-3.5a.748.748 0 0 0-1.275-.044l-.307.46a.244.244 0 0 1-.159.106.247.247 0 0 1-.187-.037L3.555.169a1 1 0 0 0-1.11 1.664l14.168 9.445a.252.252 0 0 1 .07.347l-.307.46a.75.75 0 0 0 .531 1.16l4 .5c.03.004.062.006.093.006ZM1 24h22a1 1 0 0 0 0-2H1a1 1 0 1 0 0 2Z"/>
</svg>
