<svg viewBox="0 0 24 24" fill="currentColor">
    <path fill-rule="evenodd" d="M1.25 4.251a3.001 3.001 0 0 1 3-3.001H16.5A2.75 2.75 0 0 1 19.25 4a1.5 1.5 0 0 1-2.98.25H4.25V16.271A1.5 1.5 0 0 1 4 19.25a2.75 2.75 0 0 1-2.75-2.75V4.251Z" clip-rule="evenodd"/>
    <path fill-rule="evenodd" d="M8.5 6.5a2 2 0 0 0-2 2v12a2 2 0 0 0 2 2h12a2 2 0 0 0 2-2v-12a2 2 0 0 0-2-2h-12Zm7 5.2a1 1 0 0 0-2 0v1.8h-1.8a1 1 0 0 0 0 2h1.8v1.8a1 1 0 1 0 2 0v-1.8h1.8a1 1 0 1 0 0-2h-1.8v-1.8Z" clip-rule="evenodd"/>
</svg>
