<svg viewBox="0 0 24 24" fill="currentColor">
    <path fill-rule="evenodd" d="M19.592 0A4.39 4.39 0 0 1 22.72 1.28l.002.002a4.386 4.386 0 0 1-.04 6.231l-.41.411-.001.001-14.08 14.08-.005.005a.75.75 0 0 1-.344.196L.936 23.976a.75.75 0 0 1-.912-.913l1.77-6.904a.75.75 0 0 1 .196-.344L16.486 1.318A4.388 4.388 0 0 1 19.592 0ZM2.921 17.802l-1.13 4.406 4.41-1.13-3.28-3.276Zm4.738 2.612-4.077-4.07L16.605 3.32l4.074 4.074-13.02 13.02ZM22.27 5.507c-.128.304-.308.583-.531.825l-4.07-4.07a2.89 2.89 0 0 1 3.991.079 2.887 2.887 0 0 1 .61 3.166Z" clip-rule="evenodd"/>
</svg>
