<svg viewBox="0 0 24 24" fill="currentColor">
    <path fill-rule="evenodd" d="M3 6.451h6.9a1.5 1.5 0 1 0 0-3h-7a2.9 2.9 0 0 0-2.9 2.9v14a2.9 2.9 0 0 0 2.9 2.9h14a2.9 2.9 0 0 0 2.9-2.9v-7a1.5 1.5 0 1 0-3 0v6.9H3v-13.8Z" clip-rule="evenodd"/>
    <path d="M21.722 5.558a.772.772 0 0 0-.015-.015l-4.015-4.015.692-.693a2.85 2.85 0 0 1 4.031 4.03l-.693.693ZM20.308 6.972a1.652 1.652 0 0 1-.015-.015l-4.015-4.015-6.803 6.802a.75.75 0 0 0-.212.425l-.495 3.465a.75.75 0 0 0 .849.849l3.464-.496a.75.75 0 0 0 .424-.212l6.803-6.803Z"/>
</svg>
