<svg viewBox="0 0 24 24" fill="currentColor">
    <path fill-rule="evenodd" d="M0 14.5a.75.75 0 0 1 .75-.75h10.5a.75.75 0 0 1 .75.75v8.75a.75.75 0 0 1-.75.75H.75a.75.75 0 0 1-.75-.75V14.5Zm1.5.75v7.25h9v-7.25h-9Z" clip-rule="evenodd"/>
    <path fill-rule="evenodd" d="M6 10a4.5 4.5 0 0 0-4.5 4.5.75.75 0 0 1-1.5 0 6 6 0 1 1 12 0 .75.75 0 0 1-1.5 0A4.5 4.5 0 0 0 6 10ZM10.5 17.25a.75.75 0 0 1 .75-.75h12a.75.75 0 0 1 .75.75v6a.75.75 0 0 1-.75.75h-12a.75.75 0 0 1-.75-.75v-6ZM12 18v4.5h10.5V18H12ZM14.5.727A.75.75 0 0 1 15.25 0h5a.75.75 0 0 1 .75.727l.5 15.773h-7.484L14.5.727Zm1.478.773-.455 15h4.454l-.455-15h-3.544Z" clip-rule="evenodd"/>
    <path fill-rule="evenodd" d="M13.5 20.25a.75.75 0 0 1 .75-.75h1.5a.75.75 0 0 1 0 1.5h-1.5a.75.75 0 0 1-.75-.75ZM18 20.25a.75.75 0 0 1 .75-.75h1.5a.75.75 0 0 1 0 1.5h-1.5a.75.75 0 0 1-.75-.75ZM15.925 3.25h3.65l.137 4.5h-3.924l.137-4.5Zm-.046 1.5-.045 1.5h3.832l-.045-1.5H15.88Z" clip-rule="evenodd"/>
</svg>
