<svg viewBox="0 0 24 24" fill="currentColor">
    <path fill-rule="evenodd" d="m21.437 3.679-.082-2.637c0-.276-.108-.541-.3-.737A1.011 1.011 0 0 0 20.335 0h-3.125c-.271 0-.531.11-.723.305-.191.196-.299.46-.299.737l-.102 2.637h5.352Zm.337 11.463-.286-9.9h-5.423l-.286 9.9h5.995Zm-8.497 1.563h10.212c.136 0 .266.055.361.153.096.098.15.23.15.368v6.253c0 .138-.054.27-.15.368a.505.505 0 0 1-.36.153H13.204c.045-.17.069-.345.072-.521v-6.774Zm2.297 4.43h1.532a.759.759 0 0 0 .542-.23.79.79 0 0 0 0-1.105.758.758 0 0 0-.542-.229h-1.532a.758.758 0 0 0-.541.229.79.79 0 0 0 0 1.105.759.759 0 0 0 .541.23Zm4.596 0h1.532a.758.758 0 0 0 .542-.23.79.79 0 0 0 0-1.105.758.758 0 0 0-.542-.229H20.17a.758.758 0 0 0-.541.229.79.79 0 0 0 0 1.105.759.759 0 0 0 .541.23Zm-8.936-6.514H.511a.506.506 0 0 0-.361.152.527.527 0 0 0-.15.369v8.337c0 .138.054.27.15.368A.506.506 0 0 0 .51 24h3.412a.506.506 0 0 0 .36-.153.527.527 0 0 0 .15-.368v-5.43h2.87v5.43c0 .138.054.27.15.368a.506.506 0 0 0 .36.153h3.422a.506.506 0 0 0 .361-.153.527.527 0 0 0 .15-.368v-8.337a.527.527 0 0 0-.15-.368.506.506 0 0 0-.36-.153Zm.306-1.563H.194a.545.545 0 0 1-.112-.417 6.037 6.037 0 0 1 1.961-3.665 5.815 5.815 0 0 1 3.83-1.473 5.835 5.835 0 0 1 3.824 1.478 6.058 6.058 0 0 1 1.966 3.66.561.561 0 0 1-.123.417Z" clip-rule="evenodd"/>
</svg>
