<svg viewBox="0 0 24 24" fill="currentColor">
    <path d="M2.25 2.25A.75.75 0 0 0 1.5 3v13.5a.75.75 0 0 0 .75.75h5.253a.75.75 0 0 1 0 1.5H2.25A2.25 2.25 0 0 1 0 16.5V3A2.25 2.25 0 0 1 2.25.75h19.5A2.25 2.25 0 0 1 24 3v12a.75.75 0 0 1-1.5 0V3a.75.75 0 0 0-.75-.75H19.5v8.25a.75.75 0 0 1-1.5 0V2.25H2.25Z"/>
    <path d="M5.25 5.25a.75.75 0 0 0 0 1.5h7.5a.75.75 0 0 0 0-1.5h-7.5ZM14.473 12.22a.75.75 0 0 1 1.28.53v3c0 .367.265.68.627.74l1.993.332a2.25 2.25 0 0 1 1.88 2.22V22.5a.75.75 0 0 0 1.5 0v-3.46a3.75 3.75 0 0 0-3.134-3.698l-1.366-.227V12.75a2.25 2.25 0 1 0-4.5 0v4.039l-.094-.047a2.387 2.387 0 0 0-3.384 1.556v.002a2.387 2.387 0 0 0 .831 2.442l.002.001 2.926 2.343a.75.75 0 0 0 .938-1.172l-2.93-2.344-.002-.001a.886.886 0 0 1 .948-1.485l1.18.587A.75.75 0 0 0 14.254 18v-5.25a.75.75 0 0 1 .22-.53ZM4.5 9a.75.75 0 0 1 .75-.75h7.5a.75.75 0 0 1 0 1.5h-7.5A.75.75 0 0 1 4.5 9ZM5.25 11.25a.75.75 0 0 0 0 1.5H9a.75.75 0 0 0 0-1.5H5.25Z"/>
</svg>
