<svg viewBox="0 0 24 24" fill="currentColor">
    <g clip-path="url(#a)">
        <path fill-rule="evenodd" d="M3.22 1.72a.75.75 0 0 1 .53-.22h9.75v5.25A2.25 2.25 0 0 0 15.75 9H21v3.75a.75.75 0 0 0 1.5 0V8.122a2.25 2.25 0 0 0-.659-1.591L15.971.66A2.25 2.25 0 0 0 14.379 0H3.75A2.25 2.25 0 0 0 1.5 2.25v19.5A2.25 2.25 0 0 0 3.75 24h1.948a.75.75 0 0 0 0-1.5H3.75a.75.75 0 0 1-.75-.75V2.25a.75.75 0 0 1 .22-.53ZM15 1.81v4.94a.75.75 0 0 0 .75.75h4.94L15 1.81Z" clip-rule="evenodd"/>
        <path fill-rule="evenodd" d="M13.972 15.101a.743.743 0 0 0-.742.731v7.34a.738.738 0 0 0 .433.763.744.744 0 0 0 1.042-.762V20.97c.78 0 1.528-.31 2.08-.86a2.93 2.93 0 0 0 0-4.15c-.552-.55-1.3-.859-2.08-.859h-.733Zm.733 1.472v2.935a1.477 1.477 0 0 0 1.476-1.473 1.47 1.47 0 0 0-1.476-1.462Z" clip-rule="evenodd"/>
        <path d="M21.822 23.824a3.016 3.016 0 0 1-1.927-.621 4.195 4.195 0 0 1-1.265-3.505 4.757 4.757 0 0 1 1.556-4.006 3.828 3.828 0 0 1 3.061-.63.753.753 0 0 1 .557.905.751.751 0 0 1-.908.556 2.324 2.324 0 0 0-1.817.38 3.434 3.434 0 0 0-1.004 2.795 2.996 2.996 0 0 0 .703 2.313 2.092 2.092 0 0 0 1.716.2V20.47l-.813.05a.754.754 0 0 1-.753-.751.75.75 0 0 1 .753-.751h.863A1.457 1.457 0 0 1 24 20.469v1.793a1.43 1.43 0 0 1-1.104 1.402c-.35.099-.71.152-1.074.16ZM9.465 23.914h-.803a.703.703 0 0 1-.503-1.204.714.714 0 0 1 .503-.208h.803a1.166 1.166 0 0 0 1.165-1.152v-5.628a.699.699 0 0 1 .702-.711.715.715 0 0 1 .713.711v5.598a2.57 2.57 0 0 1-1.588 2.396c-.314.13-.651.198-.992.198Z"/>
    </g>
    <defs>
        <clipPath id="a">
            <path d="M0 0h24v24H0z"/>
        </clipPath>
    </defs>
</svg>
