<svg viewBox="0 0 24 24" fill="currentColor">
    <path d="M21.71 5.71 16.29.29a1 1 0 0 0-.7-.29H4a2 2 0 0 0-2 2v20a2 2 0 0 0 2 2h16a2 2 0 0 0 2-2V6.41a1 1 0 0 0-.29-.7ZM7.5 14.62h-.62a.25.25 0 0 0-.25.25V17a.63.63 0 0 1-1.25 0v-6a.63.63 0 0 1 .62-.63h1.5a2.125 2.125 0 0 1 0 4.25Zm3.5 3a.62.62 0 0 1-.62-.62v-6a.63.63 0 0 1 .63-.63 3.625 3.625 0 0 1 0 7.25H11Zm8-6h-2a.38.38 0 0 0-.37.38v1.12a.25.25 0 0 0 .25.25H18a.624.624 0 1 1 0 1.25h-1.12a.25.25 0 0 0-.25.25V17a.63.63 0 0 1-1.25 0v-5A1.63 1.63 0 0 1 17 10.37h2a.624.624 0 1 1 0 1.25Z"/>
    <path d="M7.5 11.62h-.62a.25.25 0 0 0-.25.25v1.25a.25.25 0 0 0 .25.25h.62a.88.88 0 0 0 0-1.75ZM12 11.82c-.1 0-.33 0-.33.16v4a.241.241 0 0 0 .218.227.241.241 0 0 0 .112-.017 2.37 2.37 0 0 0 0-4.35v-.02Z"/>
</svg>
