<svg viewBox="0 0 24 24" fill="currentColor">
    <path d="M21.71 5.71 16.29.29a1 1 0 0 0-.7-.29H4a2 2 0 0 0-2 2v20a2 2 0 0 0 2 2h16a2 2 0 0 0 2-2V6.41a1 1 0 0 0-.29-.7ZM5.5 17.12a.62.62 0 0 1-.62-.62v-6a.63.63 0 0 1 .63-.62 3.625 3.625 0 1 1 0 7.25l-.01-.01ZM14.13 15a2.13 2.13 0 0 1-4.25 0v-3a2.125 2.125 0 0 1 4.25 0v3Zm4.38.88a.624.624 0 1 1 0 1.25 3.625 3.625 0 0 1 0-7.25.625.625 0 1 1 0 1.25 2.38 2.38 0 0 0 0 4.75Z"/>
    <path d="M6.45 11.33c-.1 0-.33 0-.33.16v4a.24.24 0 0 0 .33.21 2.37 2.37 0 0 0 0-4.35v-.02ZM12 11.12a.88.88 0 0 0-.87.88v3a.88.88 0 1 0 1.75 0v-3a.88.88 0 0 0-.88-.88Z"/>
</svg>
