<svg viewBox="0 0 24 24" fill="currentColor">
    <path d="M21.85 6.59 15.97.71A2.25 2.25 0 0 0 14.38 0H3.75A2.25 2.25 0 0 0 1.5 2.3v19.4A2.25 2.25 0 0 0 3.75 24h16.5a2.25 2.25 0 0 0 2.25-2.25V8.18a2.25 2.25 0 0 0-.65-1.59ZM15 1.86l5.69 5.69h-4.94A.75.75 0 0 1 15 6.8V1.86Zm6 19.84a.75.75 0 0 1-.75.75H3.75A.75.75 0 0 1 3 21.7V2.3a.75.75 0 0 1 .75-.75h9.75v5.26a2.25 2.25 0 0 0 2.25 2.25H21V21.7Z"/>
    <path d="M6.87 8.6a.64.64 0 0 1 .64.64v5.58l1.8-1.68a2.33 2.33 0 0 1 3.13 0l.62.58a1 1 0 0 0 .82.26 1 1 0 0 0 .71-.43l1.34-2.09a.64.64 0 0 1 1.08.69l-1.34 2.1a2.261 2.261 0 0 1-1.64 1 2.32 2.32 0 0 1-1.83-.59l-.62-.58a1 1 0 0 0-1.4 0l-2.67 2.49v1.65h9.62a.64.64 0 1 1 0 1.28H6.87a.64.64 0 0 1-.64-.64V9.24a.64.64 0 0 1 .64-.64Z"/>
</svg>
