<svg viewBox="0 0 24 24" fill="currentColor">
    <path d="M21.71 5.71 16.29.29a1 1 0 0 0-.7-.29H4a2 2 0 0 0-1.41.59A2 2 0 0 0 2 2v20a2 2 0 0 0 2 2h16a2 2 0 0 0 2-2V6.41a1 1 0 0 0-.29-.7ZM8.31 17.35a.57.57 0 0 1-.41.17.6.6 0 0 1-.41-.18c-1.92-2-1.94-6.49-1.94-6.68a.6.6 0 0 1 1.19 0s0 3.44 1.18 5.31a8.62 8.62 0 0 0 1.17-5.3.59.59 0 0 1 .56-.62.57.57 0 0 1 .62.55c.26 4.57-1.87 6.67-1.96 6.75Zm5.62-6h-.61v5.55a.62.62 0 1 1-1.23 0v-5.51h-.61a.61.61 0 0 1 0-1.22h2.45a.61.61 0 0 1 0 1.22v-.04Zm3.91 0h-.61v5.55a.61.61 0 0 1-1.22 0v-5.51h-.61a.61.61 0 0 1 0-1.22h2.44a.61.61 0 0 1 0 1.22v-.04Z"/>
</svg>
