<svg viewBox="0 0 24 24" fill="currentColor">
    <path d="M18.16 15.2v-2.19l-1.61 2.19h1.61Z"/>
    <path d="M21.71 5.71 16.29.29a1 1 0 0 0-.7-.29H4a2 2 0 0 0-1.41.59A2 2 0 0 0 2 2v20a2 2 0 0 0 2 2h16a2 2 0 0 0 2-2V6.41a1 1 0 0 0-.29-.7ZM9.87 17.51a.64.64 0 0 1-.64.63.63.63 0 0 1-.63-.63v-4.25l-.79 1.16a.64.64 0 0 1-.52.28.63.63 0 0 1-.52-.28l-.83-1.19v4.28a.63.63 0 0 1-.63.63.64.64 0 0 1-.64-.63V11.2a.63.63 0 0 1 .846-.6.64.64 0 0 1 .314.24l1.46 2.1 1.43-2.1a.64.64 0 0 1 1.037-.02.63.63 0 0 1 .123.38l-.01 6.31Zm3.92-2.63a2.55 2.55 0 0 1-1.8.74v1.9a.64.64 0 0 1-1.27 0v-6.34a.63.63 0 0 1 .63-.63H12a2.53 2.53 0 0 1 1.8 4.33h-.01Zm5.55 2.6a.62.62 0 0 1-.59.64.61.61 0 0 1-.59-.64v-1h-2.83a.57.57 0 0 1-.53-.37.67.67 0 0 1 .07-.67l3.42-4.65a.57.57 0 0 1 .66-.2.64.64 0 0 1 .39.6v6.29Z"/>
    <path d="M12 11.82v2.53a1.252 1.252 0 0 0 .9-.37 1.24 1.24 0 0 0 0-1.79 1.251 1.251 0 0 0-.9-.37Z"/>
</svg>
