<svg viewBox="0 0 24 24" fill="currentColor">
    <path d="M11.75 9.81a10 10 0 0 0-3.38.53 3.62 3.62 0 0 0-1.16.66 1.45 1.45 0 0 0-.53 1.06v4.5a1.45 1.45 0 0 0 .54 1.08c.339.28.725.497 1.14.64a10 10 0 0 0 3.38.53c1.149.019 2.292-.16 3.38-.53.415-.143.802-.36 1.14-.64a1.45 1.45 0 0 0 .54-1.08v-4.5a1.451 1.451 0 0 0-.51-1.06 3.62 3.62 0 0 0-1.16-.66 10 10 0 0 0-3.38-.53Zm3.94 6.75s0 .1-.16.24a2.582 2.582 0 0 1-.79.43 8.86 8.86 0 0 1-3 .46 8.86 8.86 0 0 1-3-.46 2.58 2.58 0 0 1-.79-.43c-.16-.14-.16-.22-.16-.24v-.78c.181.095.368.179.56.25a10 10 0 0 0 3.38.53 10 10 0 0 0 3.4-.56 4.8 4.8 0 0 0 .56-.25v.81Zm0-2.25s0 .1-.16.24a2.58 2.58 0 0 1-.78.45 8.86 8.86 0 0 1-3 .46 8.86 8.86 0 0 1-3-.46 2.58 2.58 0 0 1-.79-.43c-.16-.14-.16-.22-.16-.24v-.78c.181.095.368.179.56.25a10 10 0 0 0 3.38.53c1.149.019 2.292-.16 3.38-.53a4.76 4.76 0 0 0 .56-.25l.01.76Zm0-2.25s0 .09-.16.23a2.53 2.53 0 0 1-.8.44 8.909 8.909 0 0 1-3 .46 8.909 8.909 0 0 1-3-.46 2.528 2.528 0 0 1-.8-.44c-.15-.14-.16-.22-.16-.23 0-.01 0-.09.16-.23a2.53 2.53 0 0 1 .82-.43 8.909 8.909 0 0 1 3-.46 8.909 8.909 0 0 1 3 .46c.291.097.562.246.8.44.14.16.14.21.14.22Z"/>
    <path d="M21.85 6.59 15.97.71A2.25 2.25 0 0 0 14.38 0H3.75A2.25 2.25 0 0 0 1.5 2.3v19.4A2.25 2.25 0 0 0 3.75 24h16.5a2.25 2.25 0 0 0 2.25-2.25V8.18a2.25 2.25 0 0 0-.65-1.59ZM15 1.86l5.69 5.69h-4.94A.75.75 0 0 1 15 6.8V1.86Zm6 19.84a.75.75 0 0 1-.75.75H3.75A.75.75 0 0 1 3 21.7V2.3a.75.75 0 0 1 .75-.75h9.75v5.26a2.25 2.25 0 0 0 2.25 2.25H21V21.7Z"/>
</svg>
