<svg viewBox="0 0 24 24" fill="currentColor">
    <path d="M21.68 5.71 16.29.29a1 1 0 0 0-.7-.29H4a2 2 0 0 0-2 2v20a2 2 0 0 0 2 2h16a2 2 0 0 0 2-2V6.41a1 1 0 0 0-.32-.7ZM10.08 16.9a.61.61 0 0 1 0 1.22H6.26a.61.61 0 0 1-.53-.31.6.6 0 0 1 0-.62l3.26-5.39H6.26a.62.62 0 0 1 0-1.23h3.82a.59.59 0 0 1 .53.32.58.58 0 0 1 0 .61l-3.26 5.4h2.73Zm3.28.62a.71.71 0 0 1-1.4 0v-6.38a.71.71 0 0 1 1.4 0v6.38Zm4.25-2.62a2.539 2.539 0 0 1-1.8.74v1.91a.64.64 0 0 1-1.27 0v-6.38a.63.63 0 0 1 .64-.63h.64a2.53 2.53 0 0 1 1.79 4.36Z"/>
    <path d="M15.81 11.8v2.54a1.32 1.32 0 0 0 .9-.37 1.28 1.28 0 0 0 0-1.8 1.32 1.32 0 0 0-.9-.37Z"/>
</svg>
