<svg viewBox="0 0 24 24" fill="currentColor">
    <path d="M21.71 5.71 16.29.29a1 1 0 0 0-.7-.29H4a2 2 0 0 0-1.41.59A2 2 0 0 0 2 2v20a2 2 0 0 0 2 2h16a2 2 0 0 0 2-2V6.41a1 1 0 0 0-.29-.7ZM6.84 11.24H6.2v5.72a.64.64 0 0 1-.63.64.64.64 0 0 1-.64-.64v-5.72h-.64a.64.64 0 0 1-.445-1.085.63.63 0 0 1 .445-.185h2.55a.63.63 0 0 1 .63.63.64.64 0 0 1-.63.64ZM10 16.96a.65.65 0 0 1-.7.6.65.65 0 0 1-.7-.6V10.6a.65.65 0 0 1 .7-.6.65.65 0 0 1 .7.6v6.36Zm4.61-5.69h-2.25v2.49h1.5a.64.64 0 0 1 .64.64.64.64 0 0 1-.64.63h-1.5v1.9a.64.64 0 1 1-1.27 0v-6.3a.64.64 0 0 1 .63-.64h2.87a.64.64 0 1 1 0 1.28h.02Zm5.12 0h-2.25v2.49H19a.64.64 0 0 1 .64.64.64.64 0 0 1-.64.63h-1.5v1.9a.64.64 0 1 1-1.27 0v-6.3a.64.64 0 0 1 .63-.64h2.87a.64.64 0 1 1 0 1.28Z"/>
</svg>
