<svg viewBox="0 0 24 24" fill="currentColor">
    <g clip-path="url(#a)">
        <path fill-rule="evenodd" d="M3.22 1.72a.75.75 0 0 1 .53-.22h9.75v5.25A2.25 2.25 0 0 0 15.75 9H21v3.75a.75.75 0 0 0 1.5 0V8.122a2.25 2.25 0 0 0-.659-1.591L15.971.66A2.25 2.25 0 0 0 14.379 0H3.75A2.25 2.25 0 0 0 1.5 2.25v19.5A2.25 2.25 0 0 0 3.75 24H14.8a.75.75 0 0 0 0-1.5H3.75a.75.75 0 0 1-.75-.75V2.25a.75.75 0 0 1 .22-.53ZM15 1.81v4.94a.75.75 0 0 0 .75.75h4.94L15 1.81Z" clip-rule="evenodd"/>
        <path d="M19.24 14.914a2.21 2.21 0 0 0-2.2 2.2v6.06a.74.74 0 0 0 1.48 0v-3h1.45v3a.74.74 0 1 0 1.47 0v-6.03a2.21 2.21 0 0 0-2.2-2.23Zm-.72 3.77v-1.54a.72.72 0 0 1 .72-.72.73.73 0 0 1 .73.72v1.57l-1.45-.03ZM23.17 23.914a.78.78 0 0 1-.83-.72v-7.5a.84.84 0 0 1 1.66 0v7.5a.78.78 0 0 1-.83.72Z"/>
    </g>
    <defs>
        <clipPath id="a">
            <path d="M0 0h24v24H0z"/>
        </clipPath>
    </defs>
</svg>
