<svg viewBox="0 0 24 24" fill="currentColor">
    <path d="M21.71 5.71 16.29.29a1 1 0 0 0-.7-.29H4a2 2 0 0 0-2 2v20a2 2 0 0 0 2 2h16a2 2 0 0 0 2-2V6.41a1 1 0 0 0-.29-.7ZM7 14.62h-.62a.25.25 0 0 0-.25.25V17a.63.63 0 0 1-1.25 0v-6a.62.62 0 0 1 .63-.62H7a2.125 2.125 0 0 1 0 4.25v-.01Zm5 0h-.62a.25.25 0 0 0-.25.25V17a.63.63 0 0 1-1.25 0v-6a.62.62 0 0 1 .63-.62H12a2.125 2.125 0 0 1 0 4.25v-.01Zm7.5-3h-1.13a.25.25 0 0 0-.25.25V17a.63.63 0 0 1-1.25 0v-5.13a.25.25 0 0 0-.25-.25H15.5a.63.63 0 0 1 0-1.25h4a.63.63 0 0 1 0 1.25Z"/>
    <path d="M7 11.62h-.62a.25.25 0 0 0-.25.25v1.25a.25.25 0 0 0 .25.25H7a.88.88 0 0 0 0-1.75ZM12 11.62h-.62a.25.25 0 0 0-.25.25v1.25a.25.25 0 0 0 .25.25H12a.88.88 0 0 0 0-1.75Z"/>
</svg>
