<svg viewBox="0 0 24 24" fill="currentColor">
    <g clip-path="url(#a)">
        <path d="M21.71 5.71 16.29.29a1 1 0 0 0-.7-.29H4a2 2 0 0 0-1.41.59A2 2 0 0 0 2 2v20a2 2 0 0 0 2 2h16a2 2 0 0 0 2-2V6.41a1 1 0 0 0-.29-.7ZM7.44 13.28A2.94 2.94 0 0 1 9 15.69a1.91 1.91 0 0 1-1.91 1.9H5.78a.64.64 0 1 1 0-1.27h1.28a.64.64 0 0 0 .64-.64c0-.6-.36-.9-1-1.4a2.92 2.92 0 0 1-1.52-2.41A1.91 1.91 0 0 1 7.06 10h1.28a.64.64 0 0 1 .64.64.65.65 0 0 1-.64.64H7.06a.64.64 0 0 0-.64.63c0 .57.37.88 1.02 1.37Zm4.77 4a.59.59 0 0 1-.4.16.55.55 0 0 1-.4-.18C9.55 15.29 9.53 11 9.53 10.77a.57.57 0 0 1 .57-.57.56.56 0 0 1 .57.57s0 3.32 1.15 5.12A8.27 8.27 0 0 0 13 10.78a.571.571 0 0 1 1.14-.07c.21 4.41-1.85 6.44-1.93 6.52v.05Zm6.65-1a1.22 1.22 0 0 1-.94 1.19c-.3.078-.61.118-.92.12a2.58 2.58 0 0 1-1.62-.59 3.56 3.56 0 0 1-1.08-3 4.06 4.06 0 0 1 1.32-3.36 3.288 3.288 0 0 1 2.59-.54.64.64 0 0 1-.3 1.24 2 2 0 0 0-1.52.31 3 3 0 0 0-.82 2.35 2.61 2.61 0 0 0 .6 2 1.78 1.78 0 0 0 1.45.17v-1.48l-.68.05a.641.641 0 0 1-.64-.64.64.64 0 0 1 .64-.63h.73a1.23 1.23 0 0 1 1.23 1.22l-.04 1.59Z"/>
    </g>
    <defs>
        <clipPath id="a">
            <path d="M0 0h24v24H0z"/>
        </clipPath>
    </defs>
</svg>
