<svg viewBox="0 0 24 24" fill="currentColor">
    <path d="M16.297.29 21.71 5.7a1 1 0 0 1 .29.71V22a2 2 0 0 1-2.001 2H4.001A2.001 2.001 0 0 1 2 22V2a2 2 0 0 1 2.001-2h11.596a1 1 0 0 1 .7.29ZM19.51 22a.5.5 0 0 0 .5-.5V7a.5.5 0 0 0-.15-.35l-4.532-4.5a.5.5 0 0 0-.32-.15H4.5a.5.5 0 0 0-.5.5v19a.5.5 0 0 0 .5.5H19.51Z"/>
    <path d="M15.577 1.43H2.9v21.41h18.28V7.26l-5.603-5.83ZM8.573 13.31 11.065 16a1 1 0 0 1 0 1.39 1 1 0 0 1-1.411 0l-3.382-3.56a1 1 0 0 1 0-1.36l3.332-3.58a1 1 0 1 1 1.46 1.36L8.535 13a.25.25 0 0 0 0 .32l.04-.01Zm9.215.51-3.382 3.58a1.013 1.013 0 0 1-1.46-1.4l2.54-2.72a.25.25 0 0 0 0-.34l-2.54-2.72a.999.999 0 0 1 .749-1.774 1.001 1.001 0 0 1 .711.444l3.332 3.57a1 1 0 0 1 0 1.37l.05-.01Z"/>
</svg>
