<svg viewBox="0 0 24 24" fill="currentColor">
    <g clip-path="url(#a)">
        <path d="M10.92 11.24a.61.61 0 0 0-.61.61v1.31h1.21v-1.31a.61.61 0 0 0-.6-.61Z"/>
        <path d="M21.71 5.71 16.29.29a1 1 0 0 0-.7-.29H4a2 2 0 0 0-1.41.59A2 2 0 0 0 2 2v20a2 2 0 0 0 2 2h16a2 2 0 0 0 2-2V6.41a1 1 0 0 0-.29-.7Zm-9 11.22a.62.62 0 0 1-1.24 0V14.4h-1.16v2.53a.62.62 0 1 1-1.24 0v-5.08a1.85 1.85 0 0 1 3.69 0l-.05 5.08Zm2.17 0a.7.7 0 0 1-1.39 0v-6.3a.7.7 0 0 1 1.39 0v6.3Z"/>
    </g>
    <defs>
        <clipPath id="a">
            <path d="M0 0h24v24H0z"/>
        </clipPath>
    </defs>
</svg>
