<svg viewBox="0 0 24 24" fill="currentColor">
    <path d="M21.869 6.59 15.99.71A2.254 2.254 0 0 0 14.399 0H3.723a2.256 2.256 0 0 0-2.07 1.43c-.108.277-.16.573-.153.87v19.4a2.247 2.247 0 0 0 1.358 2.115c.273.118.567.181.865.185h16.523a2.255 2.255 0 0 0 2.253-2.25V8.18a2.248 2.248 0 0 0-.631-1.59Zm-6.85-4.73 5.728 5.7H15.74a.752.752 0 0 1-.75-.75l.03-4.95Zm6.009 19.84a.75.75 0 0 1-.751.75H3.724a.751.751 0 0 1-.751-.75V2.3a.75.75 0 0 1 .75-.75h9.764v5.26a2.248 2.248 0 0 0 2.253 2.25h5.258l.03 12.64Z"/>
</svg>
