<svg viewBox="0 0 24 24" fill="currentColor">
    <path d="M21.81 6.59 15.97.71a2.331 2.331 0 0 0-.72-.52 2.34 2.34 0 0 0-.87-.19H3.75c-.3 0-.595.061-.87.18a2.06 2.06 0 0 0-.74.5 2.15 2.15 0 0 0-.48.74 2.41 2.41 0 0 0-.16.88v19.4c-.002.3.052.6.16.88.107.277.27.53.48.74.207.219.46.39.74.5.275.119.57.18.87.18h16.5a2.25 2.25 0 0 0 2.25-2.25V8.18a2.243 2.243 0 0 0-.69-1.59ZM15 1.86l5.69 5.69h-4.94A.75.75 0 0 1 15 6.8V1.86Zm6 19.84a.75.75 0 0 1-.75.75H3.75A.75.75 0 0 1 3 21.7V2.3a.75.75 0 0 1 .75-.75h9.75v5.26a2.25 2.25 0 0 0 2.25 2.25H21V21.7Z"/>
    <path d="M9.12 13.54a2.52 2.52 0 0 1-1.78-.74A2.48 2.48 0 0 1 6.6 11a2.54 2.54 0 0 1 .74-1.78 2.59 2.59 0 0 1 3.56 0 2.54 2.54 0 0 1 .74 1.78 2.5 2.5 0 0 1-.74 1.78 2.54 2.54 0 0 1-1.78.76Zm0-3.54a1 1 0 0 0-.923 1.39 1 1 0 0 0 .223.33 1.05 1.05 0 0 0 1.44 0A1 1 0 0 0 9.12 10ZM17.4 20.18a.73.73 0 0 1-.62-.33l-3.09-4.63-2.19 3a.71.71 0 0 1-.51.31.72.72 0 0 1-.57-.15l-1.31-1-1.73 2.5A.764.764 0 1 1 6.13 19l1.68-2.48a1.6 1.6 0 0 1 .46-.44 1.56 1.56 0 0 1 .6-.23 1.51 1.51 0 0 1 .63 0c.208.056.402.155.57.29l.68.55 1.66-2.37a1.54 1.54 0 0 1 2.55.03L18.02 19a.75.75 0 0 1-.2 1 .81.81 0 0 1-.42.18Z"/>
</svg>
