<svg viewBox="0 0 24 24" fill="currentColor">
    <path d="M15.537 1.4H3.14v21.41h17.668V6.67L15.537 1.4Zm-3.942 13.07-2.001 2.5a.75.75 0 0 1-.54.28h-.05a.75.75 0 0 1-.53-.25l-1.471-1.47a.75.75 0 0 1 1-1.06l.78.78a.14.14 0 0 0 .23 0l1.371-1.72a.75.75 0 0 1 1.17.94h.04Zm0-5.5-2.001 2.5a.75.75 0 0 1-.54.28h-.05a.75.75 0 0 1-.53-.22L7.002 10a.75.75 0 0 1 1-1l.78.78a.14.14 0 0 0 .23 0L10.415 8a.773.773 0 0 1 1.18 1v-.03Zm4.412 7.78h-2.501a.75.75 0 1 1 0-1.5h2.501a.75.75 0 1 1 0 1.5Zm0-5.5h-2.501a.75.75 0 1 1 0-1.5h2.501a.75.75 0 1 1 0 1.5Z"/>
    <path d="M16.297.29 21.71 5.7a1 1 0 0 1 .29.71V22a2 2 0 0 1-2.001 2H4.001A2.001 2.001 0 0 1 2 22V2a2 2 0 0 1 2.001-2h11.596a1 1 0 0 1 .7.29ZM19.51 22a.5.5 0 0 0 .5-.5V7.25a.25.25 0 0 0-.25-.25h-2.752a2.001 2.001 0 0 1-2-2V2.25a.25.25 0 0 0-.25-.25H4.5a.5.5 0 0 0-.5.5v19a.5.5 0 0 0 .5.5H19.51Z"/>
</svg>
