<svg viewBox="0 0 24 24" fill="currentColor">
    <g fill-rule="evenodd" clip-path="url(#a)" clip-rule="evenodd">
        <path d="M17.25 11.52v4.79a1.89 1.89 0 0 0 1.26-1.77v-1.25A1.87 1.87 0 0 0 18 12a2 2 0 0 0-.75-.48Z"/>
        <path d="M21.71 5.71 16.29.29a1 1 0 0 0-.7-.29H4a2 2 0 0 0-1.41.59A2 2 0 0 0 2 2v20a2 2 0 0 0 2 2h16a2 2 0 0 0 2-2V6.41a1 1 0 0 0-.29-.7ZM5.62 17a.64.64 0 0 1-.69.59.64.64 0 0 1-.69-.59v-6.26a.65.65 0 0 1 .69-.6.65.65 0 0 1 .69.6V17ZM11 17a.62.62 0 0 1-.47.61h-.16a.65.65 0 0 1-.55-.32l-2.24-4V17a.63.63 0 1 1-1.25 0v-6.14a.62.62 0 0 1 .47-.61.61.61 0 0 1 .7.3l2.24 4v-3.69a.63.63 0 0 1 1.26 0V17Zm4.48-2.47a3.099 3.099 0 0 1-.92 2.21 3.14 3.14 0 0 1-2.22.92.63.63 0 0 1-.63-.63v-6.28a.63.63 0 0 1 .63-.62c.83 0 1.628.327 2.22.91a3.14 3.14 0 0 1 .92 2.22v1.27Zm4.27 0a3.14 3.14 0 0 1-.92 2.22 3.17 3.17 0 0 1-2.22.91.589.589 0 0 1-.44-.18.63.63 0 0 1-.19-.44v-6.25a.63.63 0 0 1 .63-.63 3.14 3.14 0 0 1 3.14 3.13v1.24Z"/>
        <path d="M13 11.49v4.79a1.85 1.85 0 0 0 .7-.44 1.87 1.87 0 0 0 .56-1.33v-1.25A1.89 1.89 0 0 0 13 11.49Z"/>
    </g>
    <defs>
        <clipPath id="a">
            <path d="M0 0h24v24H0z"/>
        </clipPath>
    </defs>
</svg>
