<svg viewBox="0 0 24 24" fill="currentColor">
    <g clip-path="url(#a)">
        <path d="M15.59 0a1 1 0 0 1 .71.29l5.41 5.41a1 1 0 0 1 .29.71V22a2 2 0 0 1-2 2H4a2 2 0 0 1-2-2V2a2 2 0 0 1 2-2h11.59Zm3.91 22a.5.5 0 0 0 .5-.5V7a.5.5 0 0 0-.15-.35l-4.53-4.5A.5.5 0 0 0 15 2H4.5a.5.5 0 0 0-.5.5v19a.5.5 0 0 0 .5.5h15Z"/>
        <path d="m20.06 5.68-3.54-3.8-13.17-.46v21.23h17l-.29-16.97ZM6.53 13.25 9.8 10a1 1 0 0 1 1.2-.17l1.66 1a.25.25 0 0 0 .3 0l2.5-2.5a1 1 0 0 1 1.44 1.38l-3.2 3.19a1 1 0 0 1-1.22.15l-1.66-1a.25.25 0 0 0-.3 0l-2.58 2.61a1 1 0 0 1-1.41-1.41Zm10.22 5.19H7a1 1 0 0 1 0-2h9.75a1 1 0 0 1 0 2Z"/>
    </g>
    <defs>
        <clipPath id="a">
            <path d="M0 0h24v24H0z"/>
        </clipPath>
    </defs>
</svg>
