<svg viewBox="0 0 24 24" fill="currentColor">
    <g clip-path="url(#a)">
        <path d="M6 11.31v2.47a1.229 1.229 0 0 0 .87-.36 1.22 1.22 0 0 0 0-1.75 1.229 1.229 0 0 0-.87-.36Z"/>
        <path d="M21.68 5.71 16.26.29a1 1 0 0 0-.7-.29H4a2 2 0 0 0-2 2v20a2 2 0 0 0 2 2h16a2 2 0 0 0 2-2V6.41a1 1 0 0 0-.32-.7ZM7.77 14.29A2.46 2.46 0 0 1 6 15v1.85a.61.61 0 0 1-.62.61.612.612 0 0 1-.62-.61v-6.16a.61.61 0 0 1 .62-.61H6a2.49 2.49 0 0 1 2.29 1.52 2.45 2.45 0 0 1-.54 2.69h.02Zm6.15 2.57a.63.63 0 0 1-.48.61.41.41 0 0 1-.16 0 .65.65 0 0 1-.55-.32l-2.25-4v3.73a.63.63 0 0 1-1.26 0V10.7a.62.62 0 0 1 .47-.61.64.64 0 0 1 .71.3l2.25 4V10.7a.64.64 0 0 1 1.27 0v6.16Zm5.24-.67a1.21 1.21 0 0 1-.93 1.18 3.673 3.673 0 0 1-.91.12A2.6 2.6 0 0 1 15.7 17a3.52 3.52 0 0 1-1.06-3 4 4 0 0 1 1.3-3.34 3.2 3.2 0 0 1 2.58-.53.63.63 0 0 1 .46.76.63.63 0 0 1-.76.46 2 2 0 0 0-1.51.31A2.91 2.91 0 0 0 15.9 14a2.55 2.55 0 0 0 .59 2 1.77 1.77 0 0 0 1.45.16V14.7h-.69a.63.63 0 0 1 0-1.26h.73a1.22 1.22 0 0 1 1.22 1.22l-.04 1.53Z"/>
    </g>
    <defs>
        <clipPath id="a">
            <path d="M0 0h24v24H0z"/>
        </clipPath>
    </defs>
</svg>
