<svg viewBox="0 0 24 24" fill="currentColor">
    <path d="M21.71 5.71 16.29.29a1 1 0 0 0-.7-.29H4a2 2 0 0 0-2 2v20a2 2 0 0 0 2 2h16a2 2 0 0 0 2-2V6.41a1 1 0 0 0-.29-.7Zm-12.65 11a.63.63 0 1 1-1.12.56s-.86-1.71-.88-1.76a.07.07 0 0 0-.12 0l-.88 1.76a.62.62 0 0 1-1.035.131.62.62 0 0 1-.085-.691l1.3-2.61a.25.25 0 0 0 0-.22l-1.3-2.61a.63.63 0 0 1 1.12-.56l.88 1.75a.07.07 0 0 0 .104.032.07.07 0 0 0 .026-.032l.88-1.75a.63.63 0 1 1 1.12.56l-1.3 2.61a.25.25 0 0 0 0 .22l1.29 2.61Zm4.44.91h-2A1.63 1.63 0 0 1 9.87 16v-5a.63.63 0 0 1 1.25 0v5a.38.38 0 0 0 .38.37h2a.63.63 0 0 1 0 1.25Zm2.92-4.76 1.84 1.23a1.93 1.93 0 0 1-1.07 3.53H15.5a.63.63 0 1 1 0-1.25h1.7a.68.68 0 0 0 .38-1.24l-1.84-1.23a1.93 1.93 0 0 1 1.07-3.53h1.7a.63.63 0 0 1 0 1.25H16.8a.68.68 0 0 0-.38 1.24Z"/>
</svg>
