<svg viewBox="0 0 24 24" fill="currentColor">
    <g clip-path="url(#a)">
        <path fill-rule="evenodd" d="M3.22 1.72a.75.75 0 0 1 .53-.22h9.75v5.25A2.25 2.25 0 0 0 15.75 9H21v3.75a.75.75 0 0 0 1.5 0V8.122a2.25 2.25 0 0 0-.659-1.591L15.971.66A2.25 2.25 0 0 0 14.379 0H3.75A2.25 2.25 0 0 0 1.5 2.25v19.5A2.25 2.25 0 0 0 3.75 24h1.5a.75.75 0 0 0 0-1.5h-1.5a.75.75 0 0 1-.75-.75V2.25a.75.75 0 0 1 .22-.53ZM15 1.81v4.94a.75.75 0 0 0 .75.75h4.94L15 1.81ZM20.25 14.981a.749.749 0 0 0-.75.742v7.475a.752.752 0 0 0 .75.752 3.756 3.756 0 0 0 2.645-1.1A3.772 3.772 0 0 0 24 20.202V18.71a3.752 3.752 0 0 0-1.106-2.64 3.736 3.736 0 0 0-2.644-1.088Zm.75 7.345v-5.731a2.25 2.25 0 0 1 1.5 2.114v1.493a2.258 2.258 0 0 1-1.5 2.124Z" clip-rule="evenodd"/>
        <path fill-rule="evenodd" d="M8.25 14.981a.75.75 0 0 0-.75.742v7.475a.752.752 0 0 0 .75.752.75.75 0 0 0 .75-.752v-2.204a2.994 2.994 0 0 0 2.13-.872 3.01 3.01 0 0 0 0-4.239A3 3 0 0 0 9 14.981h-.75ZM9 16.464v3.007a1.498 1.498 0 0 0 1.06-.481 1.484 1.484 0 0 0 0-2.115 1.498 1.498 0 0 0-1.06-.41Z" clip-rule="evenodd"/>
        <path d="M16.2 18.87c-.77-.592-1.2-.953-1.2-1.654a.762.762 0 0 1 .75-.722h1.51a.769.769 0 0 0 .76-.761.762.762 0 0 0-.76-.752h-1.51a2.248 2.248 0 0 0-2.23 2.255 3.443 3.443 0 0 0 1.79 2.846c.77.581 1.2.942 1.2 1.643a.772.772 0 0 1-.76.762h-1.51a.759.759 0 0 0-.75.751.762.762 0 0 0 .75.762h1.51a2.255 2.255 0 0 0 2.085-1.414 2.27 2.27 0 0 0 .165-.87 3.473 3.473 0 0 0-1.8-2.847Z"/>
    </g>
    <defs>
        <clipPath id="a">
            <path d="M0 0h24v24H0z"/>
        </clipPath>
    </defs>
</svg>
