<svg viewBox="0 0 24 24" fill="currentColor">
    <path d="M12.89 11.52a.63.63 0 0 0-.63.63v1.35h1.26v-1.35a.63.63 0 0 0-.63-.63Z"/>
    <path d="M21.71 5.71 16.29.29a1 1 0 0 0-.7-.29H4a2 2 0 0 0-1.41.59A2 2 0 0 0 2 2v20a2 2 0 0 0 2 2h16a2 2 0 0 0 2-2V6.41a1 1 0 0 0-.29-.7ZM8.57 17.89a.66.66 0 0 1-.58.07.62.62 0 0 1-.39-.43l-.53-1.89-.48 1.88a.61.61 0 0 1-.4.44.57.57 0 0 1-.22 0 .62.62 0 0 1-.38-.07c-2.18-1.59-2-6.46-1.93-7a.64.64 0 1 1 1.27.07 12 12 0 0 0 .74 5.05l.76-3a.65.65 0 0 1 .62-.48.64.64 0 0 1 .62.47l.79 2.89a11.65 11.65 0 0 0 .54-5 .655.655 0 0 1 1.31 0c.28 5.46-1.53 6.86-1.74 7Zm6.22-.5a.64.64 0 0 1-1.27 0v-2.61h-1.26v2.62a.64.64 0 1 1-1.28 0v-5.25a1.91 1.91 0 1 1 3.81 0v5.24Zm3.52.44a.61.61 0 0 1-.42.17.63.63 0 0 1-.43-.19c-2-2.07-2-6.74-2-6.94a.61.61 0 0 1 .62-.61.61.61 0 0 1 .61.61s0 3.57 1.23 5.52a8.88 8.88 0 0 0 1.19-5.5.61.61 0 0 1 .58-.64.6.6 0 0 1 .65.57c.27 4.75-1.93 6.93-2.03 7.07v-.06Z"/>
</svg>
