<svg viewBox="0 0 24 24" fill="currentColor">
    <g clip-path="url(#a)">
        <path fill-rule="evenodd" d="M3.22 1.72a.75.75 0 0 1 .53-.22h9.75v5.25A2.25 2.25 0 0 0 15.75 9H21v3.75a.75.75 0 0 0 1.5 0V8.122a2.25 2.25 0 0 0-.659-1.591L15.971.66A2.25 2.25 0 0 0 14.379 0H3.75A2.25 2.25 0 0 0 1.5 2.25v19.5A2.25 2.25 0 0 0 3.75 24h3.007a.75.75 0 0 0 0-1.5H3.75a.75.75 0 0 1-.75-.75V2.25a.75.75 0 0 1 .22-.53ZM15 1.81v4.94a.75.75 0 0 0 .75.75h4.94L15 1.81Z" clip-rule="evenodd"/>
        <path d="M12.75 20.342a.75.75 0 0 0 0-1.499h-2.21v-2.069h2.21a.75.75 0 1 0 0-1.499h-3a.75.75 0 0 0-.75.75v7.146a.76.76 0 0 0 .75.749h3a.75.75 0 1 0 0-1.499h-2.21v-2.079h2.21Z"/>
        <path fill-rule="evenodd" d="M15.51 15.195a.74.74 0 0 0-.74.74v7.325a.74.74 0 0 0 1.47 0v-2.198a2.942 2.942 0 0 0 3.111-2.933 2.936 2.936 0 0 0-3.111-2.934h-.73Zm.73 1.47v2.928a1.46 1.46 0 0 0 1-.43 1.458 1.458 0 0 0 0-2.069 1.46 1.46 0 0 0-1-.43Z" clip-rule="evenodd"/>
        <path d="M21 17.404c0 .69.42 1 1.18 1.61A3.38 3.38 0 0 1 24 21.8 2.208 2.208 0 0 1 21.8 24h-1.5a.74.74 0 1 1 0-1.48h1.48a.74.74 0 0 0 .74-.739c0-.68-.42-.999-1.18-1.609a3.368 3.368 0 0 1-1.76-2.788 2.208 2.208 0 0 1 2.2-2.199h1.48a.74.74 0 1 1 0 1.48h-1.48a.742.742 0 0 0-.78.74Z"/>
    </g>
    <defs>
        <clipPath id="a">
            <path d="M0 0h24v24H0z"/>
        </clipPath>
    </defs>
</svg>
