<svg viewBox="0 0 24 24" fill="currentColor">
    <path fill-rule="evenodd" d="M3.22 1.72a.75.75 0 0 1 .53-.22h9.75v5.25A2.25 2.25 0 0 0 15.75 9H21v3.75a.75.75 0 0 0 1.5 0V8.122a2.25 2.25 0 0 0-.659-1.591L15.971.66A2.25 2.25 0 0 0 14.379 0H3.75A2.25 2.25 0 0 0 1.5 2.25v19.5A2.25 2.25 0 0 0 3.75 24h1.5a.75.75 0 0 0 0-1.5h-1.5a.75.75 0 0 1-.75-.75V2.25a.75.75 0 0 1 .22-.53ZM15 1.81v4.94a.75.75 0 0 0 .75.75h4.94L15 1.81Z" clip-rule="evenodd"/>
    <path fill-rule="evenodd" d="M8.247 14.998a.75.75 0 0 0-.75.75v7.5a.75.75 0 0 0 .75.75 3.75 3.75 0 0 0 3.75-3.75v-1.5a3.75 3.75 0 0 0-3.75-3.75Zm.75 7.371v-5.742a2.249 2.249 0 0 1 1.5 2.121v1.5a2.25 2.25 0 0 1-1.5 2.121ZM14.156 15.657a2.25 2.25 0 0 1 3.841 1.591v4.5a2.25 2.25 0 0 1-4.5 0v-4.5c0-.597.237-1.169.66-1.591Zm1.591.841a.75.75 0 0 0-.75.75v4.5a.75.75 0 1 0 1.5 0v-4.5a.75.75 0 0 0-.75-.75Z" clip-rule="evenodd"/>
    <path d="M23.247 14.998a3.75 3.75 0 0 0-3.75 3.75v1.5a3.75 3.75 0 0 0 3.75 3.75.75.75 0 0 0 0-1.5 2.25 2.25 0 0 1-2.25-2.25v-1.5a2.25 2.25 0 0 1 2.25-2.25.75.75 0 0 0 0-1.5Z"/>
</svg>
