<svg viewBox="0 0 24 24" fill="currentColor">
    <path d="M9.74 10.18a1 1 0 0 0 0-1.44 1 1 0 0 0-.74-.3 1 1 0 0 0-.72 1.74 1.06 1.06 0 0 0 1.46 0Z"/>
    <path d="M21.92 6.05a.998.998 0 0 0-.21-.32L16.29.32A.94.94 0 0 0 15.6 0H4a2 2 0 0 0-1.41.61A2 2 0 0 0 2 2v20a2 2 0 0 0 2 2h16a2 2 0 0 0 2-2V6.44a.87.87 0 0 0-.08-.39ZM7 7.45a3 3 0 0 1 4 0 2.85 2.85 0 0 1 0 4 2.84 2.84 0 0 1-4.84-2 2.86 2.86 0 0 1 .84-2Zm11.56 11.94a.9.9 0 0 1-1.26-.25l-3.37-5.05-2.24 3.3a1 1 0 0 1-.62.38.869.869 0 0 1-.69-.19L9 16.43l-1.81 2.71a.91.91 0 0 1-.75.41.85.85 0 0 1-.5-.16.91.91 0 0 1-.26-1.26l1.81-2.72A2 2 0 0 1 8 14.9a1.81 1.81 0 0 1 .68-.26 2 2 0 0 1 .73 0 1.9 1.9 0 0 1 .65.33l.68.54 1.75-2.5a1.779 1.779 0 0 1 1.51-.72c.287.008.568.083.82.22.257.136.474.335.63.58l3.37 5a.899.899 0 0 1-.26 1.3Z"/>
</svg>
