<svg viewBox="0 0 24 24" fill="currentColor">
    <g clip-path="url(#a)">
        <path fill-rule="evenodd" d="M3.22 1.72a.75.75 0 0 1 .53-.22h9.75v5.25A2.25 2.25 0 0 0 15.75 9H21v3.75a.75.75 0 0 0 1.5 0V8.122a2.25 2.25 0 0 0-.659-1.591L15.971.66A2.25 2.25 0 0 0 14.379 0H3.75A2.25 2.25 0 0 0 1.5 2.25v19.5A2.25 2.25 0 0 0 3.75 24h.5a.75.75 0 0 0 0-1.5h-.5a.75.75 0 0 1-.75-.75V2.25a.75.75 0 0 1 .22-.53ZM15 1.81v4.94a.75.75 0 0 0 .75.75h4.94L15 1.81Z" clip-rule="evenodd"/>
        <path d="M7.362 16.516h.748a.748.748 0 0 0 0-1.497H5.117a.748.748 0 1 0 0 1.497h.748v6.736a.748.748 0 1 0 1.497 0v-6.736ZM10.414 23.765a.778.778 0 0 0 .559.185.768.768 0 0 0 .817-.688v-7.495a.828.828 0 0 0-1.645 0v7.474a.778.778 0 0 0 .269.524ZM17.227 15.059h-3.362a.74.74 0 0 0-.748.748v7.415a.749.749 0 1 0 1.496 0v-2.266h1.766a.748.748 0 0 0 0-1.497h-1.766v-2.904h2.614a.748.748 0 0 0 0-1.496ZM19.89 15.059h3.361a.748.748 0 1 1 0 1.496h-2.613v2.904h1.766a.748.748 0 0 1 0 1.497h-1.766v2.266a.749.749 0 1 1-1.496 0v-7.415a.749.749 0 0 1 .748-.748Z"/>
    </g>
    <defs>
        <clipPath id="a">
            <path d="M0 0h24v24H0z"/>
        </clipPath>
    </defs>
</svg>
