<svg viewBox="0 0 24 24" fill="currentColor">
    <g clip-path="url(#a)">
        <path fill-rule="evenodd" d="M3.22 1.72a.75.75 0 0 1 .53-.22h9.75v5.25A2.25 2.25 0 0 0 15.75 9H21v3.75a.75.75 0 0 0 1.5 0V8.122a2.25 2.25 0 0 0-.659-1.591L15.971.66A2.25 2.25 0 0 0 14.379 0H3.75A2.25 2.25 0 0 0 1.5 2.25v19.5A2.25 2.25 0 0 0 3.75 24h1.775a.75.75 0 0 0 0-1.5H3.75a.75.75 0 0 1-.75-.75V2.25a.75.75 0 0 1 .22-.53ZM15 1.81v4.94a.75.75 0 0 0 .75.75h4.94L15 1.81Z" clip-rule="evenodd"/>
        <path d="M9.33 17.27c0 .704.43 1.065 1.2 1.648a3.457 3.457 0 0 1 1.76 2.832 2.265 2.265 0 0 1-.659 1.588c-.42.421-.988.66-1.581.662H8.58a.758.758 0 0 1-.76-.753.775.775 0 0 1 .76-.764h1.51a.758.758 0 0 0 .75-.753c0-.703-.43-1.065-1.2-1.647a3.476 3.476 0 0 1-1.8-2.832c.003-.6.24-1.172.662-1.596a2.255 2.255 0 0 1 1.588-.664h1.5a.768.768 0 0 1 .76.763.765.765 0 0 1-.76.753h-1.5a.768.768 0 0 0-.76.764ZM15.69 23.79a.68.68 0 0 1-.47-.212C13 21.308 13 16.156 13 15.945a.675.675 0 1 1 1.35 0s0 3.927 1.34 6.076A9.808 9.808 0 0 0 17 15.945a.676.676 0 0 1 .63-.713.655.655 0 0 1 .656.373c.038.082.06.17.064.26.3 5.232-2.12 7.623-2.22 7.723a.699.699 0 0 1-.44.201ZM21.81 23.98a3.04 3.04 0 0 1-1.91-.613c-.47-.448-.83-1-1.05-1.612-.22-.612-.26-1.19-.26-1.933.053-.83.074-1.475.343-2.173a4.822 4.822 0 0 1 1.247-1.825 3.802 3.802 0 0 1 3.05-.633.748.748 0 0 1 .566.615.756.756 0 0 1-.623.863.746.746 0 0 1-.293-.011 2.299 2.299 0 0 0-1.79.361 3.447 3.447 0 0 0-.817 1.288c-.173.485-.22.958-.22 1.515 0 .459.024.834.144 1.234.12.399.323.769.593 1.086a2.075 2.075 0 0 0 1.71.2v-1.747l-.81.05a.748.748 0 0 1-.75-.753.755.755 0 0 1 .75-.753h.86c.383 0 .75.152 1.022.423.271.27.425.639.428 1.023v1.798c0 .326-.107.642-.307.899a1.45 1.45 0 0 1-.793.517 4.67 4.67 0 0 1-1.09.18Z"/>
    </g>
    <defs>
        <clipPath id="a">
            <path d="M0 0h24v24H0z"/>
        </clipPath>
    </defs>
</svg>
