<svg viewBox="0 0 24 24" fill="currentColor">
    <path fill-rule="evenodd" d="M3.22 1.72a.75.75 0 0 1 .53-.22h9.75v5.25A2.25 2.25 0 0 0 15.75 9H21v3.75a.75.75 0 0 0 1.5 0V8.122a2.25 2.25 0 0 0-.659-1.591L15.971.66A2.25 2.25 0 0 0 14.379 0H3.75A2.25 2.25 0 0 0 1.5 2.25v19.5A2.25 2.25 0 0 0 3.75 24h1.5a.75.75 0 0 0 0-1.5h-1.5a.75.75 0 0 1-.75-.75V2.25a.75.75 0 0 1 .22-.53ZM15 1.81v4.94a.75.75 0 0 0 .75.75h4.94L15 1.81Z" clip-rule="evenodd"/>
    <path fill-rule="evenodd" d="M7.499 15.748a.75.75 0 0 1 .75-.75H9a3 3 0 0 1 0 6h-.001v2.25a.75.75 0 0 1-1.5 0v-7.5Zm1.5 3.75v-3H9a1.5 1.5 0 1 1 0 3h-.001ZM14.249 14.998H15a3 3 0 0 1 0 6h-.001v2.25a.75.75 0 0 1-1.5 0v-7.5a.75.75 0 0 1 .75-.75Zm.75 1.5H15a1.5 1.5 0 1 1 0 3h-.001v-3Z" clip-rule="evenodd"/>
    <path d="M22.499 16.498h.75a.75.75 0 0 0 0-1.5h-3a.75.75 0 0 0 0 1.5h.75v6.75a.75.75 0 0 0 1.5 0v-6.75Z"/>
</svg>
