<svg viewBox="0 0 24 24" fill="currentColor">
    <path fill-rule="evenodd" d="M3.22 1.72a.75.75 0 0 1 .53-.22h9.75v5.25A2.25 2.25 0 0 0 15.75 9H21v3.75a.75.75 0 0 0 1.5 0V8.122a2.25 2.25 0 0 0-.659-1.591L15.971.66A2.25 2.25 0 0 0 14.379 0H3.75A2.25 2.25 0 0 0 1.5 2.25v19.5A2.25 2.25 0 0 0 3.75 24h1.5a.75.75 0 0 0 0-1.5h-1.5a.75.75 0 0 1-.75-.75V2.25a.75.75 0 0 1 .22-.53ZM15 1.81v4.94a.75.75 0 0 0 .75.75h4.94L15 1.81Z" clip-rule="evenodd"/>
    <path fill-rule="evenodd" d="M8.25 14.998a.75.75 0 0 0-.75.75v7.5a.75.75 0 0 0 1.5 0v-2.25h.004a3 3 0 0 0 0-6H8.25Zm.75 1.5v3h.004a1.5 1.5 0 0 0 0-3H9ZM14.25 14.998a.75.75 0 0 0-.75.75v7.5a.75.75 0 0 0 .75.75 3.75 3.75 0 0 0 3.75-3.75v-1.5a3.75 3.75 0 0 0-3.75-3.75Zm.75 7.371v-5.742a2.25 2.25 0 0 1 1.5 2.121v1.5a2.25 2.25 0 0 1-1.5 2.121Z" clip-rule="evenodd"/>
    <path d="M21.22 16.718a.75.75 0 0 1 .53-.22h1.5a.75.75 0 0 0 0-1.5h-1.5a2.25 2.25 0 0 0-2.25 2.25v6a.75.75 0 0 0 1.5 0v-2.25h1.5a.75.75 0 0 0 0-1.5H21v-2.25a.75.75 0 0 1 .22-.53Z"/>
</svg>
