<svg viewBox="0 0 24 24" fill="currentColor">
    <g clip-path="url(#a)">
        <path fill-rule="evenodd" d="M3.22 1.72a.75.75 0 0 1 .53-.22h9.75v5.25A2.25 2.25 0 0 0 15.75 9H21v3.75a.75.75 0 0 0 1.5 0V8.122a2.25 2.25 0 0 0-.659-1.591L15.971.66A2.25 2.25 0 0 0 14.379 0H3.75A2.25 2.25 0 0 0 1.5 2.25v19.5A2.25 2.25 0 0 0 3.75 24h.9c.555 0 .89-.336.89-.75s-.335-.75-.89-.75h-.9a.75.75 0 0 1-.75-.75V2.25a.75.75 0 0 1 .22-.53ZM15 1.81v4.94a.75.75 0 0 0 .75.75h4.94L15 1.81Z" clip-rule="evenodd"/>
        <path fill-rule="evenodd" d="M14.743 14.98a.745.745 0 0 0-.529.22.755.755 0 0 0-.219.532v7.5c0 .2.079.391.22.532a.746.746 0 0 0 1.276-.532v-2.249c.794 0 1.555-.317 2.116-.882a3.022 3.022 0 0 0 0-4.26 2.983 2.983 0 0 0-2.116-.882l-.748.02Zm.748 1.505v3.012a1.49 1.49 0 0 0 1.383-.93 1.516 1.516 0 0 0-.325-1.64 1.495 1.495 0 0 0-1.058-.442Z" clip-rule="evenodd"/>
        <path d="M12.29 23.945a.735.735 0 0 1-.694-.463.747.747 0 0 1-.054-.29v-5.02l-.928 1.365a.74.74 0 0 1-.618.332.744.744 0 0 1-.618-.322l-.998-1.415v5.02c0 .2-.079.39-.22.532a.746.746 0 0 1-1.276-.532v-7.4a.747.747 0 0 1 .515-.735.734.734 0 0 1 .841.304l1.716 2.48 1.686-2.48a.739.739 0 0 1 1.219-.017c.095.13.146.287.147.448v7.46a.746.746 0 0 1-.718.733Z"/>
        <path fill-rule="evenodd" d="M22.835 23.71c.129.14.307.224.496.235a.727.727 0 0 0 .669-.753v-7.45a.777.777 0 0 0-.47-.723.654.654 0 0 0-.767.252l-3.99 5.491a.826.826 0 0 0-.09.803.702.702 0 0 0 .629.432h3.331v1.195a.736.736 0 0 0 .192.517Zm-.192-3.229h-1.895l1.895-2.56v2.56Z" clip-rule="evenodd"/>
    </g>
    <defs>
        <clipPath id="a">
            <path d="M0 0h24v24H0z"/>
        </clipPath>
    </defs>
</svg>
