<svg viewBox="0 0 24 24" fill="currentColor">
    <path d="M21.34 6.59 15.5.71A2.25 2.25 0 0 0 13.88 0H3.25A2.25 2.25 0 0 0 1 2.3v19.4A2.25 2.25 0 0 0 3.25 24h16.5A2.25 2.25 0 0 0 22 21.7V8.18a2.25 2.25 0 0 0-.66-1.59ZM14.5 1.86l5.69 5.69h-4.94a.75.75 0 0 1-.75-.74V1.86Zm6 19.84a.75.75 0 0 1-.75.75H3.25a.75.75 0 0 1-.75-.75V2.3a.75.75 0 0 1 .75-.75H13v5.26a2.25 2.25 0 0 0 2.25 2.25h5.25V21.7Z"/>
    <path d="M13.5 10.32a.68.68 0 0 0 0 1l2.91 2.91-2.91 2.87a.68.68 0 0 0 0 1 .67.67 0 0 0 1 0l3.39-3.39a.681.681 0 0 0 0-1l-3.39-3.39a.68.68 0 0 0-1 0ZM10.38 10.32a.68.68 0 0 0-1 0l-3.35 3.39a.68.68 0 0 0 0 1l3.39 3.39a.67.67 0 0 0 1 0 .681.681 0 0 0 0-1L7.5 14.19l2.91-2.91a.68.68 0 0 0-.03-.96Z"/>
</svg>
