<svg viewBox="0 0 24 24" fill="currentColor">
    <path d="M18.542 5.469H12.51a5.612 5.612 0 0 0-1.785-3.928A7.536 7.536 0 0 0 5.333.046a.748.748 0 0 0-.648.837.738.738 0 0 0 .828.648A6.11 6.11 0 0 1 9.73 2.667a4.197 4.197 0 0 1 1.275 2.802h-6.33A4.685 4.685 0 0 0 0 10.144v10.248a3.618 3.618 0 0 0 3.609 3.579 2.99 2.99 0 0 0 2.562-1.446l2.492-4.067h5.822l2.103 3.37a3.928 3.928 0 0 0 2.831 2.143 3.32 3.32 0 0 0 2.841-.997 4.984 4.984 0 0 0 .997-2.99v-9.84a4.675 4.675 0 0 0-4.715-4.675Zm3.15 14.514c0 .683-.182 1.355-.528 1.944a1.765 1.765 0 0 1-1.565.558 2.392 2.392 0 0 1-1.735-1.296l-2.333-3.748a.746.746 0 0 0-.638-.349l-6.649-.1a.738.738 0 0 0-.638.36l-2.711 4.425a1.515 1.515 0 0 1-1.286.728 2.114 2.114 0 0 1-2.114-2.113V10.144a3.18 3.18 0 0 1 3.18-3.18h13.867a3.18 3.18 0 0 1 3.15 3.18v9.84Z"/>
    <path d="M7.128 12.307H6v-1.126a.748.748 0 0 0-1.495 0v1.126H3.369a.748.748 0 0 0 0 1.495h1.137v1.137a.747.747 0 1 0 1.495 0v-1.137h1.127a.747.747 0 1 0 0-1.495ZM16.827 14.74a1.446 1.446 0 1 0 0-2.892 1.446 1.446 0 0 0 0 2.891ZM19.17 9.905a1.186 1.186 0 1 0 0 2.372 1.186 1.186 0 0 0 0-2.372Z"/>
</svg>
