<svg viewBox="0 0 24 24" fill="currentColor">
    <path d="M1.25 20.669h3.5c.066 0 .13-.025.177-.07a.236.236 0 0 0 .073-.17v-1.927c0-.532-.448-.963-1-.963H2c-.552 0-1 .43-1 .963v1.926c0 .064.026.125.073.17.047.046.11.071.177.07ZM8 12.722c-.552 0-1 .432-1 .964v6.742c0 .064.026.125.073.17.047.046.11.071.177.07h3.5c.066.001.13-.024.177-.07a.236.236 0 0 0 .073-.17v-6.742c0-.532-.448-.964-1-.964H8ZM14 14.649c-.552 0-1 .431-1 .963v4.816c0 .064.026.125.073.17.047.046.11.071.177.07h3.5c.066.001.13-.024.177-.07a.235.235 0 0 0 .073-.17v-4.816c0-.532-.448-.963-1-.963h-2ZM20 7.906c-.552 0-1 .432-1 .964v11.558c0 .064.026.125.073.17.047.046.11.071.177.07h3.5c.066.001.13-.024.177-.07a.236.236 0 0 0 .073-.17V8.87c0-.532-.448-.964-1-.964h-2ZM21 .2a2.03 2.03 0 0 0-1.568.732 1.872 1.872 0 0 0-.378 1.638.238.238 0 0 1-.054.213l-3.258 3.66c-.062.07-.16.1-.252.077-.16-.04-.325-.06-.49-.058a2.04 2.04 0 0 0-1.417.569.254.254 0 0 1-.256.058l-2.178-.699a.245.245 0 0 1-.169-.192c-.148-1-1.072-1.72-2.117-1.65-1.046.069-1.859.904-1.863 1.914 0 .15.018.3.055.446a.236.236 0 0 1-.084.241l-2.9 2.331a.263.263 0 0 1-.262.036 2.052 2.052 0 0 0-2.332.513 1.87 1.87 0 0 0-.153 2.3c.483.714 1.397 1.038 2.245.795C4.418 12.882 5 12.13 5 11.278c0-.15-.018-.3-.054-.446a.236.236 0 0 1 .083-.241l2.9-2.331a.258.258 0 0 1 .261-.036c.757.321 1.641.16 2.224-.405a.257.257 0 0 1 .257-.058l2.177.697c.089.03.153.104.168.193.133 1.013 1.064 1.75 2.12 1.68 1.058-.07 1.875-.922 1.864-1.943 0-.259-.054-.515-.16-.752a.235.235 0 0 1 .041-.252l3.044-3.421a.256.256 0 0 1 .288-.065c.746.308 1.611.15 2.19-.398.578-.549.755-1.38.447-2.103C22.542.674 21.812.201 21 .201ZM1 23.8h22c.552 0 1-.432 1-.964s-.448-.963-1-.963H1c-.552 0-1 .431-1 .963s.448.963 1 .963Z"/>
</svg>
