<svg viewBox="0 0 24 24" fill="currentColor">
    <path fill-rule="evenodd" d="M21.75 0a2.25 2.25 0 0 0-2.22 2.611l-2.74 2.143a2.25 2.25 0 0 0-2.871.69l-3.42-.915V4.5a2.25 2.25 0 1 0-4.462.406l-3.384 3.38a2.25 2.25 0 1 0 1.336.786L6.824 6.24a2.25 2.25 0 0 0 3.153-.299l3.527.943a2.25 2.25 0 1 0 4.311-1.03l2.45-1.915A2.25 2.25 0 1 0 21.75 0ZM2.542 9.81l.032.014a.75.75 0 1 1-.032-.014ZM21.22 1.72a.75.75 0 1 1 1.06 1.06.75.75 0 0 1-1.06-1.06ZM7.564 4.804l.006.014a.75.75 0 1 0-.006-.014ZM15.75 6a.75.75 0 1 0 0 1.5.75.75 0 0 0 0-1.5Z" clip-rule="evenodd"/>
    <path fill-rule="evenodd" d="M9 22.5V10.25A1.25 1.25 0 0 1 10.25 9H13a1.25 1.25 0 0 1 1.25 1.25V22.5h2.25v-7.75a1.25 1.25 0 0 1 1.248-1.25H20.5a1.25 1.25 0 0 1 1.25 1.25v7.75h.75a.75.75 0 1 1 0 1.499H.75a.75.75 0 0 1 0-1.5h.75v-3.25A1.25 1.25 0 0 1 2.75 18H5.5a1.25 1.25 0 0 1 1.25 1.25v3.25H9Zm1.5 0v-12h2.25v12H10.5Zm9.75 0H18V15h2.25v7.5ZM3 19.5v3h2.25v-3H3Z" clip-rule="evenodd"/>
</svg>
