<svg viewBox="0 0 24 24" fill="currentColor">
    <path fill-rule="evenodd" d="M18.375 16.875a1.125 1.125 0 1 0 0 2.25 1.125 1.125 0 0 0 0-2.25Zm.208 1.437a.378.378 0 0 1-.281.056.376.376 0 1 1 .281-.056Z" clip-rule="evenodd"/>
    <path d="M5.25 17.25a.75.75 0 0 0 0 1.5H9a.75.75 0 0 0 0-1.5H5.25Z"/>
    <path fill-rule="evenodd" d="M6.878.75h10.245a3.75 3.75 0 0 1 3.65 2.894L23.85 16.75a5.249 5.249 0 0 1-5.099 6.5H5.25a5.25 5.25 0 0 1-5.1-6.5L3.228 3.645A3.75 3.75 0 0 1 6.878.75Zm15.523 16.394-.01-.042a3.75 3.75 0 0 0-3.641-2.852H5.25a3.75 3.75 0 0 0-3.64 2.852l-.01.042a3.75 3.75 0 0 0 3.65 4.606h13.5a3.75 3.75 0 0 0 3.655-4.589l-.004-.017ZM19.313 3.986l2.248 9.58a5.25 5.25 0 0 0-2.811-.816H5.25a5.25 5.25 0 0 0-2.811.816l2.248-9.58A2.25 2.25 0 0 1 6.878 2.25h10.245a2.25 2.25 0 0 1 2.19 1.736Z" clip-rule="evenodd"/>
</svg>
