<svg viewBox="0 0 24 24" fill="currentColor">
    <path d="M17.987 10.543v-.789h1.508A.76.76 0 0 0 20.248 9a.76.76 0 0 0-.753-.754h-4.506a.76.76 0 0 0-.754.754.76.76 0 0 0 .754.754h1.508v.789c-3.375.377-5.996 3.24-5.996 6.703 0 3.72 3.032 6.754 6.75 6.754C20.967 24 24 20.966 24 17.246a6.782 6.782 0 0 0-6.013-6.703Zm-.754 11.948a5.244 5.244 0 0 1-5.242-5.245A5.244 5.244 0 0 1 17.233 12a5.244 5.244 0 0 1 5.242 5.246 5.244 5.244 0 0 1-5.242 5.245Z"/>
    <path d="M19.272 17.246h-1.285v-3a.76.76 0 0 0-.754-.755.76.76 0 0 0-.753.755V18a.76.76 0 0 0 .753.754h2.039a.76.76 0 0 0 .754-.754.76.76 0 0 0-.754-.754ZM8.24 15.754H1.884a.38.38 0 0 1-.377-.377V5.246h17.234V6a.76.76 0 0 0 .754.754.76.76 0 0 0 .753-.754V1.869C20.231.84 19.392 0 18.381 0H1.884A1.865 1.865 0 0 0 0 1.869v13.525a1.898 1.898 0 0 0 1.884 1.869h6.373a.76.76 0 0 0 .754-.754c0-.412-.36-.755-.771-.755ZM1.867 1.51h16.48c.205 0 .377.171.377.36v1.885H1.507V1.87c0-.206.155-.36.36-.36Z"/>
</svg>
