<svg viewBox="0 0 24 24" fill="currentColor">
    <path fill-rule="evenodd" d="M11.014 19.833A6.75 6.75 0 0 0 17.25 24 6.758 6.758 0 0 0 24 17.251a6.75 6.75 0 1 0-12.986 2.582ZM12.5 17.25a4.75 4.75 0 1 1 9.5 0 4.75 4.75 0 0 1-9.5 0Z" clip-rule="evenodd"/>
    <path d="M19.25 18.251h-2a1 1 0 0 1-1-1v-2.5a1 1 0 1 1 2 0V16c0 .138.112.25.25.25h.75a1 1 0 1 1 0 2.001Z"/>
    <path fill-rule="evenodd" d="M8.3 18.5a.968.968 0 0 1 .946.722l.004.022A1 1 0 0 1 8.3 20.5H3a3 3 0 0 1-3-3V3a3 3 0 0 1 3-3h18a3 3 0 0 1 3 3v7.049a.983.983 0 0 1-1.59.777l-.022-.018a1 1 0 0 1-.388-.777V5.25a.25.25 0 0 0-.25-.25H2.25a.25.25 0 0 0-.25.251V17.5a1 1 0 0 0 1 1h5.3Zm2.2-17a.966.966 0 0 0-.846.5.969.969 0 0 0-.154.5c.005.178.058.35.154.5a.966.966 0 0 0 1.692 0 .972.972 0 0 0 .154-.5.969.969 0 0 0-.154-.5.966.966 0 0 0-.846-.5ZM6.154 2a.966.966 0 0 1 1.692 0A.97.97 0 0 1 8 2.5a.972.972 0 0 1-.154.5.966.966 0 0 1-1.692 0A.972.972 0 0 1 6 2.5a.969.969 0 0 1 .154-.5ZM3.5 1.5a1 1 0 0 0-.908.591.992.992 0 0 0-.092.409c.005.178.058.35.154.5a.966.966 0 0 0 1.692 0 .972.972 0 0 0 .154-.5.97.97 0 0 0-.154-.5.983.983 0 0 0-.846-.5Z" clip-rule="evenodd"/>
</svg>
