<svg viewBox="0 0 24 24" fill="currentColor">
    <path fill-rule="evenodd" d="M4.516 13.37c.388 0 .703.316.703.704v7.031h4.218v-4.922a2.11 2.11 0 0 1 2.11-2.11h1.406a2.11 2.11 0 0 1 2.11 2.11v4.922h4.218v-7.031a.703.703 0 0 1 1.407 0v7.734a.703.703 0 0 1-.704.703H14.36a.703.703 0 0 1-.703-.703v-5.625a.703.703 0 0 0-.703-.703h-1.406a.703.703 0 0 0-.703.703v5.625a.703.703 0 0 1-.703.703H4.516a.703.703 0 0 1-.704-.703v-7.734c0-.389.315-.703.704-.703Z" clip-rule="evenodd"/>
    <path fill-rule="evenodd" d="M12.25 3.406a.703.703 0 0 0-.497.206L2.2 13.165a.703.703 0 1 1-.994-.995l9.552-9.552a2.11 2.11 0 0 1 2.984 0l9.552 9.552a.703.703 0 0 1-.994.995l-9.553-9.553a.703.703 0 0 0-.497-.206Z" clip-rule="evenodd"/>
</svg>
