<svg viewBox="0 0 24 24" fill="currentColor">
    <path d="M12.025 3.737a7.598 7.598 0 0 0-5.254 2.226 7.62 7.62 0 0 0-2.23 5.259 7.352 7.352 0 0 0 3.742 6.495h7.484a7.339 7.339 0 0 0 3.742-6.505 7.62 7.62 0 0 0-2.233-5.253 7.598 7.598 0 0 0-5.251-2.222Zm-.748 12.74V13.86L9.56 12.08c-.389-.389-.758-.998-.369-1.378a.79.79 0 0 1 1.218.09l1.616 1.629 1.477-1.53c.389-.389.908-.579 1.297-.19.39.39.23.83-.16 1.22l-1.866 1.869v2.688h-1.496ZM8.283 18.466v1a2.25 2.25 0 0 0 2.245 2.247h.5v1.27a1 1 0 0 0 .658.929.678.678 0 0 0 .668 0 .998.998 0 0 0 .669-.93v-1.258h.499a2.244 2.244 0 0 0 2.245-2.249v-.999H8.283v-.01ZM12.025 3.337a.997.997 0 0 0 .998-.999V1A1 1 0 0 0 12.025 0a.997.997 0 0 0-.998 1v1.398a1 1 0 0 0 .998.95v-.01ZM20.925 3.088a.997.997 0 0 0-1.406 0l-.998.999a.998.998 0 1 0 1.377 1.439l.998-1a.998.998 0 0 0 0-1.438h.03ZM5.57 5.436a1 1 0 0 0-.03-1.439l-.999-1a1.03 1.03 0 1 0-1.396 1.52l.997.999a.997.997 0 0 0 1.407 0l.02-.08ZM22.402 10.102h-1.397a.997.997 0 0 0-.997 1 1 1 0 0 0 .997.999h1.397a.997.997 0 0 0 .998-1 1 1 0 0 0-.998-.999ZM1.598 10.232a.997.997 0 0 0-.998 1 1 1 0 0 0 .998.999h1.447a.997.997 0 0 0 .998-1 1 1 0 0 0-.998-.999H1.598Z"/>
</svg>
