<svg viewBox="0 0 24 24" fill="currentColor">
    <path d="m6.893 10.354-2.497 3.202v-2.745a.746.746 0 0 0-.746-.746H1.492V1.522h11.935v4.445a.745.745 0 0 0 1.422 0V.776A.756.756 0 0 0 14.143 0H.746A.756.756 0 0 0 0 .776V10.81a.756.756 0 0 0 .746.746h2.168v4.197a.746.746 0 0 0 .508.706.67.67 0 0 0 .238 0 .716.716 0 0 0 .587-.288l3.8-4.973a.745.745 0 1 0-1.154-.845Z"/>
    <path d="M22.985 7.519H9.588a.756.756 0 0 0-.706.746V18.3a.756.756 0 0 0 .746.746h6.335l3.56 4.655a.757.757 0 0 0 .598.288c.079.015.16.015.238 0a.746.746 0 0 0 .507-.706v-4.237h2.159a.756.756 0 0 0 .746-.746V8.265a.756.756 0 0 0-.786-.746Zm-.746 10.035h-2.158a.746.746 0 0 0-.746.746v2.745l-2.497-3.202a.748.748 0 0 0-.586-.289h-5.968V9.011H22.22l.02 8.543ZM6.107 2.477a2.089 2.089 0 0 0-2.079 2.078V7.54a.746.746 0 1 0 1.492 0v-.507h1.184v.537a.746.746 0 0 0 1.492 0V4.585a2.089 2.089 0 0 0-2.089-2.108ZM5.52 5.54v-.995a.577.577 0 0 1 .587-.567.587.587 0 0 1 .597.587v.995L5.52 5.54Z"/>
    <path d="M13.765 12.69h2.755a7.747 7.747 0 0 1-3.063 2.567.746.746 0 0 0 .627 1.353 9.429 9.429 0 0 0 2.158-1.393 8.952 8.952 0 0 0 2.983 1.661c.073.01.147.01.22 0a.756.756 0 0 0 .715-.527.747.747 0 0 0-.497-.925 7.42 7.42 0 0 1-2.407-1.313 8.85 8.85 0 0 0 .726-.995.796.796 0 0 0 .1-.477h1.74a.746.746 0 0 0 0-1.492h-2.307v-.746a.746.746 0 0 0-1.492 0v.746h-2.258a.746.746 0 0 0 0 1.492v.05Z"/>
</svg>
