<svg viewBox="0 0 24 24" fill="currentColor">
    <g clip-path="url(#a)">
        <path d="M10.497 5.5a.75.75 0 0 0-1.5 0V7a.75.75 0 1 0 1.5 0V5.5ZM8.757 9.5a.75.75 0 1 0-1 1.11 6.32 6.32 0 0 0 8.51 0 .75.75 0 1 0-1-1.11 4.82 4.82 0 0 1-6.51 0ZM14.247 4.75a.75.75 0 0 1 .75.75V7a.75.75 0 0 1-1.5 0V5.5a.75.75 0 0 1 .75-.75ZM10.497 17.5a.75.75 0 0 0 0 1.5h3a.75.75 0 1 0 0-1.5h-3Z"/>
        <path d="M4.497 1a2.25 2.25 0 0 0-2.25 2.25v11.09l-2.05 4.49A2.25 2.25 0 0 0 2.247 22h19.5a2.249 2.249 0 0 0 2.06-3.16l-2.06-4.5V3.25A2.25 2.25 0 0 0 19.498 1h-15Zm15.75 12.75h-16.5V3.25a.75.75 0 0 1 .75-.75h15a.75.75 0 0 1 .75.75v10.5Zm-18.69 5.7 1.92-4.2h17l1.92 4.2a.75.75 0 0 1-.65 1.05h-19.5a.75.75 0 0 1-.69-1.05Z"/>
    </g>
    <defs>
        <clipPath id="a">
            <path d="M0 0h24v24H0z"/>
        </clipPath>
    </defs>
</svg>
