<svg viewBox="0 0 24 24" fill="currentColor">
    <path fill-rule="evenodd" d="M7.5.75A.75.75 0 0 1 8.25 0h7.5a.75.75 0 0 1 .75.75v7.5a.75.75 0 0 1-.75.75h-3v3H18a2.25 2.25 0 0 1 2.25 2.25V15h3a.75.75 0 0 1 .75.75v7.5a.75.75 0 0 1-.75.75h-7.5a.75.75 0 0 1-.75-.75v-7.5a.75.75 0 0 1 .75-.75h3v-.75a.75.75 0 0 0-.75-.75H6a.75.75 0 0 0-.75.75V15h3a.75.75 0 0 1 .75.75v7.5a.75.75 0 0 1-.75.75H.75a.75.75 0 0 1-.75-.75v-7.5A.75.75 0 0 1 .75 15h3v-.75A2.25 2.25 0 0 1 6 12h5.25V9h-3a.75.75 0 0 1-.75-.75V.75ZM15 7.5v-6H9v6h6Zm-13.5 9h6v6h-6v-6Zm15 6v-6h6v6h-6Z" clip-rule="evenodd"/>
</svg>
