<svg viewBox="0 0 24 24" fill="currentColor">
    <path fill-rule="evenodd" d="M3.66 2a2.66 2.66 0 1 0 0 5.32 2.66 2.66 0 0 0 0-5.32Zm-.482 1.496a1.26 1.26 0 1 1 .964 2.328 1.26 1.26 0 0 1-.964-2.328ZM3.66 9.84a2.66 2.66 0 1 0 0 5.318 2.66 2.66 0 0 0 0-5.318Zm-.482 1.496a1.26 1.26 0 1 1 .964 2.329 1.26 1.26 0 0 1-.964-2.33ZM2.642 17.882a2.661 2.661 0 0 1 3.475 3.476 2.66 2.66 0 1 1-3.475-3.476ZM3.66 19.08a1.258 1.258 0 0 0-.891 2.15 1.26 1.26 0 1 0 .891-2.15Z" clip-rule="evenodd"/>
    <path d="M8.233 4.613a.7.7 0 1 0 0 1.4H21.3a.7.7 0 1 0 0-1.4H8.233ZM7.533 13.153a.7.7 0 0 1 .7-.7H21.3a.7.7 0 1 1 0 1.4H8.233a.7.7 0 0 1-.7-.7ZM8.233 20.293a.7.7 0 1 0 0 1.4H21.3a.7.7 0 1 0 0-1.4H8.233Z"/>
</svg>
