<svg viewBox="0 0 24 24" fill="currentColor">
    <path fill-rule="evenodd" d="M0 .75A.75.75 0 0 1 .75 0h9a.75.75 0 0 1 .75.75v9a.75.75 0 0 1-.75.75h-9A.75.75 0 0 1 0 9.75v-9Zm1.5.75V9H9V1.5H1.5ZM0 14.25a.75.75 0 0 1 .75-.75h9a.75.75 0 0 1 .75.75v9a.75.75 0 0 1-.75.75h-9a.75.75 0 0 1-.75-.75v-9Zm1.5.75v7.5H9V15H1.5ZM13.5.75a.75.75 0 0 1 .75-.75h9a.75.75 0 0 1 .75.75v9a.75.75 0 0 1-.75.75h-9a.75.75 0 0 1-.75-.75v-9Zm1.5.75V9h7.5V1.5H15ZM13.5 14.25a.75.75 0 0 1 .75-.75h9a.75.75 0 0 1 .75.75v9a.75.75 0 0 1-.75.75h-9a.75.75 0 0 1-.75-.75v-9ZM15 15v7.5h7.5V15H15Z" clip-rule="evenodd"/>
</svg>
