<svg viewBox="0 0 24 24" fill="currentColor">
    <path fill-rule="evenodd" d="M0 .773a.75.75 0 0 1 .75-.75h9a.75.75 0 0 1 .75.75v8.974a.75.75 0 0 1-.75.75h-9a.75.75 0 0 1-.75-.75V.773ZM0 14.247a.75.75 0 0 1 .75-.75h9a.75.75 0 0 1 .75.75v9a.75.75 0 0 1-.75.75h-9a.75.75 0 0 1-.75-.75v-9ZM13.5.773a.75.75 0 0 1 .75-.75h9a.75.75 0 0 1 .75.75v8.974a.75.75 0 0 1-.75.75h-9a.75.75 0 0 1-.75-.75V.773ZM13.5 14.247a.75.75 0 0 1 .75-.75h9a.75.75 0 0 1 .75.75v9a.75.75 0 0 1-.75.75h-9a.75.75 0 0 1-.75-.75v-9Z" clip-rule="evenodd"/>
</svg>
