<svg viewBox="0 0 24 24" fill="currentColor">
    <g clip-path="url(#a)">
        <path d="M2.196 2.296h.18c3.694.19 6.689 1.049 8.535 2.336a.749.749 0 0 1-.858 1.228C8.466 4.762 5.73 3.994 2.286 3.794a.749.749 0 0 0-.799.649V17.88a.749.749 0 0 0 .69.748c5.61.25 9.773 2.077 10.501 4.383a.748.748 0 0 1-1.387.55v-.1c-.49-1.528-4.103-3.115-9.155-3.335A2.246 2.246 0 0 1 0 18.029V4.553a2.246 2.246 0 0 1 2.196-2.257Z"/>
        <path d="M23.19 8.266a.749.749 0 0 1 .74.65V17.9a2.246 2.246 0 0 1-2.117 2.256c-4.932.22-8.496 1.737-9.105 3.234v.11a.749.749 0 0 1-1.427-.45c.728-2.305 4.901-4.132 10.492-4.382a.749.749 0 0 0 .699-.658V8.985a.749.749 0 0 1 .718-.719ZM3.823 6.749c1.96.22 3.886.668 5.74 1.338a.749.749 0 1 1-.508 1.407 23.65 23.65 0 0 0-5.391-1.258.75.75 0 0 1 .07-1.497l.09.01ZM3.833 10.552c1.955.226 3.878.674 5.73 1.338a.75.75 0 1 1-.508 1.408 24.228 24.228 0 0 0-5.401-1.258.749.749 0 0 1 .07-1.488h.11ZM3.674 14.585h.1c1.976.24 3.92.705 5.79 1.388a.75.75 0 0 1-.5 1.408 24.459 24.459 0 0 0-5.45-1.258.75.75 0 1 1 .07-1.498l-.01-.04Z"/>
        <path d="M11.98 9.764a.749.749 0 0 1 .738.649V23.24a.749.749 0 0 1-1.487.1V10.511a.749.749 0 0 1 .748-.748ZM17.2 0a.749.749 0 0 1 .77.68v1.596a.749.749 0 0 1-1.488.1V.78A.748.748 0 0 1 17.2 0ZM11.87 2.716a.749.749 0 0 1 .998-.07l.08.07 1.028 1.058a.753.753 0 1 1-.998 1.128v-.07L11.87 3.774a.749.749 0 0 1 0-1.058ZM21.473 2.716a.753.753 0 0 1 1.128.998l-.07.08-1.058 1.038a.753.753 0 0 1-1.128-.998l.07-.08 1.058-1.038ZM17.2 11.98a.749.749 0 0 1 .74.649v1.597a.749.749 0 0 1-1.488.1v-1.597a.749.749 0 0 1 .749-.75Z"/>
        <path d="M13.627 7.158a3.744 3.744 0 0 0 1.218 3.993l.12.09v1.518a.749.749 0 0 0 .748.748h3.095a.749.749 0 0 0 .649-.739v-1.517l.16-.13a3.744 3.744 0 1 0-5.93-4.133l-.06.17ZM17.62 6.04a2.246 2.246 0 0 1 .729 4.153l-.09.06a.749.749 0 0 0-.28.589v1.138h-1.497v-1.138a.749.749 0 0 0-.37-.65A2.246 2.246 0 0 1 17.63 6.04h-.01Z"/>
    </g>
    <defs>
        <clipPath id="a">
            <path d="M0 0h24v24H0z"/>
        </clipPath>
    </defs>
</svg>
