<svg viewBox="0 0 24 24" fill="currentColor">
    <path d="M8 15.59h8a3.15 3.15 0 0 0 3.15-3.15V6A3.15 3.15 0 0 0 16 2.83h-.33v-1.1A1.49 1.49 0 0 0 14.2.23H9.94a1.49 1.49 0 0 0-1.49 1.5v1.1H8A3.15 3.15 0 0 0 4.82 6v6.46A3.15 3.15 0 0 0 8 15.59Zm2-13.88h4.27v1.12H9.93L10 1.71ZM6.29 6A1.68 1.68 0 0 1 8 4.3h8A1.68 1.68 0 0 1 17.69 6v6.46A1.68 1.68 0 0 1 16 14.12H8a1.68 1.68 0 0 1-1.68-1.68L6.29 6ZM20.56 17.64a4.1 4.1 0 0 0-1.84-.42H5C1.22 17.38.22 21.09.22 23a.735.735 0 1 0 1.47 0c0-.17 0-4.2 3.35-4.34h13.68a2.64 2.64 0 0 1 1.18.26A4.25 4.25 0 0 1 22.29 23a.73.73 0 0 0 .73.74.74.74 0 0 0 .74-.73 5.72 5.72 0 0 0-3.2-5.37Z"/>
</svg>
