<svg viewBox="0 0 24 24" fill="currentColor">
    <path d="M22 20.08a5.77 5.77 0 0 0-2.24-2.29 3.66 3.66 0 0 0-1.71-.42H5.68c-3.48.16-4.39 3.85-4.39 5.77a.73.73 0 0 0 .73.73H2a.73.73 0 0 0 .73-.73c0-.17 0-4.18 3-4.32h12.36a2 2 0 0 1 1 .24 4.31 4.31 0 0 1 2.16 4 .73.73 0 0 0 .68.78H22a.73.73 0 0 0 .73-.68 5.76 5.76 0 0 0-.73-3.08ZM19.79 4.83l-.9-.29.74-1.41a.81.81 0 0 0 0-.91.83.83 0 0 0-.93-.33l-.64.15.38-.42a1 1 0 0 0 .26-.74.83.83 0 0 0-.7-.64C14.57-.4 7.37 1.85 7 2a2.52 2.52 0 0 0-1.15 1l-.5.86A1.52 1.52 0 0 0 4.08 4a1 1 0 0 0-.45.76c-.29 3.24.06 5.54 1.07 6.7.252.304.58.535.95.67v.8A3.1 3.1 0 0 0 8.75 16h6.13a3.1 3.1 0 0 0 3.1-3.1v-.25c1.39-.93 2.09-3.54 2.64-6.22-.01.03.31-1.35-.83-1.6Zm-3.28 8.1a1.64 1.64 0 0 1-1.64 1.64H8.75a1.64 1.64 0 0 1-1.64-1.64V8.64a17.61 17.61 0 0 0 7.09-1.52 5 5 0 0 0 2.31 1v4.81ZM5.05 5.27l.27.11a.94.94 0 0 0 1-.43l.74-1.26a1.07 1.07 0 0 1 .42-.35c.06 0 5.6-1.75 9-1.76l-.89 1a.88.88 0 0 0-.09.94.85.85 0 0 0 .83.44l1.35-.31-.36.69a1 1 0 0 0-.13.85.88.88 0 0 0 .61.56l1.34.43A21.125 21.125 0 0 1 18 10.35V7.74a1 1 0 0 0-.9-1 3.45 3.45 0 0 1-2-.8.93.93 0 0 0-1.1-.26c-.76.32-4.45 1.86-7.41 1.46 0 0-.9-.13-.94.48v2.66c-.39-.61-.83-1.98-.6-5.01Z"/>
</svg>
