<svg viewBox="0 0 24 24" fill="currentColor">
    <path d="M12 4a11.961 11.961 0 0 0-8.52 3.6A12.054 12.054 0 0 0 0 16.17v2.074a2.253 2.253 0 0 0 2.246 2.246h19.508A2.253 2.253 0 0 0 24 18.245v-2.074C24.05 9.52 18.668 4.051 12 4Zm-.017 12.754h.034A2.25 2.25 0 0 1 14.246 19H9.754a2.25 2.25 0 0 1 2.229-2.246Zm10.525 1.491a.761.761 0 0 1-.754.755h-6c0-1.715-1.166-3.172-2.76-3.617l1.972-5.897a.736.736 0 0 0-.48-.943.736.736 0 0 0-.943.48l-2.092 6.274c-1.8.274-3.188 1.834-3.188 3.703h-6a.761.761 0 0 1-.754-.755v-2.074A10.535 10.535 0 0 1 4.56 8.663 10.389 10.389 0 0 1 12 5.509c5.828.034 10.543 4.817 10.508 10.662v2.074Z"/>
    <path d="M4.869 16.754a1.131 1.131 0 1 0 0-2.263 1.131 1.131 0 0 0 0 2.263ZM6.377 10.754a1.13 1.13 0 1 0 0 2.263 1.12 1.12 0 0 0 1.132-1.131 1.13 1.13 0 0 0-1.132-1.132ZM19.131 16.754a1.131 1.131 0 1 0 0-2.263 1.131 1.131 0 0 0 0 2.263ZM18.754 11.886c0-.6-.48-1.098-1.08-1.115H17.554a1.138 1.138 0 0 0-1.063 1.114 1.13 1.13 0 1 0 2.263 0ZM9.429 7.754c-.018 0-.018 0 0 0h-.12a1.138 1.138 0 0 0-1.063 1.114A1.13 1.13 0 0 0 9.377 10a1.12 1.12 0 0 0 1.131-1.132c0-.6-.497-1.097-1.08-1.114Z"/>
</svg>
