<svg viewBox="0 0 24 24" fill="currentColor">
    <path fill-rule="evenodd" d="M3 17.5h6.25a1 1 0 1 1 0 2H3a3 3 0 0 1-3-3V3a3 3 0 0 1 3-3h15.5a3 3 0 0 1 3 3v6.75a1 1 0 1 1-2 0V7.5A.5.5 0 0 0 19 7H2.5a.5.5 0 0 0-.5.5v9a1 1 0 0 0 1 1Zm8-14a1 1 0 1 0-2 0 1 1 0 0 0 2 0Zm-4-1a1 1 0 1 1 0 2 1 1 0 0 1 0-2Zm-2 1a1 1 0 1 0-2 0 1 1 0 0 0 2 0Z" clip-rule="evenodd"/>
    <path fill-rule="evenodd" d="M21.64 19.948a.25.25 0 0 0 .034.311l2.033 2.033a1 1 0 0 1-1.414 1.415l-2.033-2.034a.251.251 0 0 0-.311-.033 5.5 5.5 0 1 1 1.69-1.692ZM13.5 17a3.5 3.5 0 1 0 7 0 3.5 3.5 0 0 0-7 0Z" clip-rule="evenodd"/>
    <path d="m10.528 9.059-3.41 3.558a.25.25 0 0 1-.361 0l-.535-.558a1 1 0 1 0-1.444 1.383l1.438 1.5a1 1 0 0 0 1.443 0l4.313-4.5a1 1 0 1 0-1.444-1.383Z"/>
</svg>
