<svg viewBox="0 0 24 24" fill="currentColor">
    <path fill-rule="evenodd" d="M2.356 0h19.267a2.369 2.369 0 0 1 2.363 2.361V10.494a.75.75 0 0 1-1.5 0V5.997H1.5v12.625a.87.87 0 0 0 .866.867H6.76a.75.75 0 0 1 0 1.499h-4.4A2.369 2.369 0 0 1 0 18.625V2.353A2.36 2.36 0 0 1 2.353 0h.003Zm-.857 4.497h20.988V2.365a.87.87 0 0 0-.867-.866H2.357a.862.862 0 0 0-.858.858v2.14Z" clip-rule="evenodd"/>
    <path d="M17.643 12.835a.75.75 0 0 1 0 1.06l-2.998 2.998a.75.75 0 0 1-1.06 0l-1.5-1.499a.75.75 0 1 1 1.06-1.06l.97.97 2.468-2.469a.75.75 0 0 1 1.06 0Z"/>
    <path fill-rule="evenodd" d="M12.331 8.749a6.62 6.62 0 0 1 7.714 10.236l3.735 3.735a.75.75 0 1 1-1.06 1.06l-3.735-3.735a6.621 6.621 0 0 1-10.236-2.648 6.62 6.62 0 0 1 3.582-8.648Zm2.533.995a5.121 5.121 0 1 0 0 10.242 5.121 5.121 0 0 0 0-10.242Z" clip-rule="evenodd"/>
</svg>
