<svg viewBox="0 0 24 24" fill="currentColor">
    <path d="m21.874 1 .04.001a2.196 2.196 0 0 1 2.084 2.272v17.454A2.195 2.195 0 0 1 21.875 23H9.947l-.04-.001a2.197 2.197 0 0 1-2.085-2.272v-4.355a.8.8 0 0 1 1.6 0v4.371l-.001.036a.596.596 0 0 0 .55.622H21.85a.597.597 0 0 0 .55-.658V3.22a.595.595 0 0 0-.55-.62H9.972a.597.597 0 0 0-.55.657v4.371a.8.8 0 0 1-1.6 0V3.273A2.195 2.195 0 0 1 9.948 1h11.927Z"/>
    <path d="M5.01 7.795a.8.8 0 0 0-1.131 0L.242 11.431a.797.797 0 0 0 0 1.147l3.637 3.634a.8.8 0 0 0 1.131-1.13l-2.279-2.278h13.375a.8.8 0 1 0 0-1.6H2.73L5.01 8.926a.8.8 0 0 0 0-1.13Z"/>
</svg>
