<svg viewBox="0 0 24 24" fill="currentColor">
    <path fill-rule="evenodd" d="M4.5 7.5a.75.75 0 0 1 .75-.75h13.5a.75.75 0 0 1 0 1.5H5.25a.75.75 0 0 1-.75-.75ZM4.5 12a.75.75 0 0 1 .75-.75h10.5a.75.75 0 0 1 0 1.5H5.25A.75.75 0 0 1 4.5 12Z" clip-rule="evenodd"/>
    <path fill-rule="evenodd" d="M2.25 1.5a.75.75 0 0 0-.75.75v15a.75.75 0 0 0 .75.75h3a.75.75 0 0 1 .75.75v3l4.8-3.6a.75.75 0 0 1 .45-.15h10.5a.75.75 0 0 0 .75-.75v-15a.75.75 0 0 0-.75-.75H2.25ZM.659.659A2.25 2.25 0 0 1 2.25 0h19.5A2.25 2.25 0 0 1 24 2.25v15a2.25 2.25 0 0 1-2.25 2.25H11.5l-5.8 4.35a.75.75 0 0 1-1.2-.6V19.5H2.25A2.25 2.25 0 0 1 0 17.25v-15C0 1.653.237 1.081.659.659Z" clip-rule="evenodd"/>
</svg>
