<svg viewBox="0 0 24 24" fill="currentColor">
    <path d="M8.47 5.532a.75.75 0 0 1 0-1.06l3-3a.75.75 0 0 1 1.06 0l3 3a.75.75 0 0 1-1.06 1.06l-1.72-1.72v7.44h7.44l-1.72-1.72a.75.75 0 0 1 1.06-1.06l3 3a.75.75 0 0 1 0 1.06l-3 3a.75.75 0 1 1-1.06-1.06l1.72-1.72h-7.44v7.44l1.72-1.72a.75.75 0 1 1 1.06 1.06l-3 3a.75.75 0 0 1-1.06 0l-3-3a.75.75 0 1 1 1.06-1.06l1.72 1.72v-7.44H3.81l1.72 1.72a.75.75 0 1 1-1.06 1.06l-3-3a.75.75 0 0 1 0-1.06l3-3a.75.75 0 0 1 1.06 1.06l-1.72 1.72h7.44v-7.44l-1.72 1.72a.75.75 0 0 1-1.06 0Z"/>
</svg>
