<svg viewBox="0 0 24 24" fill="currentColor">
    <path fill-rule="evenodd" d="M7.125 0a.75.75 0 0 0-.75.75V7.5c0 .414.336.75.75.75h4.125v1.5H9.375a.75.75 0 0 0 0 1.5h5.25a.75.75 0 0 0 0-1.5H12.75v-1.5h4.125a.75.75 0 0 0 .75-.75V.75a.75.75 0 0 0-.75-.75h-9.75Zm9 6.75V1.5h-8.25v5.25h8.25ZM0 13.5a.75.75 0 0 1 .75-.75h9.75a.75.75 0 0 1 .75.75v6.75a.75.75 0 0 1-.75.75H6.375v1.5H8.25a.75.75 0 0 1 0 1.5H3a.75.75 0 0 1 0-1.5h1.875V21H.75a.75.75 0 0 1-.75-.75V13.5Zm9.75 6v-5.25H1.5v5.25h8.25ZM12.75 13.5a.75.75 0 0 1 .75-.75h9.75a.75.75 0 0 1 .75.75v6.75a.75.75 0 0 1-.75.75h-4.125v1.5H21a.75.75 0 0 1 0 1.5h-5.25a.75.75 0 0 1 0-1.5h1.875V21H13.5a.75.75 0 0 1-.75-.75V13.5Zm9.75 6h-8.25v-5.25h8.25v5.25Z" clip-rule="evenodd"/>
</svg>
