<svg viewBox="0 0 24 24" fill="currentColor">
    <path d="M16.873 0H7.127a.751.751 0 0 0-.75.747v6.725a.746.746 0 0 0 .75.747h3.868v1.176H9.506a1.001 1.001 0 0 0-1 .996.994.994 0 0 0 1 .996h4.998a1.001 1.001 0 0 0 1-.996.995.995 0 0 0-1-.996h-1.51V8.219h3.879a.751.751 0 0 0 .75-.747V.747a.746.746 0 0 0-.75-.747Zm-1.25 6.257H8.367V1.654h7.256v4.603ZM10.496 12.613H.75a.75.75 0 0 0-.75.747v6.725a.746.746 0 0 0 .75.747h3.878v1.175h-1.49a1.001 1.001 0 0 0-.999.997.994.994 0 0 0 1 .996h4.998a1.001 1.001 0 0 0 1-.996.994.994 0 0 0-1-.997h-1.51v-1.175h3.869a.75.75 0 0 0 .75-.747V13.36a.746.746 0 0 0-.75-.747Zm-1.25 6.256H2v-4.592h7.247v4.592ZM23.24 12.613h-9.746a.75.75 0 0 0-.75.747v6.725a.746.746 0 0 0 .75.747h3.879v1.175h-1.49a1 1 0 0 0-1 .997.994.994 0 0 0 1 .996h4.998a1.001 1.001 0 0 0 1-.996.994.994 0 0 0-1-.997h-1.51v-1.175h3.88a.75.75 0 0 0 .749-.747V13.36a.745.745 0 0 0-.76-.747Zm-1.25 6.256h-7.246v-4.592h7.247v4.592Z"/>
</svg>
