<svg viewBox="0 0 24 24" fill="currentColor">
    <path d="M22 0H2a2 2 0 0 0-2 2v20a2 2 0 0 0 2 2h20a2 2 0 0 0 2-2V2a2 2 0 0 0-2-2Zm0 21.5a.5.5 0 0 1-.5.5h-19a.5.5 0 0 1-.5-.5v-19a.5.5 0 0 1 .5-.5h19a.5.5 0 0 1 .5.5v19Z"/>
    <path d="M18.5 4h-13c-.69 0-1.25.56-1.25 1.25v2.5C4.25 8.44 4.81 9 5.5 9h13c.69 0 1.25-.56 1.25-1.25v-2.5c0-.69-.56-1.25-1.25-1.25ZM10.5 11H5a.75.75 0 0 0-.75.75v.5c0 .414.336.75.75.75h5.5a.75.75 0 0 0 .75-.75v-.5a.75.75 0 0 0-.75-.75ZM10.5 14.5H5a.75.75 0 0 0-.75.75v.5c0 .414.336.75.75.75h5.5a.75.75 0 0 0 .75-.75v-.5a.75.75 0 0 0-.75-.75ZM8.5 18H5a.75.75 0 0 0-.75.75v.5c0 .414.336.75.75.75h3.5a.75.75 0 0 0 .75-.75v-.5A.75.75 0 0 0 8.5 18ZM17 18h-3.5a.75.75 0 0 0-.75.75v.5c0 .414.336.75.75.75H17a.75.75 0 0 0 .75-.75v-.5A.75.75 0 0 0 17 18ZM19 11h-5.5a.75.75 0 0 0-.75.75v.5c0 .414.336.75.75.75H19a.75.75 0 0 0 .75-.75v-.5A.75.75 0 0 0 19 11ZM19 14.5h-5.5a.75.75 0 0 0-.75.75v.5c0 .414.336.75.75.75H19a.75.75 0 0 0 .75-.75v-.5a.75.75 0 0 0-.75-.75Z"/>
</svg>
