<svg viewBox="0 0 24 24" fill="currentColor">
    <path d="M20.25 13.5a.75.75 0 0 0-.75-.75h-6l-.102.007a.75.75 0 0 0 .102 1.493h6l.102-.007a.75.75 0 0 0 .648-.743ZM19.5 15.75a.75.75 0 0 1 .102 1.493l-.102.007h-6a.75.75 0 0 1-.102-1.493l.102-.007h6ZM18 19.5a.75.75 0 0 0-.75-.75H13.5l-.102.007a.75.75 0 0 0 .102 1.493h3.75l.102-.007A.75.75 0 0 0 18 19.5ZM9.75 12.75a.75.75 0 0 1 .102 1.493l-.102.007h-6a.75.75 0 0 1-.102-1.493l.102-.007h6ZM10.5 16.5a.75.75 0 0 0-.75-.75h-6l-.102.007a.75.75 0 0 0 .102 1.493h6l.102-.007a.75.75 0 0 0 .648-.743ZM7.5 18.75a.75.75 0 0 1 .102 1.493l-.102.007H3.75a.75.75 0 0 1-.102-1.493l.102-.007H7.5Z"/>
    <path fill-rule="evenodd" d="M4.5 3h15A1.5 1.5 0 0 1 21 4.5V9a1.5 1.5 0 0 1-1.5 1.5h-15A1.5 1.5 0 0 1 3 9V4.5A1.5 1.5 0 0 1 4.5 3Zm15 1.5h-15V9h15V4.5Z" clip-rule="evenodd"/>
    <path fill-rule="evenodd" d="M2.25 0h19.5A2.25 2.25 0 0 1 24 2.25v19.5A2.25 2.25 0 0 1 21.75 24H2.25A2.25 2.25 0 0 1 0 21.75V2.25A2.25 2.25 0 0 1 2.25 0Zm19.5 1.5H2.25a.75.75 0 0 0-.75.75v19.5c0 .414.336.75.75.75h19.5a.75.75 0 0 0 .75-.75V2.25a.75.75 0 0 0-.75-.75Z" clip-rule="evenodd"/>
</svg>
