<svg viewBox="0 0 24 24" fill="currentColor">
    <path fill-rule="evenodd" d="M20.894 3.856A9.75 9.75 0 0 0 14 1a.75.75 0 0 0-.75.75v9c0 .414.336.75.75.75h9a.75.75 0 0 0 .75-.75 9.75 9.75 0 0 0-2.856-6.894ZM14.75 2.534A8.249 8.249 0 0 1 22.216 10H14.75V2.534Z" clip-rule="evenodd"/>
    <path fill-rule="evenodd" d="M5.333 5.393A9.75 9.75 0 0 1 10.75 3.75a.75.75 0 0 1 .75.75v8.25h8.25a.75.75 0 0 1 .75.75A9.75 9.75 0 1 1 5.333 5.393ZM10 5.284a8.25 8.25 0 1 0 8.966 8.966H10.75a.75.75 0 0 1-.75-.75V5.284Z" clip-rule="evenodd"/>
</svg>
