<svg viewBox="0 0 24 24" fill="currentColor">
    <path fill-rule="evenodd" d="M16.654.127a2.25 2.25 0 0 0-2.644.914l-3.877 6.094a8.271 8.271 0 0 0-5.561 1l.377.649-.38-.647a2.25 2.25 0 0 0-.45 3.533l3.574 3.575L.22 22.718a.75.75 0 0 0 1.06 1.06l7.474-7.473 3.576 3.576a2.25 2.25 0 0 0 3.534-.45l.001-.002a8.271 8.271 0 0 0 1-5.561l6.093-3.878a2.251 2.251 0 0 0 .384-3.488L17.498.659a2.25 2.25 0 0 0-.845-.532ZM5.082 9.664a.75.75 0 0 1 .245-.233 6.772 6.772 0 0 1 4.986-.728.75.75 0 0 0 .808-.327l4.154-6.529a.75.75 0 0 1 1.163-.127l5.843 5.842a.75.75 0 0 1-.128 1.163l-6.529 4.155a.75.75 0 0 0-.327.808 6.771 6.771 0 0 1-.728 4.985.75.75 0 0 1-1.177.15l-8.213-8.214a.75.75 0 0 1-.097-.945Z" clip-rule="evenodd"/>
</svg>
