<svg viewBox="0 0 24 24" fill="currentColor">
    <path d="M3.75 9a.75.75 0 0 0 0 1.5h1.5a.75.75 0 0 0 0-1.5h-1.5ZM7.5 15.75a.75.75 0 0 1 .75-.75h7.5a.75.75 0 0 1 0 1.5h-7.5a.75.75 0 0 1-.75-.75ZM8.25 18a.75.75 0 0 0 0 1.5h5.25a.75.75 0 0 0 0-1.5H8.25Z"/>
    <path fill-rule="evenodd" d="M4.5 6V2.25A2.25 2.25 0 0 1 6.75 0h10.5a2.25 2.25 0 0 1 2.25 2.25V6h2.25A2.25 2.25 0 0 1 24 8.25v7.5A2.25 2.25 0 0 1 21.75 18H19.5v5.25a.75.75 0 0 1-.75.75H5.25a.75.75 0 0 1-.75-.75V18H2.25A2.25 2.25 0 0 1 0 15.75v-7.5A2.25 2.25 0 0 1 2.25 6H4.5Zm1.72-4.28a.75.75 0 0 1 .53-.22h10.5a.75.75 0 0 1 .75.75V6H6V2.25a.75.75 0 0 1 .22-.53ZM2.25 7.5a.75.75 0 0 0-.75.75v7.5a.75.75 0 0 0 .75.75H4.5v-3.75a.75.75 0 0 1 .75-.75h13.5a.75.75 0 0 1 .75.75v3.75h2.25a.75.75 0 0 0 .75-.75v-7.5a.75.75 0 0 0-.75-.75H2.25Zm15.75 6v9H6v-9h12Z" clip-rule="evenodd"/>
</svg>
