<svg viewBox="0 0 24 24" fill="currentColor">
    <path fill-rule="evenodd" d="M4.5 2.25A2.25 2.25 0 0 1 6.75 0h10.5a2.25 2.25 0 0 1 2.25 2.25V6h2.25a2.25 2.25 0 0 1 2.249 2.25v7.5a2.25 2.25 0 0 1-2.25 2.25H19.5v5.25a.75.75 0 0 1-.75.749H5.25a.75.75 0 0 1-.75-.75V18H2.25A2.25 2.25 0 0 1 0 15.75v-7.5A2.25 2.25 0 0 1 2.25 6H4.5V2.25Zm13 11.25h-11V22h11v-8.5Zm0-8V2.25a.25.25 0 0 0-.25-.25H6.75a.25.25 0 0 0-.25.25V5.5h11ZM2.75 9.75a1 1 0 0 1 1-1h1.5a1 1 0 0 1 0 2h-1.5a1 1 0 0 1-1-1Z" clip-rule="evenodd"/>
    <path d="M8.25 14.75a1 1 0 0 0 0 2h7.5a1 1 0 0 0 0-2h-7.5ZM8.25 17.75a1 1 0 1 0 0 2h5.25a1 1 0 0 0 0-2H8.25Z"/>
</svg>
