<svg viewBox="0 0 24 24" fill="currentColor">
    <path d="m15 10.38 2.08-2a.74.74 0 0 0-.4-1.26l-2.85-.44-1.25-2.59a.76.76 0 0 0-.67-.42.77.77 0 0 0-.66.41L10 6.66l-2.9.39a.75.75 0 0 0-.42 1.27l2.05 2-.5 2.84a.74.74 0 0 0 .29.73.75.75 0 0 0 .78.11l2.56-1.33L14.4 14a.731.731 0 0 0 .78-.05.74.74 0 0 0 .3-.72L15 10.38Zm-1.31-.8a.8.8 0 0 0-.22.66l.3 1.76-1.56-.84a.73.73 0 0 0-.35-.09.722.722 0 0 0-.34.09L10 12l.31-1.74a.76.76 0 0 0-.21-.66L8.79 8.32l1.75-.25a.71.71 0 0 0 .56-.4l.8-1.58.77 1.59a.76.76 0 0 0 .56.41l1.77.27-1.31 1.22Z"/>
    <path d="m23.83 17.58-4-4.9a8.518 8.518 0 0 0 .71-3.43A8.681 8.681 0 0 0 4.08 5.333 8.68 8.68 0 0 0 4 12.86L.17 17.58a.73.73 0 0 0-.11.76.73.73 0 0 0 .63.45l3.88.26 1 3.83a.73.73 0 0 0 .59.54h.12a.74.74 0 0 0 .62-.33l3.55-5.31c.466.083.937.127 1.41.13a8.532 8.532 0 0 0 1.61-.16l3.57 5.34a.74.74 0 0 0 .62.33h.12a.76.76 0 0 0 .6-.54l1-3.83 3.88-.26a.73.73 0 0 0 .63-.45.73.73 0 0 0-.06-.76ZM6.6 20.92l-.74-2.77a.74.74 0 0 0-.66-.54l-3-.2 2.6-3.18A8.69 8.69 0 0 0 9 17.4l-2.4 3.52ZM4.7 9.25a7.19 7.19 0 1 1 7.19 7.19A7.2 7.2 0 0 1 4.7 9.25Zm14.1 8.36a.74.74 0 0 0-.66.54l-.74 2.77-2.4-3.59a8.699 8.699 0 0 0 4.08-3.24l2.7 3.32-2.98.2Z"/>
</svg>
