<svg viewBox="0 0 24 24" fill="currentColor">
    <path d="M20 1.25a.75.75 0 0 1 .743.648L20.75 2v7a.75.75 0 0 1-1.493.102L19.25 9V2a.75.75 0 0 1 .75-.75Z"/>
    <path d="M19.47 1.47a.75.75 0 0 1 .976-.073l.084.073 3 3a.75.75 0 0 1-.976 1.133l-.084-.073L20 3.061l-2.47 2.47a.75.75 0 0 1-.976.072l-.084-.073a.75.75 0 0 1-.073-.976l.073-.084 3-3ZM4 22.75a.75.75 0 0 1-.743-.648L3.25 22v-7a.75.75 0 0 1 1.493-.102L4.75 15v7a.75.75 0 0 1-.75.75Z"/>
    <path d="M4.53 22.53a.75.75 0 0 1-.976.073l-.084-.073-3-3a.75.75 0 0 1 .976-1.133l.084.073L4 20.939l2.47-2.47a.75.75 0 0 1 .976-.072l.084.073a.75.75 0 0 1 .073.976l-.073.084-3 3ZM5 11.5A6.5 6.5 0 1 0 11.5 5 6.508 6.508 0 0 0 5 11.5Zm5.592-3.697-.006-.008c.099-.013.17-.1.165-.2v-.35a.75.75 0 0 1 1.5 0v.335a.17.17 0 0 0 .169.165h.581a.75.75 0 0 1 0 1.5h-2.035a.592.592 0 0 0-.219 1.141l2.062.826a2.078 2.078 0 0 1-.417 3.989.184.184 0 0 0-.137.2v.353a.75.75 0 0 1-1.5 0v-.334a.17.17 0 0 0-.164-.166H10a.75.75 0 0 1 0-1.5h2.033a.592.592 0 0 0 .22-1.141l-2.061-.83a2.079 2.079 0 0 1 .4-3.98Z"/>
</svg>
