<svg viewBox="0 0 24 24" fill="currentColor">
    <path d="m23.334 4.067-3-3h-.09l-.12-.06h-.24a.75.75 0 0 0-.21 0h-.06a.749.749 0 0 0-.23.16l-3 3-.07.08a.75.75 0 0 0 .07 1l.08.07a.75.75 0 0 0 1-.07l1.72-1.72v5.17a.75.75 0 0 0 1.37-.1v-5.19l1.72 1.72.08.07a.754.754 0 1 0 1-1.13h-.02ZM7.254 17.997a.75.75 0 0 0-1 .07l-1.7 1.72v-5.29a.75.75 0 0 0-1.49.1v5.19l-1.73-1.72-.08-.07a.754.754 0 1 0-1 1.13l3 3h.09l.12.06h.34c.07.01.14.01.21 0h.06a.75.75 0 0 0 .23-.15l3-3 .07-.08a.75.75 0 0 0-.07-1l-.05.04ZM13.114 11.317l-2.06-.83h-.08a.59.59 0 0 1 .3-1.1h2.13a.75.75 0 0 0-.1-1.49h-.75v-.1a.75.75 0 0 0-1.49.1 2.09 2.09 0 0 0-.56 4l2.07.83h.08a.59.59 0 0 1-.3 1.1h-2.15a.75.75 0 0 0 .1 1.49h.75v.1a.75.75 0 0 0 1.49-.1 2.09 2.09 0 0 0 .56-4h.01Z"/>
    <path d="M11.805 4.847a6.75 6.75 0 1 0 0 13.5 6.75 6.75 0 0 0 0-13.5Zm0 12a5.25 5.25 0 1 1 0-10.5 5.25 5.25 0 0 1 0 10.5Z"/>
</svg>
