<svg viewBox="0 0 24 24" fill="currentColor">
    <path d="M15.954 7.07a.75.75 0 1 0-1.06 1.061l2.404 2.405-2.404 2.405a.75.75 0 0 0 1.06 1.06l2.935-2.935a.75.75 0 0 0 0-1.06L15.954 7.07ZM9.106 7.07a.75.75 0 0 1 0 1.061l-2.404 2.405 2.404 2.405A.75.75 0 0 1 8.046 14L5.11 11.066a.75.75 0 0 1 0-1.06L8.046 7.07a.75.75 0 0 1 1.06 0ZM13.69 7.838a.75.75 0 1 0-1.423-.474l-1.957 5.87a.75.75 0 1 0 1.423.474l1.957-5.87Z"/>
    <path fill-rule="evenodd" d="M.75.003a.75.75 0 0 1 .75.75v1.392l2.184-.672a10.364 10.364 0 0 1 8.477 1.078 8.862 8.862 0 0 0 7.076.974l2.37-.677a1.876 1.876 0 0 1 2.389 1.802v12.87a1.874 1.874 0 0 1-1.36 1.803l-2.987.854a10.367 10.367 0 0 1-8.278-1.138 8.859 8.859 0 0 0-7.25-.922l-2.621.81v4.26a.75.75 0 0 1-1.5 0V.754a.75.75 0 0 1 .75-.75Zm.75 17.353V3.714l2.625-.807a8.864 8.864 0 0 1 7.25.922 10.36 10.36 0 0 0 8.274 1.138l2.368-.677a.378.378 0 0 1 .479.361v12.87a.375.375 0 0 1-.272.36l-2.987.854a8.864 8.864 0 0 1-7.08-.974 10.357 10.357 0 0 0-8.478-1.078l-2.179.673Z" clip-rule="evenodd"/>
</svg>
