<svg viewBox="0 0 24 24" fill="currentColor">
    <path fill-rule="evenodd" d="M3 22.5a1.5 1.5 0 0 1-3 0v-21a1.5 1.5 0 0 1 3 0v.025a.25.25 0 0 0 .335.236l.717-.261a9.779 9.779 0 0 1 8.226 1.067 9.36 9.36 0 0 0 7.45 1.025L21.9 2.9A1.652 1.652 0 0 1 24 4.485v13.159a1.655 1.655 0 0 1-1.2 1.583L20 20.1a10.33 10.33 0 0 1-8.248-1.129A8.766 8.766 0 0 0 4.371 18l-1.206.435A.25.25 0 0 0 3 18.67v3.83ZM15.005 7.297a.75.75 0 0 0 .215.734l2.293 2.293a.252.252 0 0 1 0 .354l-2.293 2.293a.75.75 0 1 0 1.06 1.06l3-3a.75.75 0 0 0 0-1.06l-3-3a.75.75 0 0 0-1.275.326Zm-3.992 6.916a.751.751 0 0 1-.475-.949l2-6a.75.75 0 0 1 1.424.474l-2 6a.751.751 0 0 1-.949.475ZM5 10.501c0 .199.08.39.22.53l3 3a.75.75 0 1 0 1.06-1.06l-2.293-2.293a.252.252 0 0 1 0-.354L9.28 8.031a.75.75 0 0 0-1.06-1.06l-3 3a.749.749 0 0 0-.22.53Z" clip-rule="evenodd"/>
</svg>
