<svg viewBox="0 0 24 24" fill="currentColor">
    <path d="m4.84 22-2.584.037a.25.25 0 0 1-.236-.153.251.251 0 0 1-.02-.097V19.16a1 1 0 1 0-2 0v2.883A1.957 1.957 0 0 0 1.957 24H4.84a1 1 0 0 0 0-2ZM1 5.84a1 1 0 0 0 1-1l-.038-2.584A.251.251 0 0 1 2.212 2H4.84a1 1 0 0 0 0-2H1.956A1.956 1.956 0 0 0 0 1.956V4.84a1 1 0 0 0 1 1ZM22.043 0H19.16a1 1 0 1 0 0 2l2.584-.037a.251.251 0 0 1 .256.25V4.84a1 1 0 0 0 2 0V1.957A1.957 1.957 0 0 0 22.043 0ZM23 18.16a1 1 0 0 0-1 1l.038 2.584a.25.25 0 0 1-.25.256H19.16a1 1 0 0 0 0 2h2.884A1.956 1.956 0 0 0 24 22.044V19.16a1 1 0 0 0-1-1ZM5 4.5h3.5V8H5V4.5ZM15.5 4.5H19V8h-3.5V4.5ZM15.5 16H19v3.5h-3.5V16ZM5 16h3.5v3.5H5V16ZM10.5 8.261a.75.75 0 0 0 .75-.75V6.25A.25.25 0 0 1 11.5 6h1.932a.75.75 0 1 0 0-1.5H10.5a.75.75 0 0 0-.75.75v2.261a.75.75 0 0 0 .75.75ZM13.5 7.131a.75.75 0 0 0-.75.75v3.348a.75.75 0 1 0 1.5 0V7.881a.75.75 0 0 0-.75-.75ZM10.5 14.5a.75.75 0 0 0 .75-.75v-2.413a.75.75 0 1 0-1.5 0v1.413a.25.25 0 0 1-.25.25h-4a.75.75 0 1 0 0 1.5h5ZM13.432 18H11.5a.25.25 0 0 1-.25-.25v-1.413a.75.75 0 1 0-1.5 0v2.413a.75.75 0 0 0 .75.75h2.932a.75.75 0 1 0 0-1.5ZM5.5 11h2a.75.75 0 1 0 0-1.5h-2a.75.75 0 0 0 0 1.5ZM16 11h2.5a.75.75 0 1 0 0-1.5H16a.75.75 0 1 0 0 1.5ZM18.5 13H13a.75.75 0 1 0 0 1.5h5.5a.75.75 0 1 0 0-1.5Z"/>
</svg>
