<svg viewBox="0 0 24 24" fill="currentColor">
    <path fill-rule="evenodd" d="M4.5 5.25a.75.75 0 0 1 .75-.75h3a.75.75 0 0 1 .75.75v3a.75.75 0 0 1-.75.75h-3a.75.75 0 0 1-.75-.75v-3ZM6 6v1.5h1.5V6H6ZM4.5 15.75a.75.75 0 0 1 .75-.75h3a.75.75 0 0 1 .75.75v3a.75.75 0 0 1-.75.75h-3a.75.75 0 0 1-.75-.75v-3Zm1.5.75V18h1.5v-1.5H6ZM15 5.25a.75.75 0 0 1 .75-.75h3a.75.75 0 0 1 .75.75v3a.75.75 0 0 1-.75.75h-3a.75.75 0 0 1-.75-.75v-3Zm1.5.75v1.5H18V6h-1.5ZM4.5 12.75a.75.75 0 0 1 .75-.75h6a.75.75 0 0 1 .75.75v1.5a.75.75 0 0 1-1.5 0v-.75H5.25a.75.75 0 0 1-.75-.75ZM14.25 13.5a.75.75 0 0 1 .75.75V18h3v-3h-.75a.75.75 0 0 1 0-1.5h1.5a.75.75 0 0 1 .75.75v4.5a.75.75 0 0 1-.75.75h-4.5a.75.75 0 0 1-.75-.75v-4.5a.75.75 0 0 1 .75-.75ZM11.25 16.5a.75.75 0 0 1 .75.75v1.5a.75.75 0 0 1-1.5 0v-1.5a.75.75 0 0 1 .75-.75ZM11.25 4.5a.75.75 0 0 1 .75.75V9h.75a.75.75 0 0 1 0 1.5h-1.5a.75.75 0 0 1-.75-.75v-4.5a.75.75 0 0 1 .75-.75ZM15 11.25a.75.75 0 0 1 .75-.75h3a.75.75 0 0 1 0 1.5h-3a.75.75 0 0 1-.75-.75ZM2.25 1.5a.75.75 0 0 0-.75.75V6A.75.75 0 0 1 0 6V2.25A2.25 2.25 0 0 1 2.25 0H6a.75.75 0 0 1 0 1.5H2.25ZM17.25.75A.75.75 0 0 1 18 0h3.75A2.25 2.25 0 0 1 24 2.25V6a.75.75 0 0 1-1.5 0V2.25a.75.75 0 0 0-.75-.75H18a.75.75 0 0 1-.75-.75ZM23.25 17.25A.75.75 0 0 1 24 18v3.75A2.25 2.25 0 0 1 21.75 24H18a.75.75 0 0 1 0-1.5h3.75a.75.75 0 0 0 .75-.75V18a.75.75 0 0 1 .75-.75ZM.75 17.25a.75.75 0 0 1 .75.75v3.75a.75.75 0 0 0 .75.75H6A.75.75 0 0 1 6 24H2.25A2.25 2.25 0 0 1 0 21.75V18a.75.75 0 0 1 .75-.75Z" clip-rule="evenodd"/>
</svg>
