<svg viewBox="0 0 24 24" fill="currentColor">
    <path d="M14.339 3.815a8.834 8.834 0 0 0-11.044 7.02l-.234-.234a1.5 1.5 0 1 0-2.122 2.122l2.617 2.616a1.496 1.496 0 0 0 2.224-.002l2.614-2.614a1.5 1.5 0 0 0-1.905-2.301 5.833 5.833 0 0 1 8.995-2.767 1.5 1.5 0 1 0 1.792-2.406 8.832 8.832 0 0 0-2.937-1.434ZM19.964 9.634a1.495 1.495 0 0 0-1.157-.044 1.495 1.495 0 0 0-.534.345L15.606 12.6a1.5 1.5 0 0 0 1.534 2.485 5.825 5.825 0 0 1-2.986 2.663 5.833 5.833 0 0 1-5.336-.532 1.5 1.5 0 1 0-1.636 2.514 8.833 8.833 0 0 0 13.41-5.355l.347.347a1.5 1.5 0 1 0 2.122-2.122l-2.656-2.655a1.495 1.495 0 0 0-.44-.312Z"/>
</svg>
