<svg viewBox="0 0 24 24" fill="currentColor">
    <path d="M6.11 3.61h13.62a.75.75 0 0 0 0-1.5H6.11a.75.75 0 0 0 0 1.5ZM6.11 9.23h13.62a.75.75 0 0 0 0-1.5H6.11a.75.75 0 0 0 0 1.5ZM8.86 13.29H6.11a.75.75 0 1 0 0 1.5h2.75a.75.75 0 1 0 0-1.5ZM2.73 3.8a.94.94 0 1 0 0-1.88.94.94 0 0 0 0 1.88ZM2.73 9.42a.94.94 0 1 0 0-1.88.94.94 0 0 0 0 1.88ZM2.73 14.98a.94.94 0 1 0 0-1.88.94.94 0 0 0 0 1.88ZM16.92 10.76a6 6 0 1 0 0 12 6 6 0 0 0 0-12Zm0 10.57a4.54 4.54 0 1 1 0-9.08 4.54 4.54 0 0 1 0 9.08Z"/>
    <path d="M18.9 16h-4a.75.75 0 0 0 0 1.5h4a.75.75 0 1 0 0-1.5Z"/>
</svg>
