<svg viewBox="0 0 24 24" fill="currentColor">
    <g clip-path="url(#a)">
        <path fill-rule="evenodd" d="M22.366 6.581A4.32 4.32 0 0 1 23.92 8.81l.02-.03a1.25 1.25 0 1 1-2.39.7 1.81 1.81 0 1 0-2.2 2.26 1.25 1.25 0 0 1-.31 2.46 1.174 1.174 0 0 1-.32 0 4.31 4.31 0 0 1-3.21-4.17 4.188 4.188 0 0 1 .45-1.9l-2.24-2.26a3 3 0 0 1-2.33-.27L6.52 9.45a3.25 3.25 0 0 1 0 1.55L10 14.52A4.54 4.54 0 0 0 8.39 18v.43l-4.76-4.89a3.29 3.29 0 0 1-1.84-6.19A3.2 3.2 0 0 1 3.72 7L10 2.17A3 3 0 0 1 11.46.34a3 3 0 0 1 4.28 3.44L18 6.1a4.19 4.19 0 0 1 1.79-.38 4.32 4.32 0 0 1 2.576.861ZM2.73 11.128c.171.117.373.18.58.182a1 1 0 0 0 1.06-1.05 1.05 1.05 0 1 0-1.64.868Zm9.523-7.248c.174.127.382.2.598.21A1.09 1.09 0 0 0 14 3a1.1 1.1 0 1 0-1.748.88ZM16 20.44h.65a1.5 1.5 0 0 1 1.5 1.5v1.56a.5.5 0 0 1-.5.5H8.22a.5.5 0 0 1-.5-.5v-1.56a1.5 1.5 0 0 1 1.5-1.5h.64v-2.37a3.07 3.07 0 0 1 6.14 0v2.37Zm-3.654-1.694c.168.193.4.319.654.354v.01A1.06 1.06 0 1 0 13 17a1.06 1.06 0 0 0-.654 1.746Z" clip-rule="evenodd"/>
    </g>
    <defs>
        <clipPath id="a">
            <path d="M0 0h24v24H0z"/>
        </clipPath>
    </defs>
</svg>
