<svg viewBox="0 0 24 24" fill="currentColor">
    <g clip-path="url(#a)">
        <path fill-rule="evenodd" d="M10.974 2.052a1.75 1.75 0 0 1 2.555 2.392.76.76 0 0 0-.114.11 1.743 1.743 0 0 1-1.901.284 1.75 1.75 0 0 1-.54-2.786Zm4.525 1.198c0 .638-.184 1.233-.502 1.735l1.363 1.393A2.75 2.75 0 0 1 20.2 7.5 3.75 3.75 0 0 1 24 11.251a.75.75 0 0 1-1.5-.002 2.25 2.25 0 0 0-2.013-2.239 2.75 2.75 0 0 1-2.476 2.478 2.254 2.254 0 0 0 1.282 1.799c.299.14.625.213.956.213a.75.75 0 0 1 0 1.5 3.75 3.75 0 0 1-3.75-3.8 2.75 2.75 0 0 1-1.179-3.74l-1.395-1.426a3.256 3.256 0 0 1-2.485.364l-4.906 4.778 4.444 3.295A3.75 3.75 0 0 1 16 18v4.501h7a.75.75 0 0 1 0 1.5H1a.75.75 0 0 1 0-1.5h7.5v-3.24l-6.07-4.364a3.251 3.251 0 0 1-1.026-5.82l8.439-8.012a3.25 3.25 0 0 1 5.656 2.185ZM10 18.892V18a2.25 2.25 0 0 1 1.164-1.97.75.75 0 0 0 .12-.063A2.249 2.249 0 0 1 14.5 18v4.501H10v-3.61Zm-.383-3.563a3.75 3.75 0 0 0-1.076 2.114l-3.857-2.774a3.26 3.26 0 0 0 1.619-1.797l3.314 2.457Zm7.858-5.358-.012-.003a1.25 1.25 0 0 1-.648-2.046l.003-.004a1.246 1.246 0 0 1 .931-.417 1.25 1.25 0 1 1-.274 2.47ZM9.059 3.877l-4.982 4.73A3.253 3.253 0 0 1 5.83 9.771l4.23-4.12a3.245 3.245 0 0 1-1-1.774Zm-6.72 6.38-.532.505a1.75 1.75 0 0 0 1.019 2.687.754.754 0 0 1 .13.027 1.75 1.75 0 1 0-.618-3.22Z" clip-rule="evenodd"/>
    </g>
    <defs>
        <clipPath id="a">
            <path d="M0 0h24v24H0z"/>
        </clipPath>
    </defs>
</svg>
