<svg viewBox="0 0 24 24" fill="currentColor">
    <path fill-rule="evenodd" d="M22 0H5.914c-.53-.001-1.04.21-1.414.587L.586 4.5A2.009 2.009 0 0 0 0 5.915V22a2 2 0 0 0 2 2h20a2 2 0 0 0 2-2V2a2 2 0 0 0-2-2Zm-3.5 2a.5.5 0 0 1 .5.5v4A1.5 1.5 0 0 1 17.5 8h-10A1.5 1.5 0 0 1 6 6.5v-4a.5.5 0 0 1 .5-.5h12Zm-14 19.5a.5.5 0 0 0 .5.5h15a.5.5 0 0 0 .5-.5v-8A1.5 1.5 0 0 0 19 12H6a1.5 1.5 0 0 0-1.5 1.5v8Z" clip-rule="evenodd"/>
    <path d="M15 4.251v1.5a.75.75 0 0 0 1.5 0v-1.5a.75.75 0 0 0-1.5 0ZM7 16.251h6.5a.75.75 0 0 0 0-1.5H7a.75.75 0 0 0 0 1.5ZM7 20.251h11a.75.75 0 0 0 0-1.5H7a.75.75 0 0 0 0 1.5Z"/>
</svg>
