<svg viewBox="0 0 24 24" fill="currentColor">
    <path d="M2.251 3.743h8.754a1 1 0 1 0 0-2H1.58c-.85-.02-1.557.65-1.581 1.5v3c.024.849.73 1.52 1.58 1.5h9.425a1 1 0 1 0 0-2H2.25a.25.25 0 0 1-.25-.25v-1.5a.25.25 0 0 1 .25-.25Z"/>
    <path fill-rule="evenodd" d="M21.378 6.94a.249.249 0 0 0 .043.3l2.298 2.299a1 1 0 0 1-1.414 1.414l-2.296-2.3a.251.251 0 0 0-.3-.042 4.185 4.185 0 0 1-5.354-1.162 4.18 4.18 0 0 1 .387-5.462 4.186 4.186 0 0 1 5.464-.396 4.18 4.18 0 0 1 1.172 5.348Zm-5.685-1.163a2.18 2.18 0 1 0 4.029-1.67 2.18 2.18 0 0 0-4.03 1.67Z" clip-rule="evenodd"/>
    <path d="M3.001 16.74a1.5 1.5 0 1 1-3 0 1.5 1.5 0 0 1 3 0ZM3.001 21.74a1.5 1.5 0 1 1-3 0 1.5 1.5 0 0 1 3 0ZM14.506 15.741H5.002a1 1 0 1 0 0 2h9.504a1 1 0 1 0 0-2ZM3.001 11.742a1.5 1.5 0 1 1-3-.001 1.5 1.5 0 0 1 3 0ZM14.506 10.742H5.002a1 1 0 1 0 0 2h9.504a1 1 0 1 0 0-2ZM14.506 20.74H5.002a1 1 0 1 0 0 2h9.504a1 1 0 1 0 0-2Z"/>
</svg>
