<svg viewBox="0 0 24 24" fill="currentColor">
    <g fill-rule="evenodd" clip-path="url(#a)" clip-rule="evenodd">
        <path d="M18.821 2.274a2.4 2.4 0 1 0 0 4.8 2.4 2.4 0 0 0 0-4.8Zm-3.916 2.4a3.916 3.916 0 1 1 7.832 0 3.916 3.916 0 0 1-7.832 0Z"/>
        <path d="M20.518 6.37a.758.758 0 0 1 1.072 0l2.188 2.189a.758.758 0 1 1-1.072 1.072l-2.188-2.19a.758.758 0 0 1 0-1.071ZM2.274 3.537a.758.758 0 0 0-.758.758V5.81c0 .418.34.757.758.757h10.61a.758.758 0 1 1 0 1.516H2.274A2.274 2.274 0 0 1 0 5.811V4.295A2.274 2.274 0 0 1 2.274 2.02h10.61a.758.758 0 1 1 0 1.516H2.274ZM1.516 11.495a1.137 1.137 0 1 1 2.273 0 1.137 1.137 0 0 1-2.273 0ZM5.305 11.874c0-.419.34-.758.758-.758H18.19a.758.758 0 1 1 0 1.516H6.062a.758.758 0 0 1-.758-.758ZM1.516 16.8a1.137 1.137 0 1 1 2.273 0 1.137 1.137 0 0 1-2.273 0ZM5.305 17.179c0-.419.34-.758.758-.758H18.19a.758.758 0 1 1 0 1.516H6.062a.758.758 0 0 1-.758-.758ZM1.516 22.105a1.137 1.137 0 1 1 2.274 0 1.137 1.137 0 0 1-2.274 0ZM5.305 22.484c0-.418.34-.758.758-.758H18.19a.758.758 0 0 1 0 1.516H6.062a.758.758 0 0 1-.758-.758Z"/>
    </g>
    <defs>
        <clipPath id="a">
            <path d="M0 0h24v24H0z"/>
        </clipPath>
    </defs>
</svg>
