<svg viewBox="0 0 24 24" fill="currentColor">
    <path d="M13.509 9H12a.761.761 0 0 0-.754.754c0 .412.343.755.754.755h1.509a.761.761 0 0 0 .754-.755.761.761 0 0 0-.754-.754ZM20.246 9.754A.76.76 0 0 0 19.49 9h-3a.761.761 0 0 0-.754.754c0 .412.343.755.754.755h3c.429-.018.755-.343.755-.755ZM5.623 8.623c-.617 0-1.132.497-1.132 1.114 0 .617.498 1.132 1.115 1.132a1.13 1.13 0 0 0 1.131-1.132c.017-.6-.497-1.114-1.114-1.114ZM13.509 18H12a.761.761 0 0 0-.754.754c0 .412.343.755.754.755h1.509a.761.761 0 0 0 .754-.755.761.761 0 0 0-.754-.754ZM19.509 18H16.49a.761.761 0 0 0-.754.754c0 .412.343.755.754.755h3a.761.761 0 0 0 .755-.755.746.746 0 0 0-.737-.754Z"/>
    <path d="M21.446 14.246A5.235 5.235 0 0 0 24 9.754a5.04 5.04 0 0 0-.497-2.211v-.017l-2.52-5.366A3.742 3.742 0 0 0 17.589 0H6.41a3.76 3.76 0 0 0-3.394 2.16L.497 7.526v.017A5.04 5.04 0 0 0 0 9.754a5.235 5.235 0 0 0 2.554 4.492C1.03 15.17 0 16.834 0 18.754A5.246 5.246 0 0 0 5.246 24h13.508A5.246 5.246 0 0 0 24 18.754c0-1.92-1.029-3.583-2.554-4.508ZM4.37 2.794a2.27 2.27 0 0 1 2.04-1.303h11.195a2.27 2.27 0 0 1 2.04 1.303l.96 2.04a5.357 5.357 0 0 0-1.835-.325H5.246c-.652 0-1.269.12-1.835.325l.96-2.04ZM1.51 9.754C1.509 7.68 3.189 6 5.246 6h13.508a3.753 3.753 0 0 1 3.755 3.754 3.753 3.753 0 0 1-3.755 3.755H5.246c-2.057 0-3.737-1.698-3.737-3.755Zm17.245 12.737H5.246a3.753 3.753 0 0 1-3.755-3.754 3.753 3.753 0 0 1 3.755-3.754h13.508a3.753 3.753 0 0 1 3.755 3.754 3.764 3.764 0 0 1-3.755 3.754Z"/>
    <path d="M5.623 17.623c-.617 0-1.132.497-1.132 1.114 0 .309.12.583.326.789a1.13 1.13 0 0 0 1.92-.806c.017-.583-.497-1.097-1.114-1.097Z"/>
</svg>
