<svg viewBox="0 0 24 24" fill="currentColor">
    <path d="M10.66 16.6H6.77a.08.08 0 0 1-.08-.07l-.44-2.36h5.33a.75.75 0 1 0 0-1.5H5.95L4.68 5.94h15.07v.08l-1.17 3.93a.75.75 0 0 0 .5.93c.07.01.14.01.21 0a.75.75 0 0 0 .72-.54l1.24-3.89a1.58 1.58 0 0 0-1.52-2H4.4l-.61-3.2A1.53 1.53 0 0 0 2.29 0H.75a.75.75 0 1 0 0 1.5h1.57l2.9 15.24a1.59 1.59 0 0 0 1.56 1.29h3.88a.75.75 0 0 0 .53-1.28c-.14-.141-.331-.15-.53-.15ZM7.58 21.12a1.22 1.22 0 1 0 0-2.44 1.22 1.22 0 0 0 0 2.44Z"/>
    <path d="M17.87 11.12a6 6 0 1 0 0 12 6 6 0 0 0 0-12Zm0 10.57a4.54 4.54 0 1 1 4.54-4.54 4.54 4.54 0 0 1-4.54 4.55v-.01Z"/>
    <path d="M19.85 16.41h-4a.75.75 0 1 0 0 1.5h4a.75.75 0 1 0 0-1.5Z"/>
</svg>
