<svg viewBox="0 0 24 24" fill="currentColor">
    <path d="M23.44 6.39a1.63 1.63 0 0 0-1.32-.68H5.63l-.67-3.42A1.58 1.58 0 0 0 3.37 1H1.75a.75.75 0 0 0 0 1.5h1.62a.08.08 0 0 1 .08.07L6.6 18.92a1.65 1.65 0 0 0 1.62 1.34h10.56a.75.75 0 1 0 0-1.5H8.22a.15.15 0 0 1-.14-.12l-.48-2.55h11.13a3.27 3.27 0 0 0 3.15-2.32l1.82-5.92a1.631 1.631 0 0 0-.26-1.46Zm-3 6.93a1.78 1.78 0 0 1-1.71 1.26H7.3L5.91 7.27h16.21a.14.14 0 0 1 .12.06.14.14 0 0 1 0 .12l-1.8 5.87ZM18.3 23.54a1.31 1.31 0 1 0-.825-2.488 1.31 1.31 0 0 0 .825 2.487ZM9.08 23.6a1.31 1.31 0 1 0 0-2.62 1.31 1.31 0 0 0 0 2.62Z"/>
</svg>
