<svg viewBox="0 0 24 24" fill="currentColor">
    <g clip-path="url(#a)">
        <path d="M18 11.67a6 6 0 1 0 0 12 6 6 0 0 0 0-12Zm2 6.76h-1.19v1.36a.75.75 0 1 1-1.5 0v-1.37H16a.75.75 0 1 1 0-1.5h1.29v-1.33a.75.75 0 1 1 1.5 0v1.33H20a.75.75 0 1 1 0 1.5v.01ZM8.12 22.62a1.76 1.76 0 1 0 0-3.52 1.76 1.76 0 0 0 0 3.52Z"/>
        <path d="M19.76 10.95h.09a1 1 0 0 0 1-.72l1-3.32A1.84 1.84 0 0 0 20 4.56H4.88l-.57-3A1.78 1.78 0 0 0 2.59.15H1.05a1 1 0 0 0 0 2h1.36l2.86 15.06a1.84 1.84 0 0 0 1.8 1.49h3a1 1 0 1 0 0-2H7.21l-.36-1.88h4a1 1 0 0 0 .83-.48 7.69 7.69 0 0 1 8.08-3.39Z"/>
    </g>
    <defs>
        <clipPath id="a">
            <path d="M0 0h24v24H0z"/>
        </clipPath>
    </defs>
</svg>
