<svg viewBox="0 0 24 24" fill="currentColor">
    <path d="M10.61 17H6.82a.08.08 0 0 1-.08-.07l-.44-2.36h5.33a.75.75 0 1 0 0-1.5H6L4.73 6.34H19.8v.08l-1.17 3.93a.75.75 0 0 0 .5.93c.07.01.14.01.21 0a.75.75 0 0 0 .72-.54l1.24-3.89a1.58 1.58 0 0 0-1.52-2H4.45l-.61-3.2A1.53 1.53 0 0 0 2.34.4H.8a.75.75 0 1 0 0 1.5h1.57l2.9 15.24a1.59 1.59 0 0 0 1.56 1.29h3.79a.75.75 0 0 0 .53-1.28c-.14-.141-.341-.15-.54-.15ZM7.63 21.52a1.22 1.22 0 1 0 0-2.44 1.22 1.22 0 0 0 0 2.44Z"/>
    <path d="M17.92 11.52a6 6 0 1 0 0 12 6 6 0 0 0 0-12Zm0 10.57a4.54 4.54 0 1 1 4.54-4.54 4.54 4.54 0 0 1-4.54 4.55v-.01Z"/>
    <path d="M19.93 16.8h-1.24v-1.34a.75.75 0 1 0-1.5 0v1.34h-1.28a.75.75 0 1 0 0 1.5h1.29v1.36a.75.75 0 1 0 1.5 0V18.3h1.23a.75.75 0 1 0 0-1.5Z"/>
</svg>
