<svg viewBox="0 0 24 24" fill="currentColor">
    <path d="m1.337 7.074 10.63 6.01a.54.54 0 0 0 .55 0l10.64-6.01a.551.551 0 0 0 0-1.002L12.217.071a.57.57 0 0 0-.551 0L1.356 6.082a.561.561 0 0 0-.02.992Z"/>
    <path d="m23.097 11.462-2.144-1.182a.58.58 0 0 0-.571 0l-7.835 4.338a.601.601 0 0 1-.58 0l-7.765-4.459a.551.551 0 0 0-.581 0l-2.254 1.293a.59.59 0 0 0 0 1.002l10.57 6.01a.58.58 0 0 0 .57 0l10.59-6.01a.582.582 0 0 0 0-.992Z"/>
    <path d="m23.007 16.912-2.144-1.182a.611.611 0 0 0-.561 0l-7.845 4.348a.582.582 0 0 1-.57 0L4.081 15.61a.601.601 0 0 0-.581 0l-2.214 1.302a.58.58 0 0 0 0 1.002l10.57 6.011a.58.58 0 0 0 .57 0l10.59-6.011a.58.58 0 0 0-.01-1.002Z"/>
</svg>
