<svg viewBox="0 0 24 24" fill="currentColor">
    <path d="M12.825 14.11h-1.32a2.008 2.008 0 0 1-.198-.868c0-.986.73-1.676 1.577-2.425.986-.927 1.538-1.46 1.538-2.425 0-1.184-.867-1.992-1.932-1.992-1.005 0-1.814.631-2.208 1.893L9 7.761C9.513 6.006 10.794 5 12.53 5 14.442 5 16 6.36 16 8.293c0 1.321-.769 2.208-1.873 3.194-.868.79-1.4 1.282-1.4 1.992 0 .203.043.391.08.552l.018.079ZM13.515 17.206c0 .73-.571 1.242-1.261 1.242-.651 0-1.243-.513-1.243-1.242 0-.73.592-1.243 1.243-1.243.69 0 1.261.513 1.261 1.243Z"/>
    <path fill-rule="evenodd" d="M0 12C0 5.383 5.383 0 12 0s12 5.383 12 12-5.383 12-12 12S0 18.617 0 12Zm1.509 0c0 5.777 4.697 10.491 10.491 10.491S22.491 17.777 22.491 12c0-5.777-4.697-10.491-10.491-10.491S1.509 6.223 1.509 12Z" clip-rule="evenodd"/>
</svg>
