<svg viewBox="0 0 24 24" fill="currentColor">
    <path fill-rule="evenodd" d="M12 1.5a7.5 7.5 0 0 0-7.462 6.75A1.5 1.5 0 0 1 6 9.75v7.5a1.5 1.5 0 0 1-1.5 1.5h-.75A3.75 3.75 0 0 1 0 15v-3a3.75 3.75 0 0 1 3.026-3.68 9 9 0 0 1 17.948 0A3.75 3.75 0 0 1 24 12v3a3.75 3.75 0 0 1-3 3.674v.076a3.75 3.75 0 0 1-3.75 3.75h-1.629A2.25 2.25 0 0 1 13.5 24H12a2.25 2.25 0 0 1 0-4.5h1.5a2.25 2.25 0 0 1 2.121 1.5h1.629a2.25 2.25 0 0 0 2.25-2.25 1.5 1.5 0 0 1-1.5-1.5v-7.5a1.5 1.5 0 0 1 1.462-1.5A7.5 7.5 0 0 0 12 1.5Zm2.03 19.72a.75.75 0 0 1-.53 1.28H12a.75.75 0 1 1 0-1.5h1.5a.75.75 0 0 1 .53.22Zm6.22-3.97A2.25 2.25 0 0 0 22.5 15v-3a2.25 2.25 0 0 0-2.25-2.25h-.75v7.5h.75ZM2.159 10.409A2.25 2.25 0 0 1 3.75 9.75h.75v7.5h-.75A2.25 2.25 0 0 1 1.5 15v-3c0-.597.237-1.169.659-1.591Z" clip-rule="evenodd"/>
    <path d="M9.505 14.888a.75.75 0 1 0-1.01 1.108 5.204 5.204 0 0 0 7.01 0 .75.75 0 0 0-1.01-1.108 3.704 3.704 0 0 1-4.99 0ZM9 9.235a.75.75 0 0 1 .75.75v1.312a.75.75 0 0 1-1.5 0V9.985a.75.75 0 0 1 .75-.75ZM15.75 9.985a.75.75 0 0 0-1.5 0v1.312a.75.75 0 0 0 1.5 0V9.985Z"/>
</svg>
