<svg viewBox="0 0 24 24" fill="currentColor">
    <path d="M11.101.045a9.097 9.097 0 0 1 9.943 8.085A4.01 4.01 0 0 1 24 12v2.905a4.01 4.01 0 0 1-2.912 3.857 4.01 4.01 0 0 1-4.004 3.785H15.76A2.558 2.558 0 0 1 13.453 24H12a2.558 2.558 0 0 1 0-5.116h1.453a2.558 2.558 0 0 1 2.306 1.453h1.325a1.8 1.8 0 0 0 1.77-1.468 1.831 1.831 0 0 1-1.422-1.785V9.821a1.831 1.831 0 0 1 1.372-1.773 6.885 6.885 0 0 0-13.608 0A1.831 1.831 0 0 1 6.568 9.82v7.263a1.831 1.831 0 0 1-1.831 1.832H4.01A4.01 4.01 0 0 1 0 14.906V12a4.01 4.01 0 0 1 2.957-3.87A9.095 9.095 0 0 1 11.1.045Z"/>
    <path d="M13.8 10.049a1.105 1.105 0 0 1 2.21 0v1.27a1.105 1.105 0 1 1-2.21 0v-1.27ZM8.278 14.589a1.105 1.105 0 0 1 1.561-.073 3.208 3.208 0 0 0 4.322 0 1.105 1.105 0 1 1 1.489 1.634 5.419 5.419 0 0 1-7.3 0 1.105 1.105 0 0 1-.072-1.561ZM9.095 8.943c-.61 0-1.106.495-1.106 1.106v1.27a1.105 1.105 0 0 0 2.211 0v-1.27c0-.61-.495-1.106-1.105-1.106Z"/>
</svg>
