<svg viewBox="0 0 24 25" fill="currentColor">
    <path fill-rule="evenodd" d="M17.84 3.85a2.31 2.31 0 1 1 0 4.619 2.31 2.31 0 0 1 0-4.62Zm.295 1.598a.77.77 0 1 0-.59 1.424.77.77 0 0 0 .59-1.424Z" clip-rule="evenodd"/>
    <path fill-rule="evenodd" d="M21.69 0A2.31 2.31 0 0 1 24 2.31v6.423c0 1.021-.405 2-1.127 2.722l-11.869 11.87a2.31 2.31 0 0 1-3.266 0L.676 16.262a2.31 2.31 0 0 1 0-3.267l11.87-11.868A3.85 3.85 0 0 1 15.265 0h6.424Zm.545 1.765a.77.77 0 0 0-.545-.225h-6.423c-.613 0-1.2.243-1.633.676L1.765 14.084a.77.77 0 0 0 0 1.089l7.062 7.063a.77.77 0 0 0 1.089 0l11.868-11.87a2.31 2.31 0 0 0 .676-1.633V2.31a.77.77 0 0 0-.225-.545Z" clip-rule="evenodd"/>
</svg>
