<svg viewBox="0 0 24 24" fill="currentColor">
    <path d="M22.962 3.811a.5.5 0 0 0-.462-.308h-2.75a.249.249 0 0 1-.25-.25V.5a.5.5 0 0 0-.853-.354l-2.414 2.416a2.487 2.487 0 0 0-.733 1.77v1.685a.25.25 0 0 1-.117.212.488.488 0 0 0-.09.069l-5 5.004a1.001 1.001 0 1 0 1.414 1.415l5-5.004a.46.46 0 0 0 .07-.09.253.253 0 0 1 .212-.117h1.683c.664.002 1.3-.262 1.768-.734l2.414-2.416a.5.5 0 0 0 .108-.545Z"/>
    <path d="M11 8.006a1 1 0 0 0 0-2.001c-3.313 0-6 2.688-6 6.005a6.002 6.002 0 0 0 6 6.005c3.314 0 6-2.689 6-6.005a1 1 0 1 0-2 0 4.002 4.002 0 0 1-4 4.003c-2.209 0-4-1.792-4-4.003 0-2.211 1.791-4.004 4-4.004Z"/>
    <path d="M21 12.01a1 1 0 1 0-2 0c0 4.422-3.582 8.006-8 8.006s-8-3.584-8-8.006c0-4.422 3.582-8.007 8-8.007a1 1 0 0 0 0-2.001 9.99 9.99 0 0 0-9.214 6.11A10.006 10.006 0 0 0 3.84 18.984a.25.25 0 0 1 .01.338l-2.608 3.047A1.001 1.001 0 0 0 2.76 23.67l2.662-3.107a.249.249 0 0 1 .32-.05 9.932 9.932 0 0 0 10.514 0 .25.25 0 0 1 .322.05l2.662 3.107a1 1 0 0 0 1.519-1.3L18.15 19.32a.25.25 0 0 1 .01-.337A9.974 9.974 0 0 0 21 12.01Z"/>
</svg>
