<svg viewBox="0 0 24 24" fill="currentColor">
    <path fill-rule="evenodd" d="M19.824.61a.753.753 0 0 0-.52-.576.765.765 0 0 0-.757.181l-3.286 3.192a.747.747 0 0 0-.218.423l-.537 3.506-4.04 3.993a.744.744 0 0 0 0 1.06.765.765 0 0 0 1.074 0l4.039-3.992 3.547-.532a.762.762 0 0 0 .427-.215l3.23-3.248a.744.744 0 0 0 .182-.75.756.756 0 0 0-.581-.513l-2.149-.406-.411-2.124Zm-3.701 6.188.382-2.496L18.6 2.267l.241 1.248a.754.754 0 0 0 .603.596l1.263.238-2.059 2.07-2.525.379Z" clip-rule="evenodd"/>
    <path d="M12.543 3.046a9.19 9.19 0 0 0-5.544 1.2A9.033 9.033 0 0 0 3.25 8.46a8.904 8.904 0 0 0-.494 5.59 8.984 8.984 0 0 0 3.86 5.468l.01.002.008.002c.166.041.305.133.405.255a9.187 9.187 0 0 0 9.424-.156 9.025 9.025 0 0 0 3.626-4.316 8.903 8.903 0 0 0 .335-5.6.75.75 0 0 1 .54-.917.76.76 0 0 1 .927.534c.578 2.163.44 4.453-.39 6.534a10.516 10.516 0 0 1-3.593 4.607l.659 2.605a.75.75 0 0 1-.552.91.76.76 0 0 1-.92-.546l-.54-2.134a10.726 10.726 0 0 1-9.62.125l-.508 2.009a.76.76 0 0 1-.92.545.75.75 0 0 1-.552-.91l.617-2.436a10.48 10.48 0 0 1-4.294-6.24 10.388 10.388 0 0 1 .577-6.52 10.539 10.539 0 0 1 4.372-4.917 10.723 10.723 0 0 1 6.469-1.4c.416.042.72.41.678.822a.757.757 0 0 1-.832.67Z"/>
    <path d="M11.617 7.5c.419 0 .758-.336.758-.75 0-.415-.34-.75-.76-.75a6.119 6.119 0 0 0-3.523 1.117 6.007 6.007 0 0 0-2.213 2.931 5.935 5.935 0 0 0-.08 3.657 6 6 0 0 0 2.082 3.024 6.123 6.123 0 0 0 7.041.308 6.017 6.017 0 0 0 2.344-2.831 5.937 5.937 0 0 0 .246-3.65.76.76 0 0 0-.92-.547.75.75 0 0 0-.553.909c.228.909.164 1.866-.185 2.737a4.512 4.512 0 0 1-1.757 2.123 4.593 4.593 0 0 1-5.282-.231 4.5 4.5 0 0 1-1.561-2.268 4.452 4.452 0 0 1 .06-2.743 4.506 4.506 0 0 1 1.66-2.198 4.59 4.59 0 0 1 2.643-.838Z"/>
</svg>
