<svg viewBox="0 0 24 24" fill="currentColor">
    <path d="M10 3.312h.75a.25.25 0 0 1 .25.25v1a1 1 0 1 0 2 0v-1a.25.25 0 0 1 .25-.25H14a.75.75 0 0 0 .473-1.332l-2-1.625a.752.752 0 0 0-.946 0l-2 1.625A.75.75 0 0 0 10 3.312Z"/>
    <path fill-rule="evenodd" d="M15.04 16.531a2 2 0 0 0 .546 1.945l1.154 1.155a.25.25 0 0 1-.076.406L12.2 21.99a.5.5 0 0 1-.4 0l-4.47-1.947a.251.251 0 0 1-.077-.406l1.161-1.161a2 2 0 1 0-2.828-2.828l-.659.659a.25.25 0 0 1-.427-.176v-5.975c0-.298.176-.567.449-.687L11.7 6.516a.75.75 0 0 1 .6 0l6.751 2.953c.273.12.449.39.449.687v5.975a.25.25 0 0 1-.427.176l-.659-.659a2 2 0 0 0-3.373.883Zm1.465-6.375a.25.25 0 0 0-.15-.229L12.1 8.066a.249.249 0 0 0-.2 0L7.645 9.927a.25.25 0 0 0 0 .458l4.255 1.862a.257.257 0 0 0 .2 0l4.255-1.862a.25.25 0 0 0 .15-.229Z" clip-rule="evenodd"/>
    <path d="M7.707 17.769a1 1 0 1 0-1.414-1.414L2.5 20.148a.25.25 0 0 1-.354 0l-.616-.616a.75.75 0 0 0-1.28.53v3c0 .414.336.75.75.75h3a.75.75 0 0 0 .53-1.28l-.616-.616a.25.25 0 0 1 0-.354l3.793-3.793ZM23.75 23.062v-3a.75.75 0 0 0-1.28-.53l-.616.616a.25.25 0 0 1-.354 0l-3.793-3.793a1 1 0 1 0-1.414 1.414l3.793 3.793a.25.25 0 0 1 0 .354l-.616.616a.75.75 0 0 0 .53 1.28h3a.75.75 0 0 0 .75-.75Z"/>
</svg>
