<svg viewBox="0 0 24 24" fill="currentColor">
    <mask id="a">
        <path fill-rule="evenodd" d="M14.25 1.5h-1.5v3.029a9.75 9.75 0 0 1 5.179 1.981l.908-.908a.75.75 0 0 1 1.193-.882l.75.75a.75.75 0 0 1-.882 1.193l-.85.85a9.75 9.75 0 1 1-7.798-2.984V1.5h-1.5a.75.75 0 1 1 0-1.5h4.5a.75.75 0 0 1 0 1.5ZM12 6a8.25 8.25 0 1 0 0 16.5A8.25 8.25 0 0 0 12 6Z" clip-rule="evenodd"/>
        <path fill-rule="evenodd" d="M12 8.6c.552 0 1 .492 1 1.1v5.5c0 .607-.448 1.1-1 1.1s-1-.493-1-1.1V9.7c0-.608.448-1.1 1-1.1Z" clip-rule="evenodd"/>
        <path d="M13.15 18.5a1.15 1.15 0 1 1-2.3 0 1.15 1.15 0 0 1 2.3 0Z"/>
    </mask>
    <path fill-rule="evenodd" d="M14.25 1.5h-1.5v3.029a9.75 9.75 0 0 1 5.179 1.981l.908-.908a.75.75 0 0 1 1.193-.882l.75.75a.75.75 0 0 1-.882 1.193l-.85.85a9.75 9.75 0 1 1-7.798-2.984V1.5h-1.5a.75.75 0 1 1 0-1.5h4.5a.75.75 0 0 1 0 1.5ZM12 6a8.25 8.25 0 1 0 0 16.5A8.25 8.25 0 0 0 12 6Z" clip-rule="evenodd"/>
    <path fill-rule="evenodd" d="M12 8.6c.552 0 1 .492 1 1.1v5.5c0 .607-.448 1.1-1 1.1s-1-.493-1-1.1V9.7c0-.608.448-1.1 1-1.1Z" clip-rule="evenodd"/>
    <path d="M13.15 18.5a1.15 1.15 0 1 1-2.3 0 1.15 1.15 0 0 1 2.3 0Z"/>
    <path d="M12.75 1.5v-1a1 1 0 0 0-1 1h1Zm0 3.029h-1a1 1 0 0 0 .923.997l.077-.997Zm2.98.713-.382.924.383-.924ZM17.93 6.51l-.608.794a1 1 0 0 0 1.315-.087l-.707-.707Zm.908-.908.707.707a1 1 0 0 0 .176-1.176l-.883.469Zm.132-.882.707.707-.707-.707Zm1.061 0-.707.707.707-.707Zm.75.75-.707.707.707-.707Zm0 1.06-.707-.707.707.707Zm-.882.133.47-.883a1 1 0 0 0-1.177.175l.707.708Zm-.85.85-.707-.707a1 1 0 0 0-.016 1.398l.723-.691Zm1.96 3.006-.924.383.924-.383Zm0 7.462-.924-.383.924.383Zm-2.114 3.163.707.707-.707-.707Zm-3.163 2.114-.383-.924.383.924Zm-7.462 0-.383.924.383-.924Zm-3.164-2.114-.707.707.707-.707Zm-2.113-3.163.924-.383-.924.383Zm0-7.462.924.383-.924-.383Zm2.113-3.163.708.707-.708-.707ZM8.27 5.242l-.383-.924.383.924Zm2.98-.713.078.997a1 1 0 0 0 .923-.997h-1Zm0-3.029h1a1 1 0 0 0-1-1v1ZM8.844 6.628l-.383-.924.383.924Zm-4.465 4.465-.924-.383.924.383Zm1.788 8.99.707-.706-.707.707Zm2.677 1.789.382-.924-.382.924Zm6.314 0-.383-.924.383.924Zm2.676-1.788-.707-.707.707.707Zm1.789-2.677-.924-.383.924.383Zm0-6.314-.924.383.924-.383Zm-1.789-2.677-.707.707.707-.707ZM12.75 2.5h1.5v-2h-1.5v2Zm1 2.029V1.5h-2v3.029h2Zm2.364-.21a10.75 10.75 0 0 0-3.287-.787l-.154 1.994a8.75 8.75 0 0 1 2.675.64l.766-1.848Zm2.423 1.397a10.749 10.749 0 0 0-2.423-1.398l-.766 1.848a8.75 8.75 0 0 1 1.973 1.138l1.216-1.588Zm-.407-.821-.908.908 1.414 1.414.908-.908-1.414-1.414Zm.132-.882a1.75 1.75 0 0 0-.308 2.058l1.766-.938a.25.25 0 0 1-.043.294l-1.415-1.414Zm2.475 0a1.75 1.75 0 0 0-2.475 0l1.415 1.414a.25.25 0 0 1-.354 0l1.414-1.414Zm.75 3.224a1.75 1.75 0 0 0 0-2.474l-1.414 1.414a.25.25 0 0 1 0-.354l1.414 1.414Zm-2.058.309c.66.35 1.5.25 2.058-.309l-1.414-1.414a.25.25 0 0 1 .294-.043l-.939 1.766Zm.326.674.85-.85-1.414-1.415-.85.85 1.414 1.415Zm2.177 1.916a10.751 10.751 0 0 0-2.162-3.314l-1.445 1.382a8.752 8.752 0 0 1 1.759 2.697l1.848-.765Zm.818 4.114c0-1.412-.278-2.81-.819-4.114l-1.847.766a8.75 8.75 0 0 1 .666 3.348h2Zm-.819 4.114a10.75 10.75 0 0 0 .819-4.114h-2a8.75 8.75 0 0 1-.666 3.349l1.848.765Zm-2.33 3.487a10.75 10.75 0 0 0 2.33-3.487l-1.847-.765a8.748 8.748 0 0 1-1.897 2.838l1.414 1.414Zm-3.487 2.33a10.75 10.75 0 0 0 3.487-2.33l-1.414-1.414a8.75 8.75 0 0 1-2.839 1.897l.766 1.848ZM12 25c1.412 0 2.81-.278 4.114-.818l-.766-1.848c-1.061.44-2.2.666-3.348.666v2Zm-4.114-.818A10.75 10.75 0 0 0 12 25v-2a8.749 8.749 0 0 1-3.349-.666l-.765 1.848Zm-3.488-2.33a10.75 10.75 0 0 0 3.488 2.33l.765-1.848a8.75 8.75 0 0 1-2.838-1.897l-1.415 1.414Zm-2.33-3.488a10.75 10.75 0 0 0 2.33 3.487l1.415-1.414A8.75 8.75 0 0 1 3.916 17.6l-1.848.765ZM1.25 14.25c0 1.412.278 2.81.818 4.114l1.848-.765a8.75 8.75 0 0 1-.666-3.349h-2Zm.818-4.114a10.75 10.75 0 0 0-.818 4.114h2c0-1.15.226-2.287.666-3.348l-1.848-.766Zm2.33-3.487a10.75 10.75 0 0 0-2.33 3.487l1.848.766a8.75 8.75 0 0 1 1.897-2.84L4.398 6.65Zm3.488-2.33a10.75 10.75 0 0 0-3.488 2.33l1.415 1.414A8.75 8.75 0 0 1 8.65 6.166l-.765-1.848Zm3.287-.787a10.75 10.75 0 0 0-3.287.786l.765 1.848a8.75 8.75 0 0 1 2.676-.64l-.154-1.994ZM10.25 1.5v3.029h2V1.5h-2Zm-.5 1h1.5v-2h-1.5v2ZM8 .75c0 .966.783 1.75 1.75 1.75v-2a.25.25 0 0 1 .25.25H8ZM9.75-1A1.75 1.75 0 0 0 8 .75h2a.25.25 0 0 1-.25.25v-2ZM16 .75A1.75 1.75 0 0 0 14.25-1v2A.25.25 0 0 1 14 .75h2ZM14.25 2.5A1.75 1.75 0 0 0 16 .75h-2a.25.25 0 0 1 .25-.25v2ZM9.225 7.552A7.25 7.25 0 0 1 12 7V5a9.25 9.25 0 0 0-3.54.704l.765 1.848ZM6.873 9.123a7.25 7.25 0 0 1 2.352-1.571L8.46 5.704A9.25 9.25 0 0 0 5.459 7.71l1.414 1.414Zm-1.571 2.353a7.25 7.25 0 0 1 1.571-2.353L5.46 7.71a9.25 9.25 0 0 0-2.005 3.001l1.848.765ZM4.75 14.25c0-.952.187-1.895.552-2.774l-1.848-.766a9.25 9.25 0 0 0-.704 3.54h2Zm.552 2.774a7.25 7.25 0 0 1-.552-2.774h-2c0 1.215.239 2.418.704 3.54l1.848-.765Zm1.571 2.352a7.25 7.25 0 0 1-1.571-2.352l-1.848.766a9.25 9.25 0 0 0 2.005 3l1.414-1.413Zm2.352 1.572a7.248 7.248 0 0 1-2.352-1.572L5.46 20.791a9.25 9.25 0 0 0 3 2.005l.766-1.848ZM12 21.5a7.25 7.25 0 0 1-2.775-.552l-.765 1.848A9.251 9.251 0 0 0 12 23.5v-2Zm2.774-.552A7.249 7.249 0 0 1 12 21.5v2c1.214 0 2.417-.24 3.54-.704l-.766-1.848Zm2.352-1.572a7.248 7.248 0 0 1-2.352 1.572l.766 1.848a9.25 9.25 0 0 0 3-2.005l-1.414-1.415Zm1.572-2.352a7.25 7.25 0 0 1-1.572 2.352l1.415 1.415a9.249 9.249 0 0 0 2.005-3.001l-1.848-.765Zm.552-2.774c0 .952-.188 1.895-.552 2.774l1.848.766a9.249 9.249 0 0 0 .704-3.54h-2Zm-.552-2.774c.364.88.552 1.822.552 2.774h2c0-1.215-.24-2.418-.704-3.54l-1.848.765Zm-1.572-2.353a7.251 7.251 0 0 1 1.572 2.353l1.848-.766a9.25 9.25 0 0 0-2.005-3l-1.415 1.413Zm-2.352-1.571a7.25 7.25 0 0 1 2.352 1.571l1.415-1.414a9.25 9.25 0 0 0-3.001-2.005l-.766 1.848ZM12 7a7.25 7.25 0 0 1 2.774.552l.766-1.848A9.25 9.25 0 0 0 12 5v2Zm2.25-8h-4.5v2h4.5v-2Zm7.237 5.763-.75-.75-1.414 1.414.75.75 1.414-1.414ZM14 9.7c0-1.068-.808-2.1-2-2.1v2a.08.08 0 0 1-.033-.007c-.007-.003-.006-.004 0 .002A.158.158 0 0 1 12 9.7h2Zm0 5.5V9.7h-2v5.5h2Zm-2 2.1c1.192 0 2-1.032 2-2.1h-2c0 .058-.021.092-.033.105-.006.006-.007.005 0 .002A.08.08 0 0 1 12 15.3v2Zm-2-2.1c0 1.068.808 2.1 2 2.1v-2a.08.08 0 0 1 .033.007c.006.003.005.004 0-.002A.158.158 0 0 1 12 15.2h-2Zm0-5.5v5.5h2V9.7h-2Zm2-2.1c-1.192 0-2 1.032-2 2.1h2c0-.058.02-.092.033-.105.005-.006.006-.005 0-.002A.08.08 0 0 1 12 9.6v-2Zm.15 10.9a.15.15 0 0 1-.15.15v2a2.15 2.15 0 0 0 2.15-2.15h-2Zm-.15.15a.15.15 0 0 1-.15-.15h-2A2.15 2.15 0 0 0 12 20.65v-2Zm-.15-.15a.15.15 0 0 1 .15-.15v-2a2.15 2.15 0 0 0-2.15 2.15h2Zm.15-.15a.15.15 0 0 1 .15.15h2A2.15 2.15 0 0 0 12 16.35v2Z" mask="url(#a)"/>
</svg>
