<svg viewBox="0 0 24 24" fill="currentColor">
    <path d="M2 17.864a1 1 0 0 0-1 1v1.5a.25.25 0 0 0 .25.25h3.5a.249.249 0 0 0 .25-.25v-1.5a1 1 0 0 0-1-1H2ZM8 14.864a1 1 0 0 0-1 1v4.5a.25.25 0 0 0 .25.25h3.5a.25.25 0 0 0 .25-.25v-4.5a1 1 0 0 0-1-1H8ZM14 11.364a1 1 0 0 0-1 1v8a.25.25 0 0 0 .25.25h3.5a.25.25 0 0 0 .25-.25v-8a1 1 0 0 0-1-1h-2ZM19.25 20.614h3.5a.25.25 0 0 0 .25-.25v-12a1 1 0 0 0-1-1h-2a1 1 0 0 0-1 1v12a.25.25 0 0 0 .25.25ZM18.069 4.206l.307.46c.14.209.373.333.624.333h.025a.75.75 0 0 0 .626-.377l2-3.5a.751.751 0 0 0-.744-1.116l-4 .5a.75.75 0 0 0-.531 1.16l.307.46a.251.251 0 0 1-.07.347L2.445 11.918a1 1 0 1 0 1.11 1.664l14.168-9.445a.249.249 0 0 1 .346.07ZM1 24h22a1 1 0 1 0 0-2H1a1 1 0 1 0 0 2Z"/>
</svg>
