<svg viewBox="0 0 24 24" fill="currentColor">
    <path d="M17.331.048a.75.75 0 0 0-.527 1.404l1.487.558L3.87 8.558a.75.75 0 0 0 .621 1.366l14.42-6.548-.558 1.487a.75.75 0 0 0 1.404.527l1.194-3.182.002-.006a.747.747 0 0 0-.443-.961L17.33.048Z"/>
    <path fill-rule="evenodd" d="M18 9a1.5 1.5 0 0 0-1.5 1.5v12H15v-9a1.5 1.5 0 0 0-1.5-1.5h-3A1.5 1.5 0 0 0 9 13.5v9H7.5V18A1.5 1.5 0 0 0 6 16.5H3A1.5 1.5 0 0 0 1.5 18v4.5H.75a.75.75 0 0 0 0 1.5h22.5a.75.75 0 0 0 0-1.5h-.75v-12A1.5 1.5 0 0 0 21 9h-3Zm3 1.5h-3v12h3v-12Zm-10.5 3h3v9h-3v-9Zm-4.5 9V18H3v4.5h3Z" clip-rule="evenodd"/>
</svg>
