<svg viewBox="0 0 24 24" fill="currentColor">
    <path d="M11 3a.5.5 0 0 0-.5.5v1a.5.5 0 0 0 1 0v-1A.5.5 0 0 0 11 3ZM13 3a.5.5 0 0 0-.5.5v1a.5.5 0 0 0 1 0v-1A.5.5 0 0 0 13 3Z"/>
    <path fill-rule="evenodd" d="M16.643 6.652a.25.25 0 0 1-.143-.226V2a2 2 0 0 0-2-2h-5a2 2 0 0 0-2 2v4.426a.252.252 0 0 1-.143.226A1.5 1.5 0 0 0 6.5 8v11.5A4.505 4.505 0 0 0 11 24h2a4.505 4.505 0 0 0 4.5-4.5V8a1.5 1.5 0 0 0-.857-1.348ZM13.5 11.5h-3a1 1 0 1 1 0-2h3a1 1 0 1 1 0 2ZM9.75 2a.25.25 0 0 0-.25.25v3.5c0 .138.112.25.25.25h4.5a.25.25 0 0 0 .25-.25v-3.5a.25.25 0 0 0-.25-.25h-4.5Z" clip-rule="evenodd"/>
</svg>
