<svg viewBox="0 0 24 24" fill="currentColor">
    <path d="M9.41 17.39c-.14 0-.27-.03-.39-.1a.806.806 0 0 1-.4-.69V7.31c0-.14.04-.28.12-.41a.79.79 0 0 1 .31-.29c.13-.07.27-.1.41-.09.14.01.28.05.4.13l7.18 4.9c.11.07.2.17.26.29.06.12.09.25.09.38s-.04.26-.11.38-.16.21-.27.28l-7.18 4.39c-.13.07-.27.11-.42.12Zm.79-8.57v6.35l4.92-3-4.92-3.35Z"/>
    <path d="M22.2 1.5c.17 0 .3.14.3.3v20.4a.3.3 0 0 1-.3.3H1.8a.3.3 0 0 1-.3-.3V1.8c0-.17.14-.3.3-.3h20.4Zm0-1.5H1.8C.81 0 0 .81 0 1.8v20.4c0 1 .81 1.8 1.8 1.8h20.4c1 0 1.8-.81 1.8-1.8V1.8c0-.99-.81-1.8-1.8-1.8Z"/>
</svg>
