<svg viewBox="0 0 24 24" fill="currentColor">
    <path fill-rule="evenodd" d="M23.78.22a.75.75 0 0 1 0 1.06l-22.5 22.5a.75.75 0 0 1-1.06-1.06L22.72.22a.75.75 0 0 1 1.06 0ZM9.348 17.598a3.75 3.75 0 1 1 5.304 5.304 3.75 3.75 0 0 1-5.304-5.304ZM12 18a2.25 2.25 0 1 0 0 4.5 2.25 2.25 0 0 0 0-4.5ZM14.361 13.096a.75.75 0 0 1 .99-.382c.924.41 1.765.988 2.48 1.703a.75.75 0 0 1-1.061 1.06 6.726 6.726 0 0 0-2.027-1.392.75.75 0 0 1-.382-.99ZM12 8.227a.75.75 0 0 1-.703.795 11.2 11.2 0 0 0-7.25 3.272.75.75 0 1 1-1.063-1.058 12.7 12.7 0 0 1 8.221-3.712.75.75 0 0 1 .795.703ZM17.304 9.456a.75.75 0 0 1 1.024-.278 12.768 12.768 0 0 1 2.688 2.057.75.75 0 1 1-1.062 1.06 11.271 11.271 0 0 0-2.372-1.815.75.75 0 0 1-.278-1.024ZM7.146 3.695a17.234 17.234 0 0 1 7.94-.417.75.75 0 1 1-.268 1.476A15.734 15.734 0 0 0 1.262 8.729.75.75 0 0 1 .238 7.633a17.234 17.234 0 0 1 6.908-3.938ZM20.178 5.9a.75.75 0 0 1 1.035-.234c.909.574 1.762 1.233 2.549 1.967a.75.75 0 0 1-1.024 1.096 15.711 15.711 0 0 0-2.327-1.795.75.75 0 0 1-.233-1.035Z" clip-rule="evenodd"/>
</svg>
