<svg viewBox="0 0 24 24" fill="currentColor">
    <path d="M3.44 9.76a1.343 1.343 0 0 0 .017 1.885c.519.518 1.358.525 1.886.016 3.68-3.667 9.636-3.667 13.317 0 .252.252.594.393.951.393a1.334 1.334 0 0 0 1.34-1.313v-.03c0-.357-.141-.699-.394-.95-4.731-4.712-12.386-4.712-17.117 0Z"/>
    <path d="M23.606 5.644C17.192-.748 6.808-.748.394 5.644a1.343 1.343 0 0 0 0 1.901 1.346 1.346 0 0 0 1.903 0c5.363-5.344 14.043-5.344 19.406 0a1.346 1.346 0 0 0 2.251-.603 1.343 1.343 0 0 0-.348-1.298ZM14.565 12.036a7.81 7.81 0 0 0-8.082 1.84 1.343 1.343 0 1 0 1.902 1.899 5.114 5.114 0 0 1 7.024-.167c.067.06.141.108.205.167a1.343 1.343 0 0 0 2.19-.44 1.344 1.344 0 0 0-.292-1.464 7.738 7.738 0 0 0-2.947-1.835ZM14.69 20.462A2.69 2.69 0 0 1 12 23.15a2.69 2.69 0 0 1-2.69-2.688A2.69 2.69 0 0 1 12 17.774a2.69 2.69 0 0 1 2.69 2.688Z"/>
</svg>
