<svg viewBox="0 0 24 24" fill="currentColor">
    <path d="M1.016 6.39a.976.976 0 0 0-.282.973c.094.349.377.622.74.713.362.092.748-.012 1.008-.272 3.079-2.963 7.453-4.31 11.744-3.616.356.061.72-.06.959-.322l.006-.007a.972.972 0 0 0 .196-.987 1.026 1.026 0 0 0-.792-.652c-4.96-.81-10.02.744-13.579 4.17ZM21.543 7.804a1.065 1.065 0 0 0 1.453-.012.974.974 0 0 0 .013-1.401 16.256 16.256 0 0 0-.236-.221 1.065 1.065 0 0 0-1.466.034.975.975 0 0 0 .036 1.414c.068.06.134.123.2.186ZM10.713 8.856a.971.971 0 0 0 .114-1.154 1.051 1.051 0 0 0-1.095-.48 11.504 11.504 0 0 0-4.942 2.26c-.29.23-.57.476-.84.734a.976.976 0 0 0-.283.972c.095.35.378.622.74.714.363.091.749-.013 1.009-.273a9.367 9.367 0 0 1 4.709-2.441c.223-.042.427-.154.577-.319l.011-.013ZM18.062 9.827a.983.983 0 0 0 .123 1.42c.146.122.288.25.426.382a1.065 1.065 0 0 0 1.453-.012.974.974 0 0 0 .013-1.4 8.722 8.722 0 0 0-.566-.5 1.064 1.064 0 0 0-1.451.114l.002-.004ZM14.82 13.446a.975.975 0 0 0 .195 1.47c.239.158.461.338.664.538.405.39 1.062.39 1.467 0a.974.974 0 0 0 0-1.414 7.291 7.291 0 0 0-.926-.753 1.076 1.076 0 0 0-1.4.159ZM14.086 19.987c0 1.104-.928 1.999-2.074 1.999-1.145 0-2.073-.895-2.073-1.999s.928-1.998 2.073-1.998c1.146 0 2.074.894 2.074 1.998ZM22.54.244a1.064 1.064 0 0 0-1.463.1L1.38 22.328a.973.973 0 0 0-.215.993c.12.344.426.598.796.663.37.065.749-.069.988-.35L22.646 1.65a.974.974 0 0 0-.107-1.406Z"/>
</svg>
