<svg viewBox="0 0 24 24" fill="currentColor">
    <path fill-rule="evenodd" d="M9.348 16.098a3.75 3.75 0 1 1 5.304 5.303 3.75 3.75 0 0 1-5.304-5.303ZM12 16.5a2.25 2.25 0 1 0 0 4.5 2.25 2.25 0 0 0 0-4.5ZM6.164 12.916a8.25 8.25 0 0 1 11.666 0 .75.75 0 0 1-1.06 1.06 6.75 6.75 0 0 0-9.546 0 .75.75 0 0 1-1.06-1.06Z" clip-rule="evenodd"/>
    <path fill-rule="evenodd" d="M2.985 9.734a12.75 12.75 0 0 1 18.03 0 .75.75 0 0 1-1.06 1.06 11.25 11.25 0 0 0-15.91 0 .75.75 0 1 1-1.06-1.06Z" clip-rule="evenodd"/>
    <path fill-rule="evenodd" d="M.239 6.132a17.25 17.25 0 0 1 23.522 0 .75.75 0 1 1-1.022 1.097 15.75 15.75 0 0 0-21.478 0A.75.75 0 0 1 .24 6.132Z" clip-rule="evenodd"/>
</svg>
