<svg viewBox="0 0 24 24" fill="currentColor">
    <g clip-path="url(#a)">
        <path d="M9.734 12.119v1.358a.76.76 0 0 0 .746.748h2.982a.754.754 0 0 0 .745-.748v-1.358A4.486 4.486 0 0 0 16.1 9.947a4.51 4.51 0 0 0 .185-2.881 4.494 4.494 0 0 0-1.598-2.4 4.46 4.46 0 0 0-5.443 0 4.51 4.51 0 0 0-1.412 5.28 4.486 4.486 0 0 0 1.892 2.173h.01ZM13.452 14.974H10.47a.751.751 0 0 0-.776.443.762.762 0 0 0 .461 1.034.751.751 0 0 0 .315.03h2.982a.753.753 0 0 0 .745-.748.751.751 0 0 0-.458-.701.742.742 0 0 0-.287-.058ZM23.909 22.96a5.178 5.178 0 0 0-2.644-2.995 4.643 4.643 0 0 0-.567-.24 3.369 3.369 0 0 0 1.42-1.631 3.387 3.387 0 0 0-1.06-3.965 3.35 3.35 0 0 0-4.089 0 3.387 3.387 0 0 0-1.062 3.965c.282.686.782 1.26 1.421 1.632a5.146 5.146 0 0 0-2.008 1.233 5.176 5.176 0 0 0-1.252 2.001.751.751 0 0 0 .457.998.571.571 0 0 0 .229 0h8.26c.158.056.33.056.487 0a.765.765 0 0 0 .499-.7.77.77 0 0 0-.052-.298h-.04ZM7.25 19.965a5.733 5.733 0 0 0-.568-.24 3.38 3.38 0 0 0 1.422-1.637 3.398 3.398 0 0 0-1.067-3.974 3.36 3.36 0 0 0-4.098 0 3.398 3.398 0 0 0-1.067 3.974 3.38 3.38 0 0 0 1.42 1.638 5.145 5.145 0 0 0-1.996 1.236A5.174 5.174 0 0 0 .052 22.96a.751.751 0 0 0 .497.998c.08.016.16.016.239 0h8.31c.117.03.24.03.358 0a.745.745 0 0 0 .514-.697.751.751 0 0 0-.057-.3 5.273 5.273 0 0 0-2.664-2.996Z"/>
        <path d="M11.98 3.464a.992.992 0 0 0 .995-.998V.998a.992.992 0 1 0-1.988 0v1.468a.992.992 0 0 0 .994.998ZM16.95 5.53c.255.002.5-.094.686-.27l1.064-.997a1.02 1.02 0 0 0 .24-1.108 1.02 1.02 0 0 0-.928-.646 1.012 1.012 0 0 0-.724.286l-1.063.998a1 1 0 0 0 .726 1.737ZM5.3 4.253l1.064.998A.994.994 0 0 0 7.96 4.122a.999.999 0 0 0-.224-.319l-1.063-.998a.992.992 0 0 0-1.193-.12.726.726 0 0 0-.19.13.997.997 0 0 0-.168.18 1.002 1.002 0 0 0 .149 1.218l.03.04ZM16.95 8.126a1 1 0 0 0 .292.706c.186.187.439.292.703.292h1.49a.992.992 0 0 0 .703-.292 1 1 0 0 0-.703-1.704h-1.49a.992.992 0 0 0-.703.292 1 1 0 0 0-.291.706ZM6.016 9.244a1 1 0 0 0 0-1.997h-1.5a.992.992 0 0 0-.703.293 1 1 0 0 0 .703 1.704h1.5Z"/>
    </g>
    <defs>
        <clipPath id="a">
            <path d="M0 0h24v24H0z"/>
        </clipPath>
    </defs>
</svg>
