<svg viewBox="0 0 24 24" fill="currentColor">
    <path d="M11.995 3.001a.761.761 0 0 0 .755-.754V.755A.761.761 0 0 0 11.995 0a.761.761 0 0 0-.754.755v1.509c0 .394.343.737.754.737ZM4.484 9.003h1.612a.761.761 0 0 0 .755-.754.761.761 0 0 0-.755-.755H4.484a.761.761 0 0 0-.754.755c0 .411.343.754.754.754ZM17.14 8.249c0 .411.343.754.755.754h1.612a.761.761 0 0 0 .754-.754.761.761 0 0 0-.754-.755h-1.612c-.412.017-.755.343-.755.755ZM6.645 5.248a.74.74 0 0 0 .532.223.756.756 0 0 0 .532-1.286L6.335 2.811a.756.756 0 0 0-1.063 0 .756.756 0 0 0 0 1.064l1.372 1.372ZM16.814 5.47a.74.74 0 0 0 .532-.222l1.372-1.372a.756.756 0 0 0 0-1.064.756.756 0 0 0-1.063 0l-1.372 1.372a.756.756 0 0 0 0 1.064.818.818 0 0 0 .531.223ZM9.749 12.142v1.354c0 .412.343.755.755.755h3a.761.761 0 0 0 .755-.755v-1.354a4.473 4.473 0 0 0 2.247-3.893c0-1.2-.463-2.333-1.32-3.19a4.446 4.446 0 0 0-3.19-1.32 4.497 4.497 0 0 0-4.494 4.493 4.445 4.445 0 0 0 2.247 3.91Zm.12-6.02a2.982 2.982 0 0 1 2.126-.874 2.982 2.982 0 0 1 3.002 3c0 1.201-.704 2.264-1.801 2.745a.75.75 0 0 0-.446.686v1.063h-1.51v-1.063a.75.75 0 0 0-.445-.686 3.005 3.005 0 0 1-.926-4.87ZM13.487 15.005h-3a.761.761 0 0 0-.755.755c0 .412.343.755.754.755h3.001a.761.761 0 0 0 .755-.755.75.75 0 0 0-.755-.755ZM23.965 23.014a5.184 5.184 0 0 0-2.658-2.984c-.188-.085-.377-.171-.566-.24a3.374 3.374 0 0 0-1.698-6.294 3.374 3.374 0 0 0-3.378 3.379c0 1.235.67 2.315 1.681 2.915h-.017c-1.51.532-2.693 1.698-3.207 3.207a.752.752 0 0 0 .463.96c.086.035.171.035.24.035.309 0 .6-.189.703-.498a3.727 3.727 0 0 1 2.298-2.298 3.65 3.65 0 0 1 2.847.172 3.694 3.694 0 0 1 1.904 2.126c.137.395.565.6.96.463.343-.12.549-.548.428-.943Zm-4.938-8.008c1.028 0 1.869.84 1.869 1.869s-.84 1.869-1.87 1.869a1.877 1.877 0 0 1-1.886-1.87c0-1.045.84-1.868 1.887-1.868ZM7.245 20.03c-.189-.085-.377-.171-.566-.24a3.374 3.374 0 0 0-1.698-6.294c-1.869 0-3.395 1.527-3.395 3.379 0 1.235.669 2.332 1.68 2.915H3.25C1.74 20.322.557 21.488.042 22.997a.752.752 0 0 0 .464.96c.085.035.171.035.24.035.308 0 .6-.189.703-.498a3.727 3.727 0 0 1 2.298-2.298 3.651 3.651 0 0 1 2.846.172 3.694 3.694 0 0 1 1.904 2.126c.137.395.566.6.96.463a.752.752 0 0 0 .463-.96 5.291 5.291 0 0 0-2.675-2.967Zm-2.28-5.025c1.028 0 1.869.84 1.869 1.87 0 1.029-.84 1.886-1.87 1.886-1.029 0-1.869-.84-1.869-1.87 0-1.028.84-1.885 1.87-1.885Z"/>
</svg>
