<svg viewBox="0 0 24 24" fill="currentColor">
    <path fill-rule="evenodd" d="M10 .5a9.5 9.5 0 1 0 0 19c2.082 0 4.008-.67 5.573-1.806l5.366 5.367a1.5 1.5 0 0 0 2.122-2.122l-5.367-5.366A9.458 9.458 0 0 0 19.5 10 9.5 9.5 0 0 0 10 .5ZM3.5 10a6.5 6.5 0 1 1 13 0 6.5 6.5 0 0 1-13 0Z" clip-rule="evenodd"/>
    <path fill-rule="evenodd" d="M6.833 10c0-.368.299-.666.667-.666h5a.666.666 0 1 1 0 1.332h-5A.666.666 0 0 1 6.833 10Z" clip-rule="evenodd"/>
    <path fill-rule="evenodd" d="M6.583 10c0-.506.41-.916.917-.916h5a.916.916 0 1 1 0 1.832h-5A.916.916 0 0 1 6.583 10Zm.917-.416a.416.416 0 1 0 0 .832h5a.417.417 0 0 0 0-.832h-5Z" clip-rule="evenodd"/>
</svg>
