<svg width="28" height="20" viewBox="0 0 28 20" fill="none" xmlns="http://www.w3.org/2000/svg">
<rect width="28" height="20" fill="white"/>
<path fill-rule="evenodd" clip-rule="evenodd" d="M27.5 0.5H0.5V19.5H27.5V0.5ZM0 0V20H28V0H0Z" fill="#F5F5F5"/>
<path d="M12.6667 0V0.495139C12.6667 0.81809 12.5107 1.12116 12.2479 1.30887L9.41365 3.33333H12C12.3682 3.33333 12.6667 3.63181 12.6667 4V5.33333C12.6667 5.70152 12.3682 6 12 6H9.13548L11.9813 8.43929C12.6067 8.9753 12.2276 10 11.404 10C11.2191 10 11.0388 9.94224 10.8883 9.83477L7.33333 7.29548V9.33333C7.33333 9.70152 7.03486 10 6.66667 10H5.33333C4.96514 10 4.66667 9.70152 4.66667 9.33333V7.20284L0 10.1195V20H28V0H12.6667Z" fill="#000066"/>
<path d="M4.66667 2.03789L1.81361 0H4.66667V2.03789Z" fill="#000066"/>
<path d="M7.33333 2.1305V0H10.7421L7.33333 2.1305Z" fill="#000066"/>
<path d="M2.86447 3.33333H0V0.878075L2.86447 3.33333Z" fill="#000066"/>
<path d="M0 6H2.58636L0 7.8474V6Z" fill="#000066"/>
<path d="M0 0L4.66667 4H0V5.33333H4.66667L0 8.66667V9.33333L5.33333 6V9.33333H6.66667V6L11.2758 9.29226C11.3132 9.31897 11.358 9.33333 11.404 9.33333C11.6087 9.33333 11.7029 9.07867 11.5475 8.94545L7.33333 5.33333H12V4H7.33333L11.8604 0.766372C11.948 0.703801 12 0.602778 12 0.495127V0L6.66667 3.33333V0H5.33333V3.33333L0.666667 0H0Z" fill="#CC0000"/>
<path fill-rule="evenodd" clip-rule="evenodd" d="M6.00001 16.3333L4.82444 16.9514L5.04896 15.6423L4.0979 14.7153L5.41223 14.5243L6.00001 13.3333L6.5878 14.5243L7.90213 14.7153L6.95107 15.6423L7.17558 16.9514L6.00001 16.3333Z" fill="white"/>
<path fill-rule="evenodd" clip-rule="evenodd" d="M20 17.3333L19.0572 17.6095L19.3333 16.6667L19.0572 15.7239L20 16L20.9428 15.7239L20.6667 16.6667L20.9428 17.6095L20 17.3333Z" fill="white"/>
<path fill-rule="evenodd" clip-rule="evenodd" d="M20 4.66667L19.0572 4.94281L19.3333 4L19.0572 3.05719L20 3.33333L20.9428 3.05719L20.6667 4L20.9428 4.94281L20 4.66667Z" fill="white"/>
<path fill-rule="evenodd" clip-rule="evenodd" d="M24 8.66667L23.0572 8.94281L23.3333 8L23.0572 7.05719L24 7.33333L24.9428 7.05719L24.6667 8L24.9428 8.94281L24 8.66667Z" fill="white"/>
<path fill-rule="evenodd" clip-rule="evenodd" d="M16 10L15.0572 10.2761L15.3333 9.33333L15.0572 8.39052L16 8.66667L16.9428 8.39052L16.6667 9.33333L16.9428 10.2761L16 10Z" fill="white"/>
<path fill-rule="evenodd" clip-rule="evenodd" d="M22 11.6667L21.5286 11.8047L21.6667 11.3333L21.5286 10.8619L22 11L22.4714 10.8619L22.3333 11.3333L22.4714 11.8047L22 11.6667Z" fill="white"/>
</svg>
