<svg width="28" height="20" viewBox="0 0 28 20" fill="none" xmlns="http://www.w3.org/2000/svg">
<rect width="28" height="20" rx="2" fill="white"/>
<path fill-rule="evenodd" clip-rule="evenodd" d="M27.5 2.5C27.5 1.39543 26.6046 0.5 25.5 0.5H2.5C1.39543 0.5 0.5 1.39543 0.5 2.5V17.5C0.5 18.6046 1.39543 19.5 2.5 19.5H25.5C26.6046 19.5 27.5 18.6046 27.5 17.5V2.5ZM2 0C0.895431 0 0 0.895431 0 2V18C0 19.1046 0.895431 20 2 20H26C27.1046 20 28 19.1046 28 18V2C28 0.895431 27.1046 0 26 0H2Z" fill="#F5F5F5"/>
<path d="M12.6667 0V0.495139C12.6667 0.81809 12.5107 1.12116 12.2479 1.30887L9.41365 3.33333H12C12.3682 3.33333 12.6667 3.63181 12.6667 4V5.33333C12.6667 5.70152 12.3682 6 12 6H9.13548L11.9813 8.43929C12.6067 8.9753 12.2276 10 11.404 10C11.2191 10 11.0388 9.94224 10.8883 9.83477L7.33333 7.29548V9.33333C7.33333 9.70152 7.03486 10 6.66667 10H5.33333C4.96514 10 4.66667 9.70152 4.66667 9.33333V7.20284L0 10.1195V18C0 19.1046 0.895431 20 2 20H26C27.1046 20 28 19.1046 28 18V2C28 0.895431 27.1046 0 26 0H12.6667Z" fill="#000066"/>
<path d="M10.7421 0H7.33333V2.1305L10.7421 0Z" fill="#000066"/>
<path d="M4.66667 0V2.03789L1.82427 0.00761373C1.88218 0.00257315 1.94079 0 2 0H4.66667Z" fill="#000066"/>
<path d="M0 7.8474L2.58636 6H0V7.8474Z" fill="#000066"/>
<path d="M0 3.33333H2.86447L0.227366 1.07296C0.0821453 1.35008 0 1.66544 0 2V3.33333Z" fill="#000066"/>
<path fill-rule="evenodd" clip-rule="evenodd" d="M1.02295 0.254489C0.880885 0.334182 0.749539 0.430716 0.631617 0.541386L4.66667 4H0V5.33333H4.66667L0 8.66667V9.33333L5.33333 6V9.33333H6.66667V6L11.2758 9.29226C11.3132 9.31897 11.358 9.33333 11.404 9.33333C11.6087 9.33333 11.7029 9.07867 11.5475 8.94545L7.33333 5.33333H12V4H7.33333L11.8604 0.766372C11.948 0.703801 12 0.602778 12 0.495127V0L6.66667 3.33333V0H5.33333V3.33333L1.02295 0.254489Z" fill="#CC0000"/>
<path fill-rule="evenodd" clip-rule="evenodd" d="M6.00001 16.3334L4.82444 16.9514L5.04896 15.6424L4.0979 14.7154L5.41223 14.5244L6.00001 13.3334L6.5878 14.5244L7.90213 14.7154L6.95107 15.6424L7.17558 16.9514L6.00001 16.3334Z" fill="white"/>
<path fill-rule="evenodd" clip-rule="evenodd" d="M20 17.3334L19.0572 17.6095L19.3333 16.6667L19.0572 15.7239L20 16.0001L20.9428 15.7239L20.6667 16.6667L20.9428 17.6095L20 17.3334Z" fill="white"/>
<path fill-rule="evenodd" clip-rule="evenodd" d="M20 4.66673L19.0572 4.94287L19.3333 4.00006L19.0572 3.05725L20 3.33339L20.9428 3.05725L20.6667 4.00006L20.9428 4.94287L20 4.66673Z" fill="white"/>
<path fill-rule="evenodd" clip-rule="evenodd" d="M24 8.66673L23.0572 8.94287L23.3333 8.00006L23.0572 7.05725L24 7.33339L24.9428 7.05725L24.6667 8.00006L24.9428 8.94287L24 8.66673Z" fill="white"/>
<path fill-rule="evenodd" clip-rule="evenodd" d="M16 10.0001L15.0572 10.2762L15.3333 9.33339L15.0572 8.39058L16 8.66673L16.9428 8.39058L16.6667 9.33339L16.9428 10.2762L16 10.0001Z" fill="white"/>
<path fill-rule="evenodd" clip-rule="evenodd" d="M22 11.6667L21.5286 11.8048L21.6667 11.3334L21.5286 10.862L22 11.0001L22.4714 10.862L22.3333 11.3334L22.4714 11.8048L22 11.6667Z" fill="white"/>
</svg>
