<svg width="28" height="20" viewBox="0 0 28 20" fill="none" xmlns="http://www.w3.org/2000/svg">
<rect width="28" height="20" rx="2" fill="#009D17"/>
<path fill-rule="evenodd" clip-rule="evenodd" d="M3.53167 10.5597C3.12567 10.297 3.12567 9.70301 3.53167 9.44031L13.6378 2.90103C13.8582 2.75843 14.1418 2.75843 14.3622 2.90103L24.4683 9.44031C24.8743 9.70301 24.8743 10.297 24.4683 10.5597L14.3622 17.099C14.1418 17.2416 13.8582 17.2416 13.6378 17.099L3.53167 10.5597Z" fill="#FFE100"/>
<path fill-rule="evenodd" clip-rule="evenodd" d="M14 14.6666C16.5773 14.6666 18.6667 12.5773 18.6667 9.99998C18.6667 7.42265 16.5773 5.33331 14 5.33331C11.4227 5.33331 9.33334 7.42265 9.33334 9.99998C9.33334 12.5773 11.4227 14.6666 14 14.6666Z" fill="#053087"/>
<path d="M9.39658 9.22998C9.46065 9.2172 9.54296 9.20597 9.64739 9.19971C9.94181 9.18205 10.3244 9.20844 10.7828 9.27537C11.6985 9.40905 12.807 9.68702 13.9123 9.98186C14.9645 10.2625 16.0477 10.6999 16.9361 11.154C17.3796 11.3806 17.7662 11.6072 18.0708 11.8148C18.1343 11.858 18.1926 11.8994 18.2461 11.9388C18.4387 11.5178 18.5704 11.0632 18.6302 10.5863C18.3103 10.3804 17.9418 10.1706 17.5429 9.96672C16.582 9.47561 15.4107 9.00163 14.2559 8.69357C13.1541 8.39967 11.9769 8.10223 10.9754 7.95602C10.5838 7.89884 10.2021 7.86211 9.85129 7.86108C9.6329 8.28383 9.47723 8.74423 9.39658 9.22998Z" fill="white"/>
</svg>
