<svg width="28" height="20" viewBox="0 0 28 20" fill="none" xmlns="http://www.w3.org/2000/svg">
<rect width="28" height="20" fill="#009D17"/>
<path fill-rule="evenodd" clip-rule="evenodd" d="M3.8633 10.7743C3.4573 10.5116 3.4573 9.91755 3.8633 9.65485L13.9695 3.11557C14.1898 2.97296 14.4734 2.97296 14.6938 3.11557L24.7999 9.65485C25.2059 9.91755 25.2059 10.5116 24.7999 10.7743L14.6938 17.3135C14.4734 17.4562 14.1898 17.4562 13.9695 17.3135L3.8633 10.7743Z" fill="#FFE100"/>
<path fill-rule="evenodd" clip-rule="evenodd" d="M14.3316 14.8812C16.909 14.8812 18.9983 12.7918 18.9983 10.2145C18.9983 7.63719 16.909 5.54785 14.3316 5.54785C11.7543 5.54785 9.66498 7.63719 9.66498 10.2145C9.66498 12.7918 11.7543 14.8812 14.3316 14.8812Z" fill="#053087"/>
<path d="M9.72821 9.44452C9.79229 9.43173 9.87459 9.42051 9.97902 9.41425C10.2734 9.39659 10.656 9.42298 11.1145 9.48991C12.0301 9.62359 13.1386 9.90156 14.2439 10.1964C15.2961 10.4771 16.3794 10.9145 17.2677 11.3685C17.7112 11.5952 18.0978 11.8218 18.4024 12.0293C18.4659 12.0725 18.5243 12.1139 18.5778 12.1533C18.7703 11.7324 18.9021 11.2778 18.9618 10.8008C18.6419 10.5949 18.2735 10.3852 17.8745 10.1813C16.9136 9.69015 15.7424 9.21617 14.5875 8.90811C13.4858 8.61421 12.3085 8.31677 11.3071 8.17056C10.9154 8.11338 10.5337 8.07665 10.1829 8.07562C9.96454 8.49836 9.80886 8.95877 9.72821 9.44452Z" fill="white"/>
</svg>
