<svg width="28" height="20" viewBox="0 0 28 20" fill="none" xmlns="http://www.w3.org/2000/svg">
<rect width="28" height="20" rx="2" fill="white"/>
<path fill-rule="evenodd" clip-rule="evenodd" d="M27.5 2.5C27.5 1.39543 26.6046 0.5 25.5 0.5H2.5C1.39543 0.5 0.5 1.39543 0.5 2.5V17.5C0.5 18.6046 1.39543 19.5 2.5 19.5H25.5C26.6046 19.5 27.5 18.6046 27.5 17.5V2.5ZM2 0C0.895431 0 0 0.895431 0 2V18C0 19.1046 0.895431 20 2 20H26C27.1046 20 28 19.1046 28 18V2C28 0.895431 27.1046 0 26 0H2Z" fill="#F5F5F5"/>
<path d="M20 0H26C27.1046 0 28 0.895431 28 2V18C28 19.1046 27.1046 20 26 20H20V0Z" fill="#BF0A30"/>
<path fill-rule="evenodd" clip-rule="evenodd" d="M0 18C0 19.1046 0.895431 20 2 20H8V0H2C0.895431 0 0 0.895431 0 2V18Z" fill="#BF0A30"/>
<path d="M9.7873 10.0604L9.28601 10.2365L11.6186 12.3403C11.795 12.8809 11.5573 13.0403 11.4059 13.3239L13.9381 12.9936L13.8722 15.6124L14.3967 15.5969L14.2823 12.9998L16.8171 13.3086C16.6602 12.9682 16.5206 12.7874 16.6658 12.243L18.9968 10.2499L18.5889 10.0981C18.2554 9.83365 18.733 8.8243 18.8051 8.18732C18.8051 8.18732 17.444 8.66833 17.3548 8.41664L17.0081 7.73237L15.7699 9.1302C15.6346 9.16353 15.577 9.10823 15.5453 8.99075L16.1173 6.06963L15.2115 6.5932C15.1356 6.62653 15.0598 6.59778 15.0098 6.50696L14.1385 4.71033L13.2401 6.57617C13.1724 6.64304 13.1046 6.65077 13.0483 6.60532L12.1858 6.10808L12.7036 9.00638C12.6624 9.12137 12.5638 9.15378 12.4477 9.09149L11.2641 7.70952C11.1092 7.96448 11.0043 8.38101 10.7996 8.47435C10.5949 8.56177 9.90943 8.29773 9.44997 8.19468C9.60691 8.77677 10.0977 9.74382 9.78709 10.0608L9.7873 10.0604Z" fill="#BF0A30"/>
</svg>
