<svg width="28" height="20" viewBox="0 0 28 20" fill="none" xmlns="http://www.w3.org/2000/svg">
<rect width="28" height="20" fill="#FF1F00"/>
<path d="M10.0726 3.10073L11.0411 3.26583L11.7674 3.92733L11.9325 2.95888L12.594 2.23255L11.6256 2.06744L10.8992 1.40594L10.7341 2.37439L10.0726 3.10073Z" fill="#FFE100"/>
<path d="M12.6667 6.488L13.5059 5.97725L14.488 5.99997L13.9773 5.16076L14 4.1786L13.1608 4.68935L12.1786 4.66664L12.6894 5.50585L12.6667 6.488Z" fill="#FFE100"/>
<path d="M11.5282 11.9708L10.7074 12.5106L10.6958 11.5282L10.1561 10.7073L11.1384 10.6958L11.9593 10.156L11.9709 11.1384L12.5106 11.9593L11.5282 11.9708Z" fill="#FFE100"/>
<path d="M12.2411 9.43141L13.2176 9.32317L14.0981 9.75884L13.9899 8.7824L14.4255 7.90187L13.4491 8.0101L12.5686 7.57443L12.6768 8.55087L12.2411 9.43141Z" fill="#FFE100"/>
<path fill-rule="evenodd" clip-rule="evenodd" d="M6.66665 8.22664L4.31551 9.9027L5.183 7.1487L2.86243 5.43057L5.74971 5.40457L6.66665 2.66664L7.5836 5.40457L10.4709 5.43057L8.1503 7.1487L9.01779 9.9027L6.66665 8.22664Z" fill="#FFE100"/>
</svg>
