<svg width="28" height="20" viewBox="0 0 28 20" fill="none" xmlns="http://www.w3.org/2000/svg">
<rect width="28" height="20" rx="2" fill="#FF1F00"/>
<path d="M10.0726 3.10079L11.0411 3.26589L11.7674 3.92739L11.9325 2.95894L12.594 2.23261L11.6256 2.0675L10.8992 1.40601L10.7341 2.37445L10.0726 3.10079Z" fill="#FFE100"/>
<path d="M12.6667 6.48806L13.5059 5.97731L14.488 6.00003L13.9773 5.16082L14 4.17866L13.1608 4.68941L12.1786 4.6667L12.6894 5.50591L12.6667 6.48806Z" fill="#FFE100"/>
<path d="M11.5282 11.9709L10.7074 12.5106L10.6958 11.5283L10.1561 10.7074L11.1384 10.6958L11.9593 10.1561L11.9709 11.1384L12.5106 11.9593L11.5282 11.9709Z" fill="#FFE100"/>
<path d="M12.2411 9.43147L13.2176 9.32324L14.0981 9.7589L13.9899 8.78246L14.4255 7.90193L13.4491 8.01016L12.5686 7.57449L12.6768 8.55093L12.2411 9.43147Z" fill="#FFE100"/>
<path fill-rule="evenodd" clip-rule="evenodd" d="M6.66665 8.2267L4.31551 9.90277L5.183 7.14876L2.86243 5.43063L5.74971 5.40463L6.66665 2.6667L7.5836 5.40463L10.4709 5.43063L8.1503 7.14876L9.01779 9.90277L6.66665 8.2267Z" fill="#FFE100"/>
</svg>
