<svg width="28" height="20" viewBox="0 0 28 20" fill="none" xmlns="http://www.w3.org/2000/svg">
<path fill-rule="evenodd" clip-rule="evenodd" d="M0 5.33333H28V2C28 0.895431 27.1045 0 26 0H2C0.89543 0 0 0.89543 0 2V5.33333Z" fill="#C60B1E"/>
<path fill-rule="evenodd" clip-rule="evenodd" d="M0 14.6666H28V5.33331H0V14.6666Z" fill="#FFC400"/>
<path fill-rule="evenodd" clip-rule="evenodd" d="M0 18C0 19.1046 0.89543 20 2 20H26C27.1045 20 28 19.1046 28 18V14.6667H0V18Z" fill="#C60B1E"/>
<path d="M7.33001 9.33593H8.32091L8.27013 9.99999H7.33001V9.33593Z" fill="#FFEDB1"/>
<path fill-rule="evenodd" clip-rule="evenodd" d="M6.39119 9.33334H8.27546L8.21991 9.99999H6.44675L6.39119 9.33334L6.39119 9.33334ZM6.5023 10.6667L6.56247 11.3887C6.59127 11.7342 6.88011 12 7.22684 12H7.43982C7.78654 12 8.07538 11.7342 8.10418 11.3887L8.16435 10.6667H7.99999L7.33333 12L6.66666 10.6667H6.5023ZM5.72683 9.38871C5.69444 9.00003 6.00117 8.66668 6.39119 8.66668H8.27546C8.66549 8.66668 8.97221 9.00003 8.93982 9.38871L8.76854 11.4441C8.71095 12.1351 8.13327 12.6667 7.43982 12.6667H7.22684C6.53339 12.6667 5.9557 12.1351 5.89811 11.4441L5.72683 9.38871Z" fill="#A41517"/>
<rect x="4" y="7.99999" width="1.33333" height="4.66666" rx="0.666667" fill="#A41517"/>
<rect x="9.3333" y="7.99999" width="1.33333" height="4.66666" rx="0.666667" fill="#A41517"/>
<path d="M5.99999 7.73335C5.99999 7.14424 6.47756 6.66668 7.06666 6.66668H7.59999C8.18909 6.66668 8.66666 7.14424 8.66666 7.73335C8.66666 7.88062 8.54727 8.00001 8.39999 8.00001H6.26666C6.11938 8.00001 5.99999 7.88062 5.99999 7.73335Z" fill="#A41517"/>
</svg>
