<svg width="28" height="20" viewBox="0 0 28 20" fill="none" xmlns="http://www.w3.org/2000/svg">
<path fill-rule="evenodd" clip-rule="evenodd" d="M0 5.33333H28V0H0V5.33333Z" fill="#C60B1E"/>
<path fill-rule="evenodd" clip-rule="evenodd" d="M0 14.6666H28V5.33331H0V14.6666Z" fill="#FFC400"/>
<path fill-rule="evenodd" clip-rule="evenodd" d="M0 20H28V14.6666H0V20Z" fill="#C60B1E"/>
<path d="M7.27863 9.33594H8.26953L8.21875 10H7.27863V9.33594Z" fill="#FFEDB1"/>
<path fill-rule="evenodd" clip-rule="evenodd" d="M6.3912 9.33335L8.27547 9.33335L8.21991 10H6.44675L6.3912 9.33335L6.3912 9.33335ZM6.50231 10.6667L6.56248 11.3887C6.59127 11.7342 6.88012 12 7.22684 12H7.43982C7.78655 12 8.07539 11.7342 8.10419 11.3887L8.16436 10.6667H8L7.33333 12L6.66667 10.6667H6.50231ZM5.72684 9.38872C5.69445 9.00004 6.00117 8.66669 6.3912 8.66669H8.27547C8.66549 8.66669 8.97222 9.00004 8.93983 9.38872L8.76855 11.4441C8.71096 12.1351 8.13327 12.6667 7.43982 12.6667H7.22684C6.53339 12.6667 5.9557 12.1351 5.89812 11.4441L5.72684 9.38872Z" fill="#A41517"/>
<rect x="4" y="8" width="1.33333" height="4.66667" rx="0.666667" fill="#A41517"/>
<rect x="9.33331" y="8" width="1.33333" height="4.66667" rx="0.666667" fill="#A41517"/>
<path d="M6 7.73335C6 7.14425 6.47756 6.66669 7.06667 6.66669H7.6C8.1891 6.66669 8.66667 7.14425 8.66667 7.73335C8.66667 7.88063 8.54728 8.00002 8.4 8.00002H6.26667C6.11939 8.00002 6 7.88063 6 7.73335Z" fill="#A41517"/>
</svg>
