<svg width="28" height="20" viewBox="0 0 28 20" fill="none" xmlns="http://www.w3.org/2000/svg">
<rect width="28" height="20" rx="2" fill="white"/>
<path fill-rule="evenodd" clip-rule="evenodd" d="M27.5 2.5C27.5 1.39543 26.6046 0.5 25.5 0.5H2.5C1.39543 0.5 0.5 1.39543 0.5 2.5V17.5C0.5 18.6046 1.39543 19.5 2.5 19.5H25.5C26.6046 19.5 27.5 18.6046 27.5 17.5V2.5ZM2 0C0.895431 0 0 0.895431 0 2V18C0 19.1046 0.895431 20 2 20H26C27.1046 20 28 19.1046 28 18V2C28 0.895431 27.1046 0 26 0H2Z" fill="#F5F5F5"/>
<path fill-rule="evenodd" clip-rule="evenodd" d="M0 12H8.00002V20H12V12H28V8.00002H12V0H8.00002V8.00002H0V12Z" fill="#003580"/>
</svg>
