<svg width="28" height="20" viewBox="0 0 28 20" fill="none" xmlns="http://www.w3.org/2000/svg">
<rect width="28" height="20" rx="2" fill="white"/>
<path fill-rule="evenodd" clip-rule="evenodd" d="M27.5 2.5C27.5 1.39543 26.6046 0.5 25.5 0.5H2.5C1.39543 0.5 0.5 1.39543 0.5 2.5V17.5C0.5 18.6046 1.39543 19.5 2.5 19.5H25.5C26.6046 19.5 27.5 18.6046 27.5 17.5V2.5ZM2 0C0.895431 0 0 0.895431 0 2V18C0 19.1046 0.895431 20 2 20H26C27.1046 20 28 19.1046 28 18V2C28 0.895431 27.1046 0 26 0H2Z" fill="#F5F5F5"/>
<path d="M26.3831 0.0366559L17.3334 6.14203V0H26C26.131 0 26.2591 0.0126005 26.3831 0.0366559Z" fill="#000066"/>
<path d="M28 6.66669L27.9961 2.15624L21.3188 6.66669H28Z" fill="#000066"/>
<path d="M10.6667 0H2C1.87374 0 1.75022 0.011699 1.63046 0.0340721L10.6667 6.13215V0Z" fill="#000066"/>
<path d="M0 2.1641V6.66834L6.67401 6.66669L0 2.1641Z" fill="#000066"/>
<path d="M2 20H10.6667V13.862L1.63045 19.9659C1.75022 19.9883 1.87374 20 2 20Z" fill="#000066"/>
<path d="M17.3334 20H26C26.002 20 26.0041 20 26.0061 20C26.135 19.9996 26.261 19.987 26.3831 19.9633L17.3334 13.858V20Z" fill="#000066"/>
<path d="M28 17.8294V13.3334H21.3376L28 17.8294Z" fill="#000066"/>
<path d="M0 13.3334H6.67401L3.58011e-05 17.8359L0 13.3334Z" fill="#000066"/>
<path fill-rule="evenodd" clip-rule="evenodd" d="M0 12H12V20H16V12H28V8H16V0H12V8H0V12Z" fill="#CC0000"/>
<path d="M0.0772705 1.44764C0.140869 1.22586 0.241801 1.01986 0.37283 0.836886L8.75782 6.65602H7.6582L0.0772705 1.44764Z" fill="#CC0000"/>
<path d="M0.731417 19.5463C0.563421 19.4083 0.418312 19.2435 0.302646 19.0583L8.66484 13.33H9.71097L0.731417 19.5463Z" fill="#CC0000"/>
<path d="M27.8962 18.6377C27.8236 18.8537 27.7151 19.0533 27.5778 19.2293L18.7601 13.33H19.9501L27.8962 18.6377Z" fill="#CC0000"/>
<path d="M27.6218 0.829365L18.7524 6.66002H17.6875L27.1576 0.368896C27.3364 0.495975 27.4933 0.651696 27.6218 0.829365Z" fill="#CC0000"/>
</svg>
