<svg width="29" height="21" viewBox="0 0 29 21" fill="none" xmlns="http://www.w3.org/2000/svg">
<rect y="0.00404519" width="28.996" height="20.7114" fill="white"/>
<path fill-rule="evenodd" clip-rule="evenodd" d="M28.4782 0.52183H0.517785V20.1977H28.4782V0.52183ZM0 0.00404519V20.7154H28.996V0.00404519H0Z" fill="#F5F5F5"/>
<path d="M6.9114 13.8117L3.70745e-05 18.4744L0 2.24512L6.9114 6.90787L0 6.90958V13.8117H6.9114Z" fill="#000066"/>
<path d="M11.0461 14.3591L1.6362 20.7154H11.0461V14.3591Z" fill="#000066"/>
<path d="M22.0771 6.90787L28.9919 2.23698L28.996 6.90787H22.0771Z" fill="#000066"/>
<path d="M27.3778 0.00404519L17.9499 6.36454V0.00404519H27.3778Z" fill="#000066"/>
<path d="M17.9499 20.7154V14.355L27.3778 20.7154L17.9499 20.7154Z" fill="#000066"/>
<path d="M22.0966 13.8117L28.996 18.4676V13.8117H22.0966Z" fill="#000066"/>
<path d="M1.63617 0.00404519L11.0461 6.35432V0.00404519H1.63617Z" fill="#000066"/>
<path fill-rule="evenodd" clip-rule="evenodd" d="M0 12.4309H12.4268V20.7154H16.5691V12.4309H28.996V8.2886H16.5691V0.00404519H12.4268V8.2886H0V12.4309Z" fill="#CC0000"/>
<path fill-rule="evenodd" clip-rule="evenodd" d="M29 0.602499L19.4194 6.89824H18.3166L28.7047 0H29V0.602499Z" fill="#CC0000"/>
<path fill-rule="evenodd" clip-rule="evenodd" d="M28.996 19.3689L20.6597 13.8028H19.4274L28.996 20.2019V19.3689Z" fill="#CC0000"/>
<path fill-rule="evenodd" clip-rule="evenodd" d="M0 0.602499L9.06933 6.8941H7.93058L0 1.44761V0.602499Z" fill="#CC0000"/>
<path fill-rule="evenodd" clip-rule="evenodd" d="M10.0564 13.8028L0.0728135 20.7114L0 20.7074V19.9472L8.97304 13.8028H10.0564Z" fill="#CC0000"/>
</svg>
