<svg width="28" height="20" viewBox="0 0 28 20" fill="none" xmlns="http://www.w3.org/2000/svg">
<rect width="28" height="20" rx="2" fill="white"/>
<path fill-rule="evenodd" clip-rule="evenodd" d="M27.5 2.5C27.5 1.39543 26.6046 0.5 25.5 0.5H2.5C1.39543 0.5 0.5 1.39543 0.5 2.5V17.5C0.5 18.6046 1.39543 19.5 2.5 19.5H25.5C26.6046 19.5 27.5 18.6046 27.5 17.5V2.5ZM2 0C0.895431 0 0 0.895431 0 2V18C0 19.1046 0.895431 20 2 20H26C27.1046 20 28 19.1046 28 18V2C28 0.895431 27.1046 0 26 0H2Z" fill="#F5F5F5"/>
<path d="M0 2C0 0.895431 0.895432 0 2 0H5.33333V5.33333H0V2Z" fill="#0D5EAF"/>
<path d="M0 8V13.3333H5.33333V8H0Z" fill="#0D5EAF"/>
<path d="M0 16V18C0 18.2338 0.0401027 18.4581 0.113804 18.6667H27.8862C27.9599 18.4581 28 18.2338 28 18V16H0Z" fill="#0D5EAF"/>
<path d="M28 13.3333V10.6667H13.3333V8H28V5.33333H13.3333L13.3333 2.66667H28V2C28 0.895431 27.1046 0 26 0H8V5.33333H13.3333L13.3333 8H8V13.3333H28Z" fill="#0D5EAF"/>
</svg>
