<svg width="28" height="20" viewBox="0 0 28 20" fill="none" xmlns="http://www.w3.org/2000/svg">
<rect width="27.9999" height="20" rx="2" fill="white"/>
<path fill-rule="evenodd" clip-rule="evenodd" d="M27.4999 2.49999C27.4999 1.39543 26.6045 0.499999 25.4999 0.499999H2.49999C1.39543 0.499999 0.499999 1.39543 0.499999 2.5V17.5C0.499999 18.6045 1.39543 19.5 2.5 19.5H25.4999C26.6045 19.5 27.4999 18.6045 27.4999 17.5V2.49999ZM2 0C0.895429 0 0 0.895429 0 2V18C0 19.1045 0.895429 20 2 20H25.9999C27.1045 20 27.9999 19.1045 27.9999 18V2C27.9999 0.895429 27.1045 0 25.9999 0H2Z" fill="#F5F5F5"/>
<path fill-rule="evenodd" clip-rule="evenodd" d="M0 6.66665H27.9999V1.99999C27.9999 0.895427 27.1045 0 25.9999 0H2C0.895429 0 0 0.895429 0 2V6.66665Z" fill="#FF9933"/>
<path fill-rule="evenodd" clip-rule="evenodd" d="M0 18C0 19.1046 0.895429 20 2 20H25.9999C27.1045 20 27.9999 19.1046 27.9999 18V13.3333H0V18Z" fill="#128807"/>
<path fill-rule="evenodd" clip-rule="evenodd" d="M14 12C15.1045 12 16 11.1045 16 9.99998C16 8.89541 15.1045 7.99998 14 7.99998C12.8954 7.99998 12 8.89541 12 9.99998C12 11.1045 12.8954 12 14 12Z" fill="#DCDDEF"/>
<path fill-rule="evenodd" clip-rule="evenodd" d="M16.6667 10C16.6667 11.4728 15.4728 12.6667 14 12.6667C12.5273 12.6667 11.3334 11.4728 11.3334 10C11.3334 8.52726 12.5273 7.33336 14 7.33336C15.4728 7.33336 16.6667 8.52726 16.6667 10ZM16 10C16 11.1046 15.1046 12 14 12C12.8954 12 12 11.1046 12 10C12 8.89545 12.8954 8.00002 14 8.00002C15.1046 8.00002 16 8.89545 16 10Z" fill="#181A93"/>
<path fill-rule="evenodd" clip-rule="evenodd" d="M14 10.6667C14.3682 10.6667 14.6667 10.3682 14.6667 10C14.6667 9.63183 14.3682 9.33336 14 9.33336C13.6318 9.33336 13.3333 9.63183 13.3333 10C13.3333 10.3682 13.6318 10.6667 14 10.6667Z" fill="#181A93"/>
</svg>
