<svg width="28" height="20" viewBox="0 0 28 20" fill="none" xmlns="http://www.w3.org/2000/svg">
<rect width="28" height="20" fill="white"/>
<path fill-rule="evenodd" clip-rule="evenodd" d="M27.5 0.5H0.5V19.5H27.5V0.5ZM0 0V20H28V0H0Z" fill="#F5F5F5"/>
<path fill-rule="evenodd" clip-rule="evenodd" d="M0 6.66667H28V0H0V6.66667Z" fill="#FF9933"/>
<path fill-rule="evenodd" clip-rule="evenodd" d="M0 20H28V13.3333H0V20Z" fill="#128807"/>
<path fill-rule="evenodd" clip-rule="evenodd" d="M14 12C15.1046 12 16 11.1046 16 10C16 8.89543 15.1046 8 14 8C12.8954 8 12 8.89543 12 10C12 11.1046 12.8954 12 14 12Z" fill="#DCDDEF"/>
<path fill-rule="evenodd" clip-rule="evenodd" d="M16.6667 9.99998C16.6667 11.4727 15.4728 12.6666 14 12.6666C12.5273 12.6666 11.3334 11.4727 11.3334 9.99998C11.3334 8.52722 12.5273 7.33331 14 7.33331C15.4728 7.33331 16.6667 8.52722 16.6667 9.99998ZM16 9.99998C16 11.1045 15.1046 12 14 12C12.8955 12 12 11.1045 12 9.99998C12 8.89541 12.8955 7.99998 14 7.99998C15.1046 7.99998 16 8.89541 16 9.99998Z" fill="#181A93"/>
<path fill-rule="evenodd" clip-rule="evenodd" d="M14 10.6666C14.3682 10.6666 14.6667 10.3682 14.6667 9.99998C14.6667 9.63179 14.3682 9.33331 14 9.33331C13.6319 9.33331 13.3334 9.63179 13.3334 9.99998C13.3334 10.3682 13.6319 10.6666 14 10.6666Z" fill="#181A93"/>
</svg>
