<svg width="28" height="20" viewBox="0 0 28 20" fill="none" xmlns="http://www.w3.org/2000/svg">
<rect width="28" height="20" fill="white"/>
<path fill-rule="evenodd" clip-rule="evenodd" d="M27.5 0.5H0.5V19.5H27.5V0.5ZM0 0V20H28V0H0Z" fill="#F5F5F5"/>
<rect x="18.6666" width="9.33333" height="20" fill="#E3283E"/>
<path fill-rule="evenodd" clip-rule="evenodd" d="M0 20H9.33333V0H0V20Z" fill="#128A60"/>
<path fill-rule="evenodd" clip-rule="evenodd" d="M11.3333 8.66669C11.7015 8.66669 12 8.96516 12 9.33335C12 10.0719 12.3999 10.7177 12.9982 11.0649C13.3166 11.2497 13.425 11.6576 13.2402 11.9761C13.0554 12.2945 12.6475 12.4029 12.329 12.2181C11.3365 11.6422 10.6666 10.5664 10.6666 9.33335C10.6666 8.96516 10.9651 8.66669 11.3333 8.66669ZM16.6666 8.66669C17.0348 8.66669 17.3333 8.96516 17.3333 9.33335C17.3333 10.5147 16.7182 11.552 15.794 12.1431C15.4838 12.3415 15.0716 12.2509 14.8732 11.9407C14.6748 11.6305 14.7654 11.2182 15.0756 11.0199C15.6329 10.6634 16 10.041 16 9.33335C16 8.96516 16.2984 8.66669 16.6666 8.66669Z" fill="#8C9157"/>
<path fill-rule="evenodd" clip-rule="evenodd" d="M14 10.6667C14.7363 10.6667 15.3333 9.77126 15.3333 8.66669C15.3333 7.56212 14.7363 6.66669 14 6.66669C13.2636 6.66669 12.6666 7.56212 12.6666 8.66669C12.6666 9.77126 13.2636 10.6667 14 10.6667Z" fill="#C59262"/>
</svg>
