<svg width="28" height="20" viewBox="0 0 28 20" fill="none" xmlns="http://www.w3.org/2000/svg">
<rect width="28" height="20" rx="2" fill="white"/>
<path fill-rule="evenodd" clip-rule="evenodd" d="M27.5 2.5C27.5 1.39543 26.6046 0.5 25.5 0.5H2.5C1.39543 0.5 0.5 1.39543 0.5 2.5V17.5C0.5 18.6046 1.39543 19.5 2.5 19.5H25.5C26.6046 19.5 27.5 18.6046 27.5 17.5V2.5ZM2 0C0.895431 0 0 0.895431 0 2V18C0 19.1046 0.895431 20 2 20H26C27.1046 20 28 19.1046 28 18V2C28 0.895431 27.1046 0 26 0H2Z" fill="#F5F5F5"/>
<path d="M18.6666 0H26C27.1045 0 28 0.895431 28 2V18C28 19.1046 27.1045 20 26 20H18.6666V0Z" fill="#E3283E"/>
<path fill-rule="evenodd" clip-rule="evenodd" d="M0 18C0 19.1046 0.895431 20 2 20H9.33333V0H2C0.895429 0 0 0.895431 0 2V18Z" fill="#128A60"/>
<path fill-rule="evenodd" clip-rule="evenodd" d="M11.3334 8.66663C11.7016 8.66663 12.0001 8.9651 12.0001 9.33329C12.0001 10.0718 12.4 10.7177 12.9983 11.0648C13.3167 11.2496 13.4251 11.6576 13.2403 11.976C13.0555 12.2945 12.6476 12.4028 12.3291 12.2181C11.3366 11.6422 10.6667 10.5664 10.6667 9.33329C10.6667 8.9651 10.9652 8.66663 11.3334 8.66663ZM16.6667 8.66663C17.0349 8.66663 17.3334 8.9651 17.3334 9.33329C17.3334 10.5147 16.7183 11.5519 15.7941 12.143C15.484 12.3414 15.0717 12.2508 14.8733 11.9406C14.6749 11.6304 14.7656 11.2182 15.0757 11.0198C15.633 10.6634 16.0001 10.041 16.0001 9.33329C16.0001 8.9651 16.2986 8.66663 16.6667 8.66663Z" fill="#8C9157"/>
<path fill-rule="evenodd" clip-rule="evenodd" d="M14 10.6667C14.7363 10.6667 15.3333 9.77126 15.3333 8.66669C15.3333 7.56212 14.7363 6.66669 14 6.66669C13.2636 6.66669 12.6666 7.56212 12.6666 8.66669C12.6666 9.77126 13.2636 10.6667 14 10.6667Z" fill="#C59262"/>
</svg>
