<svg width="28" height="20" viewBox="0 0 28 20" fill="none" xmlns="http://www.w3.org/2000/svg">
<rect width="28" height="20" rx="2" fill="white"/>
<path fill-rule="evenodd" clip-rule="evenodd" d="M27.5 2.5C27.5 1.39543 26.6046 0.5 25.5 0.5H2.5C1.39543 0.5 0.5 1.39543 0.5 2.5V17.5C0.5 18.6046 1.39543 19.5 2.5 19.5H25.5C26.6046 19.5 27.5 18.6046 27.5 17.5V2.5ZM2 0C0.895431 0 0 0.895431 0 2V18C0 19.1046 0.895431 20 2 20H26C27.1046 20 28 19.1046 28 18V2C28 0.895431 27.1046 0 26 0H2Z" fill="#F5F5F5"/>
<path d="M27.8862 1.33333C27.6116 0.556538 26.8708 0 26 0H16V1.33333H27.8862Z" fill="#FF0000"/>
<path d="M0 10.6667V12H28V10.6667H0Z" fill="#FF0000"/>
<path d="M28 9.33333V8H16V9.33333H28Z" fill="#FF0000"/>
<path d="M28 6.66667V5.33333H16V6.66667H28Z" fill="#FF0000"/>
<path d="M28 4V2.66667H16V4H28Z" fill="#FF0000"/>
<path d="M28 13.3333H0V14.6667H28V13.3333Z" fill="#FF0000"/>
<path d="M28 16H0V17.3333H28V16Z" fill="#FF0000"/>
<path d="M27.8862 18.6667H0.113804C0.388361 19.4435 1.12919 20 2 20H26C26.8708 20 27.6116 19.4435 27.8862 18.6667Z" fill="#FF0000"/>
<path d="M0 2C0 0.895432 0.895431 0 2 0H16V10.6667H0V2Z" fill="#00006A"/>
<path d="M6.66669 9.33337C7.6118 9.33337 8.48035 9.0056 9.16487 8.45752C8.80226 8.59277 8.40977 8.66671 8.00002 8.66671C6.15907 8.66671 4.66669 7.17432 4.66669 5.33337C4.66669 3.49242 6.15907 2.00004 8.00002 2.00004C8.40977 2.00004 8.80226 2.07397 9.16487 2.20923C8.48035 1.66115 7.6118 1.33337 6.66669 1.33337C4.45755 1.33337 2.66669 3.12423 2.66669 5.33337C2.66669 7.54251 4.45755 9.33337 6.66669 9.33337Z" fill="#FFCE00"/>
<path d="M9.50962 7.736L10.6666 6.42675L11.8237 7.736L11.5214 6.0151L13.2665 5.9268L11.7326 5.09013L12.7515 3.67078L11.141 4.34836L10.6666 2.66675L10.1923 4.34836L8.58176 3.67078L9.60073 5.09013L8.06684 5.9268L9.81184 6.0151L9.50962 7.736Z" fill="#FFCE00"/>
</svg>
