<svg width="28" height="20" viewBox="0 0 28 20" fill="none" xmlns="http://www.w3.org/2000/svg">
<rect width="28" height="20" fill="white"/>
<path fill-rule="evenodd" clip-rule="evenodd" d="M27.5 0.5H0.5V19.5H27.5V0.5ZM0 0V20H28V0H0Z" fill="#F5F5F5"/>
<path d="M28 0H16V1.33333H28V0Z" fill="#FF0000"/>
<path d="M28 2.66667H16V4H28V2.66667Z" fill="#FF0000"/>
<path d="M16 5.33333H28V6.66667H16V5.33333Z" fill="#FF0000"/>
<path d="M28 8H16V9.33333H28V8Z" fill="#FF0000"/>
<path d="M0 10.6667H28V12H0V10.6667Z" fill="#FF0000"/>
<path d="M28 13.3333H0V14.6667H28V13.3333Z" fill="#FF0000"/>
<path d="M0 16H28V17.3333H0V16Z" fill="#FF0000"/>
<path d="M28 18.6667H0V20H28V18.6667Z" fill="#FF0000"/>
<rect width="16" height="10.6667" fill="#00006A"/>
<path d="M6.66669 9.33331C7.6118 9.33331 8.48035 9.00554 9.16487 8.45746C8.80226 8.59271 8.40977 8.66665 8.00002 8.66665C6.15907 8.66665 4.66669 7.17426 4.66669 5.33331C4.66669 3.49236 6.15907 1.99998 8.00002 1.99998C8.40977 1.99998 8.80226 2.07391 9.16487 2.20917C8.48035 1.66109 7.6118 1.33331 6.66669 1.33331C4.45755 1.33331 2.66669 3.12417 2.66669 5.33331C2.66669 7.54245 4.45755 9.33331 6.66669 9.33331Z" fill="#FFCE00"/>
<path d="M9.50962 7.73594L10.6666 6.42669L11.8237 7.73594L11.5214 6.01504L13.2665 5.92674L11.7326 5.09006L12.7515 3.67071L11.141 4.34829L10.6666 2.66669L10.1923 4.34829L8.58176 3.67071L9.60073 5.09006L8.06684 5.92674L9.81184 6.01504L9.50962 7.73594Z" fill="#FFCE00"/>
</svg>
