<svg width="28" height="20" viewBox="0 0 28 20" fill="none" xmlns="http://www.w3.org/2000/svg">
<rect width="28" height="20" fill="white"/>
<path fill-rule="evenodd" clip-rule="evenodd" d="M27.5 0.5H0.5V19.5H27.5V0.5ZM0 0V20H28V0H0Z" fill="#F5F5F5"/>
<path d="M8 0H2C0.895431 0 0 0.895431 0 2V8H8V0Z" fill="#EF2B2D"/>
<path d="M12 0V8H28V2C28 0.895431 27.1046 0 26 0H12Z" fill="#EF2B2D"/>
<path d="M28 12H12V20H26C27.1046 20 28 19.1046 28 18V12Z" fill="#EF2B2D"/>
<path d="M8 20V12H0V18C0 19.1046 0.895431 20 2 20H8Z" fill="#EF2B2D"/>
<path fill-rule="evenodd" clip-rule="evenodd" d="M0 11H9V20H11V11H28V9H11V0H9V9H0V11Z" fill="#002868"/>
</svg>
