<svg width="28" height="20" viewBox="0 0 28 20" fill="none" xmlns="http://www.w3.org/2000/svg">
<path fill-rule="evenodd" clip-rule="evenodd" d="M0 18C0 19.1046 0.895431 20 2 20H10.6667V0H2C0.895432 0 0 0.895431 0 2V18Z" fill="#006600"/>
<path fill-rule="evenodd" clip-rule="evenodd" d="M10.6911 20H26C27.1045 20 28 19.1046 28 18V2C28 0.895431 27.1045 0 26 0H10.6911V20Z" fill="#FF0000"/>
<path fill-rule="evenodd" clip-rule="evenodd" d="M14.6667 10C14.6667 12.2091 12.8758 14 10.6667 14C8.45752 14 6.66666 12.2091 6.66666 10C6.66666 7.79086 8.45752 6 10.6667 6C12.8758 6 14.6667 7.79086 14.6667 10ZM13.3333 10C13.3333 11.4728 12.1394 12.6667 10.6667 12.6667C9.1939 12.6667 7.99999 11.4728 7.99999 10C7.99999 8.52724 9.1939 7.33333 10.6667 7.33333C12.1394 7.33333 13.3333 8.52724 13.3333 10Z" fill="#FAF94F"/>
<path fill-rule="evenodd" clip-rule="evenodd" d="M9.33334 8.33333C9.33334 8.14924 9.48258 8 9.66668 8H11.6667C11.8508 8 12 8.14924 12 8.33333V10.6667C12 11.403 11.4031 12 10.6667 12C9.9303 12 9.33334 11.403 9.33334 10.6667V8.33333Z" fill="white"/>
<path fill-rule="evenodd" clip-rule="evenodd" d="M10.6667 10.6666C11.0349 10.6666 11.3333 9.70148 11.3333 9.33329C11.3333 8.9651 11.0349 8.66663 10.6667 8.66663C10.2985 8.66663 10 8.9651 10 9.33329C10 9.70148 10.2985 10.6666 10.6667 10.6666Z" fill="#1D50B5"/>
</svg>
