<svg width="28" height="20" viewBox="0 0 28 20" fill="none" xmlns="http://www.w3.org/2000/svg">
<rect width="27.9999" height="20" rx="2" fill="white"/>
<path fill-rule="evenodd" clip-rule="evenodd" d="M27.4999 2.49999C27.4999 1.39543 26.6045 0.499999 25.4999 0.499999H2.49999C1.39543 0.499999 0.499999 1.39543 0.499999 2.5V17.5C0.499999 18.6045 1.39543 19.5 2.5 19.5H25.4999C26.6045 19.5 27.4999 18.6045 27.4999 17.5V2.49999ZM2 0C0.895429 0 0 0.895429 0 2V18C0 19.1045 0.895429 20 2 20H25.9999C27.1045 20 27.9999 19.1045 27.9999 18V2C27.9999 0.895429 27.1045 0 25.9999 0H2Z" fill="#F5F5F5"/>
<path fill-rule="evenodd" clip-rule="evenodd" d="M0 13.3333H27.9999V6.66661H0V13.3333Z" fill="#0033AF"/>
<path fill-rule="evenodd" clip-rule="evenodd" d="M0 18C0 19.1046 0.895429 20 2 20H25.9999C27.1045 20 27.9999 19.1046 27.9999 18V13.3333H0V18Z" fill="#FF220F"/>
</svg>
