<svg width="28" height="20" viewBox="0 0 28 20" fill="none" xmlns="http://www.w3.org/2000/svg">
<rect width="28" height="20" rx="2" fill="white"/>
<path fill-rule="evenodd" clip-rule="evenodd" d="M27.5 2.5C27.5 1.39543 26.6046 0.5 25.5 0.5H2.5C1.39543 0.5 0.5 1.39543 0.5 2.5V17.5C0.5 18.6046 1.39543 19.5 2.5 19.5H25.5C26.6046 19.5 27.5 18.6046 27.5 17.5V2.5ZM2 0C0.895431 0 0 0.895431 0 2V18C0 19.1046 0.895431 20 2 20H26C27.1046 20 28 19.1046 28 18V2C28 0.895431 27.1046 0 26 0H2Z" fill="#F5F5F5"/>
<path fill-rule="evenodd" clip-rule="evenodd" d="M0 10.6667H28V2C28 0.895432 27.1046 0 26 0H2C0.895431 0 0 0.895431 0 2V10.6667Z" fill="#FF1F35"/>
<path d="M6.66669 9.33337C7.6118 9.33337 8.48035 9.0056 9.16487 8.45752C8.80226 8.59277 8.40978 8.66671 8.00002 8.66671C6.15907 8.66671 4.66669 7.17432 4.66669 5.33337C4.66669 3.49242 6.15907 2.00004 8.00002 2.00004C8.40977 2.00004 8.80226 2.07397 9.16487 2.20923C8.48035 1.66115 7.6118 1.33337 6.66669 1.33337C4.45755 1.33337 2.66669 3.12423 2.66669 5.33337C2.66669 7.54251 4.45755 9.33337 6.66669 9.33337Z" fill="white"/>
<path d="M8.00002 4.66671C8.00002 5.0349 7.70154 5.33337 7.33335 5.33337C6.96516 5.33337 6.66669 5.0349 6.66669 4.66671C6.66669 4.29852 6.96516 4.00004 7.33335 4.00004C7.70154 4.00004 8.00002 4.29852 8.00002 4.66671Z" fill="white"/>
<path d="M8.66669 8.00004C9.03488 8.00004 9.33335 7.70156 9.33335 7.33337C9.33335 6.96518 9.03488 6.66671 8.66669 6.66671C8.2985 6.66671 8.00002 6.96518 8.00002 7.33337C8.00002 7.70156 8.2985 8.00004 8.66669 8.00004Z" fill="white"/>
<path d="M12 7.33337C12 7.70156 11.7015 8.00004 11.3334 8.00004C10.9652 8.00004 10.6667 7.70156 10.6667 7.33337C10.6667 6.96518 10.9652 6.66671 11.3334 6.66671C11.7015 6.66671 12 6.96518 12 7.33337Z" fill="white"/>
<path d="M12.6667 5.33337C13.0349 5.33337 13.3334 5.0349 13.3334 4.66671C13.3334 4.29852 13.0349 4.00004 12.6667 4.00004C12.2985 4.00004 12 4.29852 12 4.66671C12 5.0349 12.2985 5.33337 12.6667 5.33337Z" fill="white"/>
<path d="M10.6667 2.66671C10.6667 3.0349 10.3682 3.33337 10 3.33337C9.63183 3.33337 9.33335 3.0349 9.33335 2.66671C9.33335 2.29852 9.63183 2.00004 10 2.00004C10.3682 2.00004 10.6667 2.29852 10.6667 2.66671Z" fill="white"/>
</svg>
