<svg width="28" height="20" viewBox="0 0 28 20" fill="none" xmlns="http://www.w3.org/2000/svg">
<rect width="27.9999" height="20" fill="white"/>
<path fill-rule="evenodd" clip-rule="evenodd" d="M27.4999 0.499999H0.499999V19.5H27.4999V0.499999ZM0 0V20H27.9999V0H0Z" fill="#F5F5F5"/>
<path fill-rule="evenodd" clip-rule="evenodd" d="M0 13.3333H27.9999V6.66667H9.24396V5.33334C9.24396 5.33334 8.30366 4.66668 7.33332 4.66668C6.36298 4.66668 5.33332 5.33334 5.33332 5.33334V6.66667H0V13.3333ZM8.66665 8C8.66665 8.73638 8.0697 9.33334 7.33332 9.33334C6.59694 9.33334 5.99999 8.73638 5.99999 8C5.99999 7.26363 6.59694 6.66667 7.33332 6.66667C8.0697 6.66667 8.66665 7.26363 8.66665 8Z" fill="#08399C"/>
<path fill-rule="evenodd" clip-rule="evenodd" d="M0 20H27.9999V13.3333H0V20Z" fill="#DE2918"/>
</svg>
