<svg width="28" height="20" viewBox="0 0 28 20" fill="none" xmlns="http://www.w3.org/2000/svg">
<rect width="27.9999" height="19.9999" fill="white"/>
<path fill-rule="evenodd" clip-rule="evenodd" d="M27.4999 0.499998H0.499998V19.4999H27.4999V0.499998ZM0 0V19.9999H27.9999V0H0Z" fill="#F5F5F5"/>
<path fill-rule="evenodd" clip-rule="evenodd" d="M0 13.3333H27.9999V6.66667H0V13.3333Z" fill="#0B4EA2"/>
<path fill-rule="evenodd" clip-rule="evenodd" d="M0 20H27.9999V13.3333H0V20Z" fill="#EE1C25"/>
<path fill-rule="evenodd" clip-rule="evenodd" d="M6.9497 2.66668H13.0503C14.4832 2.66668 15.6599 3.79903 15.715 5.23085L15.9742 11.9713C16.0055 12.7851 15.6633 13.5685 15.045 14.0985L12.1693 16.5633C10.921 17.6333 9.07899 17.6333 7.83069 16.5633L4.95502 14.0985C4.33672 13.5685 3.99447 12.7851 4.02577 11.9713L4.28501 5.23085C4.34008 3.79903 5.51682 2.66668 6.9497 2.66668Z" fill="white"/>
<path fill-rule="evenodd" clip-rule="evenodd" d="M5.61735 5.28207C5.64488 4.56616 6.23325 3.99999 6.94969 3.99999H13.0503C13.7667 3.99999 14.3551 4.56616 14.3826 5.28207L14.6419 12.0225C14.6575 12.4294 14.4864 12.8211 14.1772 13.0861L11.3016 15.551C10.5526 16.193 9.44738 16.193 8.6984 15.551L5.82273 13.0861C5.51358 12.8211 5.34245 12.4294 5.3581 12.0225L5.61735 5.28207Z" fill="#F73744"/>
<path fill-rule="evenodd" clip-rule="evenodd" d="M9.33332 10.9999C9.33332 10.8159 9.18408 10.6666 8.99998 10.6666H7.66665C7.48256 10.6666 7.33332 10.5174 7.33332 10.3333V9.66662C7.33332 9.48252 7.48256 9.33328 7.66665 9.33328H8.99998C9.18408 9.33328 9.33332 9.18405 9.33332 8.99995V8.33329C9.33332 8.14919 9.18408 7.99996 8.99998 7.99996H8.33332C8.14922 7.99996 7.99999 7.85072 7.99999 7.66662V6.99996C7.99999 6.81586 8.14922 6.66663 8.33332 6.66663H8.99998C9.18408 6.66663 9.33332 6.51739 9.33332 6.33329V5.66663C9.33332 5.48254 9.48255 5.3333 9.66665 5.3333H10.3333C10.5174 5.3333 10.6666 5.48253 10.6666 5.66663V6.33329C10.6666 6.51739 10.8159 6.66663 11 6.66663H11.6666C11.8507 6.66663 12 6.81586 12 6.99996V7.66662C12 7.85072 11.8507 7.99996 11.6666 7.99996H11C10.8159 7.99996 10.6666 8.14919 10.6666 8.33329V8.99995C10.6666 9.18405 10.8159 9.33328 11 9.33328H12.3333C12.5174 9.33328 12.6666 9.48252 12.6666 9.66662V10.3333C12.6666 10.5174 12.5174 10.6666 12.3333 10.6666H11C10.8159 10.6666 10.6666 10.8159 10.6666 10.9999V12.9999C10.6666 13.184 10.5174 13.3333 10.3333 13.3333H9.66665C9.48255 13.3333 9.33332 13.184 9.33332 12.9999V10.9999Z" fill="white"/>
<path d="M13.9551 15.0327L12.1693 16.5633C10.921 17.6333 9.07899 17.6333 7.8307 16.5633L6.04487 15.0326C6.27422 14.2719 7.36052 13.6516 8.79644 13.4254C9.01107 12.9766 9.46932 12.6666 9.99997 12.6666C10.5306 12.6666 10.9889 12.9766 11.2035 13.4254C12.6395 13.6516 13.7258 14.2719 13.9551 15.0327Z" fill="#1251A1"/>
</svg>
