<svg width="28" height="20" viewBox="0 0 28 20" fill="none" xmlns="http://www.w3.org/2000/svg">
<rect width="27.9999" height="20" rx="2" fill="white"/>
<path fill-rule="evenodd" clip-rule="evenodd" d="M27.4999 2.49999C27.4999 1.39543 26.6045 0.499999 25.4999 0.499999H2.49999C1.39543 0.499999 0.499999 1.39543 0.499999 2.5V17.5C0.499999 18.6045 1.39543 19.5 2.5 19.5H25.4999C26.6045 19.5 27.4999 18.6045 27.4999 17.5V2.49999ZM2 0C0.895429 0 0 0.895429 0 2V18C0 19.1045 0.895429 20 2 20H25.9999C27.1045 20 27.9999 19.1045 27.9999 18V2C27.9999 0.895429 27.1045 0 25.9999 0H2Z" fill="#F5F5F5"/>
<path fill-rule="evenodd" clip-rule="evenodd" d="M0 13.3334H27.9999V6.66673H0V13.3334Z" fill="#0B4EA2"/>
<path fill-rule="evenodd" clip-rule="evenodd" d="M0 18C0 19.1046 0.895429 20 2 20H25.9999C27.1045 20 27.9999 19.1046 27.9999 18V13.3333H0V18Z" fill="#EE1C25"/>
<path fill-rule="evenodd" clip-rule="evenodd" d="M6.94971 2.66662H13.0503C14.4832 2.66662 15.6599 3.79897 15.715 5.23079L15.9742 11.9713C16.0055 12.785 15.6633 13.5685 15.045 14.0984L12.1693 16.5633C10.921 17.6333 9.079 17.6333 7.8307 16.5633L4.95502 14.0984C4.33672 13.5685 3.99447 12.785 4.02577 11.9713L4.28502 5.23079C4.34009 3.79897 5.51683 2.66662 6.94971 2.66662Z" fill="white"/>
<path fill-rule="evenodd" clip-rule="evenodd" d="M5.61735 5.28208C5.64489 4.56617 6.23326 3.99999 6.9497 3.99999H13.0503C13.7667 3.99999 14.3551 4.56617 14.3826 5.28208L14.6419 12.0225C14.6575 12.4294 14.4864 12.8211 14.1772 13.0861L11.3016 15.551C10.5526 16.193 9.44739 16.193 8.69841 15.551L5.82273 13.0861C5.51358 12.8211 5.34246 12.4294 5.35811 12.0225L5.61735 5.28208Z" fill="#F73744"/>
<path fill-rule="evenodd" clip-rule="evenodd" d="M9.33332 11C9.33332 10.8159 9.18409 10.6667 8.99999 10.6667H7.66666C7.48257 10.6667 7.33333 10.5174 7.33333 10.3334V9.66669C7.33333 9.48259 7.48257 9.33336 7.66666 9.33336H8.99999C9.18409 9.33336 9.33332 9.18412 9.33332 9.00002V8.33336C9.33332 8.14926 9.18409 8.00002 8.99999 8.00002H8.33333C8.14923 8.00002 7.99999 7.85079 7.99999 7.66669V7.00003C7.99999 6.81593 8.14923 6.66669 8.33333 6.66669H8.99999C9.18409 6.66669 9.33332 6.51746 9.33332 6.33336V5.6667C9.33332 5.4826 9.48256 5.33336 9.66666 5.33336H10.3333C10.5174 5.33336 10.6667 5.4826 10.6667 5.6667V6.33336C10.6667 6.51746 10.8159 6.66669 11 6.66669H11.6667C11.8507 6.66669 12 6.81593 12 7.00003V7.66669C12 7.85079 11.8507 8.00002 11.6667 8.00002H11C10.8159 8.00002 10.6667 8.14926 10.6667 8.33336V9.00002C10.6667 9.18412 10.8159 9.33336 11 9.33336H12.3333C12.5174 9.33336 12.6667 9.48259 12.6667 9.66669V10.3334C12.6667 10.5174 12.5174 10.6667 12.3333 10.6667H11C10.8159 10.6667 10.6667 10.8159 10.6667 11V13C10.6667 13.1841 10.5174 13.3333 10.3333 13.3333H9.66666C9.48256 13.3333 9.33332 13.1841 9.33332 13V11Z" fill="white"/>
<path d="M13.9551 15.0327L12.1693 16.5634C10.921 17.6333 9.079 17.6333 7.8307 16.5634L6.04488 15.0326C6.27422 14.2719 7.36052 13.6516 8.79645 13.4254C9.01108 12.9766 9.46933 12.6666 9.99999 12.6666C10.5306 12.6666 10.9889 12.9766 11.2035 13.4254C12.6395 13.6516 13.7258 14.2719 13.9551 15.0327Z" fill="#1251A1"/>
</svg>
