<svg width="28" height="20" viewBox="0 0 28 20" fill="none" xmlns="http://www.w3.org/2000/svg">
<path fill-rule="evenodd" clip-rule="evenodd" d="M0 18C0 19.1046 0.895431 20 2 20H26C27.1046 20 28 19.1046 28 18V2C28 0.895431 27.1046 0 26 0H2C0.895431 0 0 0.895431 0 2V18Z" fill="#FF2828"/>
<path fill-rule="evenodd" clip-rule="evenodd" d="M0 11H15V0H2C0.89543 0 0 0.895431 0 2V11Z" fill="#0000BC"/>
<path fill-rule="evenodd" clip-rule="evenodd" d="M7.50008 7.16663L6.22447 8.57956L6.32157 6.67847L4.42048 6.77557L5.83341 5.49996L4.42048 4.22435L6.32157 4.32145L6.22447 2.42036L7.50008 3.83329L8.77569 2.42036L8.67859 4.32145L10.5797 4.22435L9.16675 5.49996L10.5797 6.77557L8.67859 6.67847L8.77569 8.57956L7.50008 7.16663Z" fill="white"/>
</svg>
