<svg width="28" height="20" viewBox="0 0 28 20" fill="none" xmlns="http://www.w3.org/2000/svg">
<rect width="28" height="20" fill="white"/>
<path fill-rule="evenodd" clip-rule="evenodd" d="M27.5 0.5H0.5V19.5H27.5V0.5ZM0 0V20H28V0H0Z" fill="#F5F5F5"/>
<path d="M28 0H12.83V1.33333H28V0Z" fill="#BD3D44"/>
<path d="M28 2.66667H12.83V4H28V2.66667Z" fill="#BD3D44"/>
<path d="M12.83 5.33333H28V6.66667H12.83V5.33333Z" fill="#BD3D44"/>
<path d="M28 8H12.83V9.33333H28V8Z" fill="#BD3D44"/>
<path d="M0 10.6667H28V12H0V10.6667Z" fill="#BD3D44"/>
<path d="M28 13.3333H0V14.6667H28V13.3333Z" fill="#BD3D44"/>
<path d="M0 16H28V17.3333H0V16Z" fill="#BD3D44"/>
<path d="M28 18.6667H0V20H28V18.6667Z" fill="#BD3D44"/>
<path fill-rule="evenodd" clip-rule="evenodd" d="M0 0H12.832V9.32911H0V0Z" fill="#192F5D"/>
<path fill-rule="evenodd" clip-rule="evenodd" d="M1.18543 0.767515L1.06869 0.398804L0.951915 0.767515H0.574097L0.879761 0.995421L0.763022 1.36413L1.06865 1.13626L1.37435 1.36413L1.25758 0.995421L1.56328 0.767515H1.18543ZM3.32479 0.768005L3.20802 0.399294L3.09128 0.768005H2.71346L3.01913 0.995911L2.90239 1.36462L3.20802 1.13675L3.51372 1.36462L3.39695 0.995911L3.70264 0.768005H3.32479ZM5.34673 0.399294L5.46346 0.768005H5.84132L5.53562 0.995911L5.65239 1.36462L5.34673 1.13675L5.04106 1.36462L5.1578 0.995911L4.85214 0.768005H5.22999L5.34673 0.399294ZM7.60217 0.768005L7.48543 0.399294L7.36866 0.768005H6.99081L7.29651 0.995911L7.17973 1.36462L7.48543 1.13675L7.79106 1.36462L7.67432 0.995911L7.97999 0.768005H7.60217ZM9.62407 0.399294L9.74081 0.768005H10.1187L9.81296 0.995911L9.92973 1.36462L9.62404 1.13675L9.31841 1.36462L9.43514 0.995911L9.12948 0.768005H9.5073L9.62407 0.399294ZM11.8795 0.768005L11.7627 0.399294L11.646 0.768005H11.2682L11.5738 0.995911L11.457 1.36462L11.7627 1.13675L12.0684 1.36462L11.9516 0.995911L12.2573 0.768005H11.8795ZM2.13734 1.33094L2.25408 1.69965H2.63193L2.32623 1.92753L2.44304 2.29627L2.13734 2.0684L1.83168 2.29627L1.94842 1.92753L1.64275 1.69965H2.0206L2.13734 1.33094ZM4.39404 1.70096L4.2773 1.33225L4.16053 1.70096H3.78268L4.08838 1.92883L3.9716 2.29758L4.2773 2.06971L4.58293 2.29758L4.46619 1.92883L4.77186 1.70096H4.39404ZM6.41594 1.33225L6.53268 1.70096H6.91053L6.60483 1.92883L6.7216 2.29758L6.41591 2.06971L6.11028 2.29758L6.22701 1.92883L5.92135 1.70096H6.29917L6.41594 1.33225ZM8.67144 1.70096L8.5547 1.33225L8.43799 1.70096H8.06014L8.36584 1.92883L8.249 2.29758L8.5547 2.06971L8.86036 2.29758L8.74359 1.92883L9.04929 1.70096H8.67144ZM10.6934 1.33225L10.8102 1.70096H11.188L10.8823 1.92883L10.9991 2.29758L10.6934 2.06971L10.3877 2.29758L10.5045 1.92883L10.1988 1.70096H10.5767L10.6934 1.33225ZM1.18612 2.63387L1.06938 2.26516L0.952611 2.63387H0.574792L0.880457 2.86178L0.763718 3.23049L1.06935 3.00261L1.37505 3.23049L1.25827 2.86178L1.56397 2.63387H1.18612ZM3.20802 2.26516L3.32479 2.63387H3.70264L3.39695 2.86178L3.51372 3.23049L3.20802 3.00261L2.90239 3.23049L3.01913 2.86178L2.71346 2.63387H3.09128L3.20802 2.26516ZM5.46346 2.63387L5.34673 2.26516L5.22999 2.63387H4.85214L5.1578 2.86178L5.04106 3.23049L5.34673 3.00261L5.65239 3.23049L5.53562 2.86178L5.84132 2.63387H5.46346ZM7.48543 2.26516L7.60217 2.63387H7.97999L7.67432 2.86178L7.79106 3.23049L7.48543 3.00261L7.17973 3.23049L7.29651 2.86178L6.99081 2.63387H7.36866L7.48543 2.26516ZM9.74081 2.63387L9.62407 2.26516L9.5073 2.63387H9.12948L9.43514 2.86178L9.31841 3.23049L9.62404 3.00261L9.92973 3.23049L9.81296 2.86178L10.1187 2.63387H9.74081ZM11.7627 2.26516L11.8795 2.63387H12.2573L11.9516 2.86178L12.0684 3.23049L11.7627 3.00261L11.457 3.23049L11.5738 2.86178L11.2682 2.63387H11.646L11.7627 2.26516ZM2.25546 3.56681L2.13872 3.19807L2.02198 3.56681H1.64413L1.94979 3.79469L1.83305 4.16343L2.13872 3.93556L2.44442 4.16343L2.32761 3.79469L2.63331 3.56681H2.25546ZM4.2773 3.19807L4.39404 3.56681H4.77186L4.46619 3.79469L4.58293 4.16343L4.2773 3.93556L3.9716 4.16343L4.08838 3.79469L3.78268 3.56681H4.16053L4.2773 3.19807ZM6.53268 3.56681L6.41594 3.19807L6.29917 3.56681H5.92135L6.22701 3.79469L6.11028 4.16343L6.41591 3.93556L6.7216 4.16343L6.60483 3.79469L6.91053 3.56681H6.53268ZM8.55473 3.19807L8.67147 3.56681H9.04932L8.74363 3.79469L8.8604 4.16343L8.55473 3.93556L8.24904 4.16343L8.36584 3.79469L8.06014 3.56681H8.43799L8.55473 3.19807ZM10.8102 3.56681L10.6934 3.19807L10.5767 3.56681H10.1988L10.5045 3.79469L10.3877 4.16343L10.6934 3.93556L10.9991 4.16343L10.8823 3.79469L11.188 3.56681H10.8102ZM1.06938 4.13101L1.18612 4.49972H1.56397L1.25827 4.72763L1.37505 5.09634L1.06935 4.86846L0.763718 5.09634L0.880457 4.72763L0.574792 4.49972H0.952611L1.06938 4.13101ZM3.32479 4.49972L3.20802 4.13101L3.09128 4.49972H2.71346L3.01913 4.72763L2.90239 5.09634L3.20802 4.86846L3.51372 5.09634L3.39695 4.72763L3.70264 4.49972H3.32479ZM5.34673 4.13101L5.46346 4.49972H5.84132L5.53562 4.72763L5.65239 5.09634L5.34673 4.86846L5.04106 5.09634L5.1578 4.72763L4.85214 4.49972H5.22999L5.34673 4.13101ZM7.60217 4.49972L7.48543 4.13101L7.36866 4.49972H6.99081L7.29651 4.72763L7.17973 5.09634L7.48543 4.86846L7.79106 5.09634L7.67432 4.72763L7.97999 4.49972H7.60217ZM9.62407 4.13101L9.74081 4.49972H10.1187L9.81296 4.72763L9.92973 5.09634L9.62404 4.86846L9.31841 5.09634L9.43514 4.72763L9.12948 4.49972H9.5073L9.62407 4.13101ZM11.8795 4.49972L11.7627 4.13101L11.646 4.49972H11.2682L11.5738 4.72763L11.457 5.09634L11.7627 4.86846L12.0684 5.09634L11.9516 4.72763L12.2573 4.49972H11.8795ZM2.13872 5.06393L2.25546 5.43268H2.63331L2.32761 5.66055L2.44442 6.0293L2.13872 5.80142L1.83305 6.0293L1.94979 5.66055L1.64413 5.43268H2.02198L2.13872 5.06393ZM4.39404 5.43268L4.2773 5.06393L4.16053 5.43268H3.78268L4.08838 5.66055L3.9716 6.0293L4.2773 5.80142L4.58293 6.0293L4.46619 5.66055L4.77186 5.43268H4.39404ZM6.41594 5.06393L6.53268 5.43268H6.91053L6.60483 5.66055L6.7216 6.0293L6.41591 5.80142L6.11028 6.0293L6.22701 5.66055L5.92135 5.43268H6.29917L6.41594 5.06393ZM8.67147 5.43268L8.55473 5.06393L8.43799 5.43268H8.06014L8.36584 5.66055L8.24904 6.0293L8.55473 5.80142L8.8604 6.0293L8.74363 5.66055L9.04932 5.43268H8.67147ZM10.6934 5.06393L10.8102 5.43268H11.188L10.8823 5.66055L10.9991 6.0293L10.6934 5.80142L10.3877 6.0293L10.5045 5.66055L10.1988 5.43268H10.5767L10.6934 5.06393ZM1.18612 6.36557L1.06938 5.99686L0.952611 6.36557H0.574792L0.880457 6.59348L0.763718 6.96219L1.06935 6.73431L1.37505 6.96219L1.25827 6.59348L1.56397 6.36557H1.18612ZM3.20802 5.99686L3.32479 6.36557H3.70264L3.39695 6.59348L3.51372 6.96219L3.20802 6.73431L2.90239 6.96219L3.01913 6.59348L2.71346 6.36557H3.09128L3.20802 5.99686ZM5.46346 6.36557L5.34673 5.99686L5.22999 6.36557H4.85214L5.1578 6.59348L5.04106 6.96219L5.34673 6.73431L5.65239 6.96219L5.53562 6.59348L5.84132 6.36557H5.46346ZM7.48543 5.99686L7.60217 6.36557H7.97999L7.67432 6.59348L7.79106 6.96219L7.48543 6.73431L7.17973 6.96219L7.29651 6.59348L6.99081 6.36557H7.36866L7.48543 5.99686ZM9.74081 6.36557L9.62407 5.99686L9.5073 6.36557H9.12948L9.43514 6.59348L9.31841 6.96219L9.62404 6.73431L9.92973 6.96219L9.81296 6.59348L10.1187 6.36557H9.74081ZM11.7627 5.99686L11.8795 6.36557H12.2573L11.9516 6.59348L12.0684 6.96219L11.7627 6.73431L11.457 6.96219L11.5738 6.59348L11.2682 6.36557H11.646L11.7627 5.99686ZM2.25546 7.29851L2.13872 6.92977L2.02198 7.29851H1.64413L1.94979 7.52639L1.83305 7.89513L2.13872 7.66726L2.44442 7.89513L2.32761 7.52639L2.63331 7.29851H2.25546ZM4.2773 6.92977L4.39404 7.29851H4.77186L4.46619 7.52639L4.58293 7.89513L4.2773 7.66726L3.9716 7.89513L4.08838 7.52639L3.78268 7.29851H4.16053L4.2773 6.92977ZM6.53268 7.29851L6.41594 6.92977L6.29917 7.29851H5.92135L6.22701 7.52639L6.11028 7.89513L6.41591 7.66726L6.7216 7.89513L6.60483 7.52639L6.91053 7.29851H6.53268ZM8.55473 6.92977L8.67147 7.29851H9.04932L8.74363 7.52639L8.8604 7.89513L8.55473 7.66726L8.24904 7.89513L8.36584 7.52639L8.06014 7.29851H8.43799L8.55473 6.92977ZM10.8102 7.29851L10.6934 6.92977L10.5767 7.29851H10.1988L10.5045 7.52639L10.3877 7.89513L10.6934 7.66726L10.9991 7.89513L10.8823 7.52639L11.188 7.29851H10.8102ZM1.06938 7.86272L1.18612 8.23143H1.56397L1.25827 8.45934L1.37505 8.82805L1.06935 8.60018L0.763718 8.82805L0.880457 8.45934L0.574792 8.23143H0.952611L1.06938 7.86272ZM3.32479 8.23143L3.20802 7.86272L3.09128 8.23143H2.71346L3.01913 8.45934L2.90239 8.82805L3.20802 8.60018L3.51372 8.82805L3.39695 8.45934L3.70264 8.23143H3.32479ZM5.34673 7.86272L5.46346 8.23143H5.84132L5.53562 8.45934L5.65239 8.82805L5.34673 8.60018L5.04106 8.82805L5.1578 8.45934L4.85214 8.23143H5.22999L5.34673 7.86272ZM7.60217 8.23143L7.48543 7.86272L7.36866 8.23143H6.99081L7.29651 8.45934L7.17973 8.82805L7.48543 8.60018L7.79106 8.82805L7.67432 8.45934L7.97999 8.23143H7.60217ZM9.62407 7.86272L9.74081 8.23143H10.1187L9.81296 8.45934L9.92973 8.82805L9.62404 8.60018L9.31841 8.82805L9.43514 8.45934L9.12948 8.23143H9.5073L9.62407 7.86272ZM11.8795 8.23143L11.7627 7.86272L11.646 8.23143H11.2682L11.5738 8.45934L11.457 8.82805L11.7627 8.60018L12.0684 8.82805L11.9516 8.45934L12.2573 8.23143H11.8795Z" fill="white"/>
</svg>
